<svg width="141" height="40" viewBox="0 0 141 40" fill="none" xmlns="http://www.w3.org/2000/svg">
<rect y="16" width="7.99999" height="7.99999" fill="#039855"/>
<rect x="24" y="24" width="8" height="7.99999" transform="rotate(180 24 24)" fill="#027A48"/>
<path d="M8 16L16 8V16L8 24V16Z" fill="#A6F4C5"/>
<path d="M16 24L8.00001 32L8.00001 24L16 16L16 24Z" fill="#6CE9A6"/>
<path d="M0 16L16 0V7.99999L7.99999 16H0Z" fill="#32D583"/>
<path d="M24 24L8.00002 40L8.00002 32L16 24L24 24Z" fill="#12B76A"/>
<path d="M41.4244 28.567C40.1644 28.567 38.9433 28.3881 37.761 28.0303C36.5944 27.6725 35.6688 27.1981 34.9844 26.607L36.0344 24.2503C36.7033 24.7792 37.5199 25.2148 38.4844 25.557C39.4644 25.8836 40.4444 26.047 41.4244 26.047C42.6377 26.047 43.5399 25.8525 44.131 25.4636C44.7377 25.0748 45.041 24.5614 45.041 23.9236C45.041 23.457 44.8699 23.0759 44.5277 22.7803C44.201 22.4692 43.781 22.2281 43.2677 22.057C42.7544 21.8859 42.0544 21.6914 41.1677 21.4736C39.9233 21.1781 38.9122 20.8825 38.1344 20.587C37.3722 20.2914 36.711 19.8325 36.151 19.2103C35.6066 18.5725 35.3344 17.717 35.3344 16.6436C35.3344 15.7414 35.5755 14.9248 36.0577 14.1936C36.5555 13.447 37.2944 12.8559 38.2744 12.4203C39.2699 11.9848 40.4833 11.767 41.9144 11.767C42.9099 11.767 43.8899 11.8914 44.8544 12.1403C45.8188 12.3892 46.651 12.747 47.351 13.2136L46.3944 15.5703C45.6788 15.1503 44.9322 14.8314 44.1544 14.6136C43.3766 14.3959 42.6221 14.287 41.891 14.287C40.6933 14.287 39.7988 14.4892 39.2077 14.8936C38.6322 15.2981 38.3444 15.8348 38.3444 16.5036C38.3444 16.9703 38.5077 17.3514 38.8344 17.647C39.1766 17.9425 39.6044 18.1759 40.1177 18.347C40.631 18.5181 41.331 18.7125 42.2177 18.9303C43.431 19.2103 44.4266 19.5059 45.2044 19.817C45.9821 20.1125 46.6433 20.5714 47.1877 21.1936C47.7477 21.8159 48.0277 22.6559 48.0277 23.7136C48.0277 24.6159 47.7788 25.4325 47.281 26.1636C46.7988 26.8948 46.0599 27.4781 45.0644 27.9136C44.0688 28.3492 42.8555 28.567 41.4244 28.567Z" fill="#181D27"/>
<path d="M50.7555 15.8736H53.6722V28.3336H50.7555V15.8736ZM52.2255 13.8203C51.6966 13.8203 51.2533 13.657 50.8955 13.3303C50.5377 12.9881 50.3588 12.5681 50.3588 12.0703C50.3588 11.5725 50.5377 11.1603 50.8955 10.8336C51.2533 10.4914 51.6966 10.3203 52.2255 10.3203C52.7544 10.3203 53.1977 10.4836 53.5555 10.8103C53.9133 11.1214 54.0922 11.5181 54.0922 12.0003C54.0922 12.5136 53.9133 12.9492 53.5555 13.307C53.2133 13.6492 52.77 13.8203 52.2255 13.8203Z" fill="#181D27"/>
<path d="M61.3503 28.497C60.3392 28.497 59.3514 28.3648 58.387 28.1003C57.4225 27.8359 56.6525 27.5014 56.077 27.097L57.197 24.8803C57.757 25.2536 58.4259 25.557 59.2036 25.7903C59.997 26.0081 60.7747 26.117 61.537 26.117C63.2792 26.117 64.1503 25.6581 64.1503 24.7403C64.1503 24.3048 63.9247 24.0014 63.4736 23.8303C63.0381 23.6592 62.3303 23.4959 61.3503 23.3403C60.3236 23.1848 59.4836 23.0059 58.8303 22.8036C58.1925 22.6014 57.6325 22.2514 57.1503 21.7536C56.6836 21.2403 56.4503 20.5325 56.4503 19.6303C56.4503 18.4481 56.9403 17.507 57.9203 16.807C58.9159 16.0914 60.2536 15.7336 61.9336 15.7336C62.7892 15.7336 63.6447 15.8348 64.5003 16.037C65.3559 16.2236 66.0559 16.4803 66.6003 16.807L65.4803 19.0236C64.4225 18.4014 63.2325 18.0903 61.9103 18.0903C61.0547 18.0903 60.4014 18.2225 59.9503 18.487C59.5147 18.7359 59.297 19.0703 59.297 19.4903C59.297 19.957 59.5303 20.2914 59.997 20.4936C60.4792 20.6803 61.2181 20.8592 62.2136 21.0303C63.2092 21.1859 64.0259 21.3648 64.6636 21.567C65.3014 21.7692 65.8459 22.1114 66.297 22.5936C66.7636 23.0759 66.997 23.7603 66.997 24.647C66.997 25.8136 66.4914 26.747 65.4803 27.447C64.4692 28.147 63.0925 28.497 61.3503 28.497Z" fill="#181D27"/>
<path d="M80.9476 15.8736L75.1142 29.337C74.5698 30.6903 73.9087 31.6392 73.1309 32.1837C72.3531 32.7437 71.412 33.0236 70.3076 33.0236C69.6853 33.0236 69.0709 32.9225 68.4642 32.7203C67.8576 32.5181 67.3598 32.2381 66.9709 31.8803L68.1376 29.7336C68.4176 29.9981 68.7442 30.2081 69.1176 30.3636C69.5065 30.5192 69.8953 30.597 70.2842 30.597C70.7976 30.597 71.2176 30.4648 71.5442 30.2003C71.8865 29.9359 72.1976 29.4925 72.4776 28.8703L72.6876 28.3803L67.2509 15.8736H70.2842L74.2042 25.0903L78.1476 15.8736H80.9476Z" fill="#181D27"/>
<path d="M89.6771 15.7336C90.8905 15.7336 91.9716 15.9981 92.9205 16.527C93.8849 17.0559 94.6394 17.8025 95.1838 18.767C95.7282 19.7314 96.0005 20.8436 96.0005 22.1036C96.0005 23.3636 95.7282 24.4836 95.1838 25.4636C94.6394 26.4281 93.8849 27.1748 92.9205 27.7036C91.9716 28.2325 90.8905 28.497 89.6771 28.497C87.9971 28.497 86.6671 27.937 85.6871 26.817V32.8603H82.7705V15.8736H85.5471V17.507C86.0294 16.9159 86.6205 16.4725 87.3205 16.177C88.036 15.8814 88.8216 15.7336 89.6771 15.7336ZM89.3505 26.0003C90.4238 26.0003 91.3027 25.6425 91.9871 24.927C92.6871 24.2114 93.0371 23.2703 93.0371 22.1036C93.0371 20.937 92.6871 19.9959 91.9871 19.2803C91.3027 18.5648 90.4238 18.207 89.3505 18.207C88.6505 18.207 88.0205 18.3703 87.4605 18.697C86.9005 19.0081 86.4571 19.4592 86.1305 20.0503C85.8038 20.6414 85.6405 21.3259 85.6405 22.1036C85.6405 22.8814 85.8038 23.5659 86.1305 24.157C86.4571 24.7481 86.9005 25.207 87.4605 25.5336C88.0205 25.8448 88.6505 26.0003 89.3505 26.0003Z" fill="#181D27"/>
<path d="M105.837 15.7336C107.408 15.7336 108.668 16.1925 109.617 17.1103C110.565 18.0281 111.04 19.3892 111.04 21.1936V28.3336H108.123V21.567C108.123 20.4781 107.867 19.6614 107.353 19.117C106.84 18.557 106.109 18.277 105.16 18.277C104.087 18.277 103.239 18.6036 102.617 19.257C101.994 19.8948 101.683 20.8203 101.683 22.0336V28.3336H98.7666V11.0203H101.683V17.3203C102.165 16.807 102.757 16.4181 103.457 16.1536C104.172 15.8736 104.965 15.7336 105.837 15.7336Z" fill="#181D27"/>
<path d="M126.803 15.8736V28.3336H124.027V26.747C123.56 27.307 122.977 27.7425 122.277 28.0536C121.577 28.3492 120.822 28.497 120.013 28.497C118.349 28.497 117.034 28.0381 116.07 27.1203C115.121 26.187 114.647 24.8103 114.647 22.9903V15.8736H117.563V22.5936C117.563 23.7136 117.812 24.5536 118.31 25.1136C118.823 25.6581 119.547 25.9303 120.48 25.9303C121.522 25.9303 122.347 25.6114 122.953 24.9736C123.575 24.3203 123.887 23.387 123.887 22.1736V15.8736H126.803Z" fill="#181D27"/>
<path d="M134.472 28.497C133.461 28.497 132.473 28.3648 131.509 28.1003C130.544 27.8359 129.774 27.5014 129.199 27.097L130.319 24.8803C130.879 25.2536 131.548 25.557 132.325 25.7903C133.119 26.0081 133.896 26.117 134.659 26.117C136.401 26.117 137.272 25.6581 137.272 24.7403C137.272 24.3048 137.046 24.0014 136.595 23.8303C136.16 23.6592 135.452 23.4959 134.472 23.3403C133.445 23.1848 132.605 23.0059 131.952 22.8036C131.314 22.6014 130.754 22.2514 130.272 21.7536C129.805 21.2403 129.572 20.5325 129.572 19.6303C129.572 18.4481 130.062 17.507 131.042 16.807C132.038 16.0914 133.375 15.7336 135.055 15.7336C135.911 15.7336 136.766 15.8348 137.622 16.037C138.478 16.2236 139.178 16.4803 139.722 16.807L138.602 19.0236C137.544 18.4014 136.354 18.0903 135.032 18.0903C134.176 18.0903 133.523 18.2225 133.072 18.487C132.636 18.7359 132.419 19.0703 132.419 19.4903C132.419 19.957 132.652 20.2914 133.119 20.4936C133.601 20.6803 134.34 20.8592 135.335 21.0303C136.331 21.1859 137.148 21.3648 137.785 21.567C138.423 21.7692 138.968 22.1114 139.419 22.5936C139.885 23.0759 140.119 23.7603 140.119 24.647C140.119 25.8136 139.613 26.747 138.602 27.447C137.591 28.147 136.214 28.497 134.472 28.497Z" fill="#181D27"/>
</svg>
