<svg width="36" height="36" viewBox="0 0 36 36" fill="none" xmlns="http://www.w3.org/2000/svg">
<path d="M21.2554 13.71H28.1854C28.5557 13.7405 28.902 13.5242 29.037 13.1781C29.172 12.8319 29.0636 12.4382 28.7704 12.21L20.4454 4.035C20.2172 3.74184 19.8235 3.63341 19.4774 3.7684C19.1312 3.9034 18.9149 4.24973 18.9454 4.62V11.475C18.9451 12.081 19.1908 12.6611 19.6263 13.0825C20.0618 13.5039 20.6498 13.7303 21.2554 13.71Z" fill="white"/>
<path fill-rule="evenodd" clip-rule="evenodd" d="M12.0004 21H17.1454C17.4189 20.9785 17.6721 21.1453 17.7604 21.405L18.6604 25.74L14.5654 28.74L10.5004 25.635L11.4154 21.465C11.4783 21.1927 11.7209 20.9998 12.0004 21ZM14.6104 26.205L16.1104 24.705V24.66C16.52 24.2264 16.52 23.5486 16.1104 23.115C15.9015 22.9006 15.6148 22.7796 15.3154 22.7796C15.016 22.7796 14.7294 22.9006 14.5204 23.115L13.0204 24.615C12.5818 25.0542 12.5818 25.7658 13.0204 26.205C13.2347 26.4108 13.5184 26.5285 13.8154 26.535C14.1131 26.5315 14.3978 26.4133 14.6104 26.205Z" fill="white"/>
<path fill-rule="evenodd" clip-rule="evenodd" d="M21.1054 15.36H28.2754C28.6896 15.36 29.0254 15.6958 29.0254 16.11V26.49C29.0254 29.8037 26.3391 32.49 23.0254 32.49H12.6904C9.37672 32.49 6.69043 29.8037 6.69043 26.49V9.75C6.69043 6.4363 9.37672 3.75 12.6904 3.75H16.6954C17.1063 3.75798 17.4375 4.08914 17.4454 4.5V11.67C17.4414 12.6447 17.8248 13.581 18.5112 14.273C19.1976 14.965 20.1308 15.356 21.1054 15.36ZM15.8554 30.585L19.9504 27.585C20.7031 27.0516 21.0443 26.1061 20.8054 25.215L19.9204 21C19.6683 19.6975 18.5466 18.744 17.2204 18.705H12.0004C10.6178 18.6724 9.41347 19.6423 9.15043 21L8.31043 25.065C7.99537 25.9917 8.32441 27.0154 9.12043 27.585L13.2154 30.585C13.9998 31.1651 15.071 31.1651 15.8554 30.585Z" fill="white"/>
</svg>
