<svg width="36" height="36" viewBox="0 0 36 36" fill="none" xmlns="http://www.w3.org/2000/svg">
<path fill-rule="evenodd" clip-rule="evenodd" d="M21.1054 15.36H28.2904C28.7046 15.36 29.0404 15.6957 29.0404 16.11V26.49C29.0404 29.8037 26.3541 32.49 23.0404 32.49H12.6904C9.37672 32.49 6.69043 29.8037 6.69043 26.49V9.74995C6.69043 6.43625 9.37672 3.74996 12.6904 3.74996H16.6954C17.1096 3.74996 17.4454 4.08574 17.4454 4.49996V11.67C17.4414 12.6446 17.8248 13.581 18.5112 14.273C19.1976 14.965 20.1308 15.356 21.1054 15.36ZM12.0904 16.11C11.262 16.11 10.5904 16.7815 10.5904 17.61L10.6054 19.695C10.6054 20.5234 11.277 21.195 12.1054 21.195H14.1904C15.0189 21.195 15.6904 20.5234 15.6904 19.695V17.61C15.6904 16.7815 15.0189 16.11 14.1904 16.11H12.0904ZM11.7154 22.77H18.3604C18.9817 22.77 19.4854 23.2736 19.4854 23.895C19.4854 24.5163 18.9817 25.02 18.3604 25.02H11.7154C11.0941 25.02 10.5904 24.5163 10.5904 23.895C10.5904 23.2736 11.0941 22.77 11.7154 22.77ZM11.7154 28.77H20.5654C21.1867 28.77 21.6904 28.2663 21.6904 27.645C21.6904 27.0236 21.1867 26.52 20.5654 26.52H11.7154C11.0941 26.52 10.5904 27.0236 10.5904 27.645C10.5904 28.2663 11.0941 28.77 11.7154 28.77Z" fill="white"/>
<path d="M19.0204 4.61996V11.475C19.0204 12.7093 20.0211 13.71 21.2554 13.71H28.1854C28.5671 13.7682 28.9381 13.5539 29.0784 13.1941C29.2187 12.8344 29.0907 12.4255 28.7704 12.21L20.4454 3.95996C20.196 3.71617 19.8218 3.65192 19.5053 3.79851C19.1888 3.9451 18.9958 4.27203 19.0204 4.61996Z" fill="white"/>
</svg>
