<svg width="36" height="36" viewBox="0 0 36 36" fill="none" xmlns="http://www.w3.org/2000/svg">
<path d="M3.52488 14.3256L15.4049 20.3256C16.6164 20.8945 18.0183 20.8945 19.2299 20.3256L32.4149 14.3256C32.8924 14.0614 33.1887 13.5588 33.1887 13.0131C33.1887 12.4674 32.8924 11.9648 32.4149 11.7006L19.2299 5.70063C18.6552 5.43988 18.0309 5.30682 17.3999 5.31063C16.708 5.31019 16.0253 5.46932 15.4049 5.77563L3.52488 11.7756C3.08356 12.0491 2.81506 12.5314 2.81506 13.0506C2.81506 13.5698 3.08356 14.0521 3.52488 14.3256Z" fill="white"/>
<path d="M31.9349 18.0006L18.6599 23.5356C17.848 23.9196 16.9068 23.9196 16.0949 23.5356L4.33488 18.0006C3.76722 17.745 3.09946 17.9921 2.83488 18.5556C2.70792 18.8279 2.69515 19.1397 2.7994 19.4214C2.90365 19.7032 3.11627 19.9316 3.38988 20.0556L15.1199 25.5006C15.8488 25.856 16.649 26.0406 17.4599 26.0406C18.1839 26.0418 18.8999 25.8884 19.5599 25.5906L32.7899 20.0856C33.3656 19.8495 33.641 19.1914 33.4049 18.6156C33.1688 18.0399 32.5106 17.7645 31.9349 18.0006Z" fill="white"/>
<path d="M31.9349 22.6206L18.6599 28.1556C17.848 28.5396 16.9068 28.5396 16.0949 28.1556L4.33488 22.6356C3.96779 22.4668 3.53853 22.5067 3.20879 22.7402C2.87906 22.9737 2.69894 23.3654 2.73629 23.7677C2.77365 24.17 3.02279 24.5218 3.38988 24.6906L15.1199 30.1206C15.8477 30.4806 16.6479 30.6704 17.4599 30.6756C18.185 30.6717 18.9009 30.5131 19.5599 30.2106L32.7899 24.7056C33.0742 24.593 33.3005 24.3694 33.4165 24.0865C33.5325 23.8035 33.5283 23.4855 33.4049 23.2056C33.1579 22.6408 32.5024 22.3799 31.9349 22.6206Z" fill="white"/>
</svg>
