<svg width="36" height="36" viewBox="0 0 36 36" fill="none" xmlns="http://www.w3.org/2000/svg">
<path d="M21.2554 13.71H28.1854C28.5557 13.7405 28.902 13.5242 29.037 13.1781C29.172 12.8319 29.0636 12.4382 28.7704 12.21L20.4454 4.035C20.2172 3.74184 19.8235 3.63341 19.4774 3.7684C19.1312 3.9034 18.9149 4.24973 18.9454 4.62V11.475C18.9451 12.081 19.1908 12.6611 19.6263 13.0825C20.0618 13.5039 20.6498 13.7303 21.2554 13.71Z" fill="white"/>
<path fill-rule="evenodd" clip-rule="evenodd" d="M21.1054 15.36H28.2754C28.6896 15.36 29.0254 15.6958 29.0254 16.11V26.49C29.0254 29.8037 26.3391 32.49 23.0254 32.49H12.6904C9.37672 32.49 6.69043 29.8037 6.69043 26.49V9.75C6.69043 6.4363 9.37672 3.75 12.6904 3.75H16.6954C17.1063 3.75798 17.4375 4.08914 17.4454 4.5V11.67C17.4414 12.6447 17.8248 13.581 18.5112 14.273C19.1976 14.965 20.1308 15.356 21.1054 15.36ZM13.2754 27.42C13.9542 27.8466 14.7387 28.0752 15.5404 28.08L15.6004 28.005C17.9532 28.005 19.8604 26.0977 19.8604 23.745C19.8604 21.3923 17.9532 19.485 15.6004 19.485C13.2477 19.485 11.3404 21.3923 11.3404 23.745C11.3435 24.4371 11.5188 25.1176 11.8504 25.725C11.782 25.7648 11.7168 25.8099 11.6554 25.86L10.0654 27.51C9.75277 27.835 9.66437 28.3152 9.84082 28.7302C10.0173 29.1452 10.4245 29.4147 10.8754 29.415C11.1829 29.4242 11.479 29.2981 11.6854 29.07L13.2754 27.42Z" fill="white"/>
<path d="M15.5404 21.795C14.7201 21.7889 13.9771 22.2784 13.6589 23.0346C13.3408 23.7908 13.5103 24.6642 14.0882 25.2465C14.6662 25.8288 15.5383 26.0048 16.2969 25.6923C17.0554 25.3797 17.5504 24.6404 17.5504 23.82C17.5505 22.7075 16.6529 21.8032 15.5404 21.795Z" fill="white"/>
</svg>
