<svg width="36" height="36" viewBox="0 0 36 36" fill="none" xmlns="http://www.w3.org/2000/svg">
<path fill-rule="evenodd" clip-rule="evenodd" d="M18.375 15.15C16.5939 15.15 15.15 16.5939 15.15 18.375C15.15 20.1561 16.5939 21.6 18.375 21.6C20.1561 21.6 21.6 20.1561 21.6 18.375C21.6 16.5939 20.1561 15.15 18.375 15.15ZM18.375 19.35C17.8365 19.35 17.4 18.9135 17.4 18.375C17.4 17.8365 17.8365 17.4 18.375 17.4C18.9135 17.4 19.35 17.8365 19.35 18.375C19.35 18.6336 19.2473 18.8816 19.0644 19.0644C18.8816 19.2473 18.6336 19.35 18.375 19.35Z" fill="white"/>
<path fill-rule="evenodd" clip-rule="evenodd" d="M26.25 4.5H10.5C7.18629 4.5 4.5 7.18629 4.5 10.5V26.25C4.5 29.5637 7.18629 32.25 10.5 32.25H26.25C29.5637 32.25 32.25 29.5637 32.25 26.25V10.5C32.25 7.18629 29.5637 4.5 26.25 4.5ZM27.51 19.365C27.5141 19.6726 27.3937 19.9687 27.1762 20.1862C26.9587 20.4037 26.6625 20.5241 26.355 20.52C25.8897 20.5276 25.4731 20.8103 25.2941 21.2398C25.1151 21.6694 25.2077 22.1642 25.53 22.5C25.7471 22.7167 25.8691 23.0108 25.8691 23.3175C25.8691 23.6242 25.7471 23.9183 25.53 24.135L24.135 25.53C23.9183 25.7471 23.6242 25.8691 23.3175 25.8691C23.0108 25.8691 22.7167 25.7471 22.5 25.53C22.1642 25.2078 21.6694 25.1151 21.2398 25.2941C20.8103 25.4731 20.5276 25.8897 20.52 26.355C20.5241 26.6626 20.4037 26.9587 20.1862 27.1762C19.9687 27.3937 19.6725 27.5141 19.365 27.51H17.385C17.0774 27.5141 16.7813 27.3937 16.5638 27.1762C16.3463 26.9587 16.2259 26.6626 16.23 26.355C16.2224 25.8897 15.9397 25.4731 15.5102 25.2941C15.0806 25.1151 14.5858 25.2078 14.25 25.53C14.0333 25.7471 13.7392 25.8691 13.4325 25.8691C13.1258 25.8691 12.8317 25.7471 12.615 25.53L11.22 24.135C11.0029 23.9183 10.8809 23.6242 10.8809 23.3175C10.8809 23.0108 11.0029 22.7167 11.22 22.5C11.5422 22.1642 11.6349 21.6694 11.4559 21.2398C11.2769 20.8103 10.8603 20.5276 10.395 20.52C10.0874 20.5241 9.79129 20.4037 9.57379 20.1862C9.3563 19.9687 9.23592 19.6726 9.24 19.365V17.385C9.23592 17.0774 9.3563 16.7813 9.57379 16.5638C9.79129 16.3463 10.0874 16.2259 10.395 16.23C10.8603 16.2224 11.2769 15.9397 11.4559 15.5102C11.6349 15.0806 11.5422 14.5858 11.22 14.25C11.0029 14.0333 10.8809 13.7392 10.8809 13.4325C10.8809 13.1258 11.0029 12.8317 11.22 12.615L12.615 11.22C12.8317 11.0029 13.1258 10.8809 13.4325 10.8809C13.7392 10.8809 14.0333 11.0029 14.25 11.22C14.5858 11.5422 15.0806 11.6349 15.5102 11.4559C15.9397 11.2769 16.2224 10.8603 16.23 10.395C16.2259 10.0874 16.3463 9.79129 16.5638 9.5738C16.7813 9.3563 17.0774 9.23593 17.385 9.24H19.365C19.6725 9.23593 19.9687 9.3563 20.1862 9.5738C20.4037 9.79129 20.5241 10.0874 20.52 10.395C20.5276 10.8603 20.8103 11.2769 21.2398 11.4559C21.6694 11.6349 22.1642 11.5422 22.5 11.22C22.7167 11.0029 23.0108 10.8809 23.3175 10.8809C23.6242 10.8809 23.9183 11.0029 24.135 11.22L25.53 12.615C25.7471 12.8317 25.8691 13.1258 25.8691 13.4325C25.8691 13.7392 25.7471 14.0333 25.53 14.25C25.2077 14.5858 25.1151 15.0806 25.2941 15.5102C25.4731 15.9397 25.8897 16.2224 26.355 16.23C26.6625 16.2259 26.9587 16.3463 27.1762 16.5638C27.3937 16.7813 27.5141 17.0774 27.51 17.385V19.365Z" fill="white"/>
</svg>
