<svg width="36" height="36" viewBox="0 0 36 36" fill="none" xmlns="http://www.w3.org/2000/svg">
<path fill-rule="evenodd" clip-rule="evenodd" d="M29.64 22.163L26.49 21.113V16.343C26.3831 11.0559 23.6126 6.1806 19.125 3.38296C18.3299 2.87235 17.3101 2.87235 16.515 3.38296C12.0275 6.1806 9.25694 11.0559 9.15003 16.343V21.173L6.00003 22.223C5.09983 22.5267 4.4954 23.3729 4.50003 24.323V30.323C4.50218 31.223 4.93615 32.0674 5.66678 32.5931C6.3974 33.1188 7.33591 33.2619 8.19003 32.978L9.69003 32.468C10.1189 32.8975 10.7031 33.1355 11.31 33.128H13.605C14.6661 33.1882 15.58 32.3877 15.66 31.328V27.293C15.7402 26.1752 16.7011 25.3278 17.82 25.388C18.939 25.3278 19.8998 26.1752 19.98 27.293V31.208C20.0601 32.2677 20.974 33.0682 22.035 33.008H24.315C24.9219 33.0155 25.5062 32.7775 25.935 32.348L27.435 32.858C28.2979 33.1558 29.2517 33.0151 29.9919 32.4809C30.732 31.9467 31.1659 31.0857 31.155 30.173V24.173C31.1196 23.2522 30.5154 22.4506 29.64 22.163ZM18.945 21.008C18.945 21.6293 18.4414 22.133 17.82 22.133C17.1987 22.133 16.695 21.6293 16.695 21.008V18.383C16.695 17.7616 17.1987 17.258 17.82 17.258C18.4414 17.258 18.945 17.7616 18.945 18.383V21.008ZM15.525 13.508C15.525 14.7755 16.5525 15.803 17.82 15.803C19.0841 15.7948 20.1068 14.772 20.115 13.508C20.115 12.2405 19.0875 11.213 17.82 11.213C16.5525 11.213 15.525 12.2405 15.525 13.508Z" fill="white"/>
</svg>
