<svg width="36" height="36" viewBox="0 0 36 36" fill="none" xmlns="http://www.w3.org/2000/svg">
<path d="M21.6599 6.80513L22.6499 9.80513C23.0972 11.1937 24.3861 12.1376 25.8449 12.1451H28.9649C30.4281 12.1358 31.7292 13.0746 32.1816 14.4662C32.634 15.8578 32.1338 17.3821 30.9449 18.2351L28.3799 20.0951C27.1992 20.9523 26.7029 22.4712 27.1499 23.8601L28.1399 26.8601C28.6295 28.2538 28.1515 29.8039 26.9619 30.6797C25.7723 31.5555 24.1503 31.5516 22.9649 30.6701L20.4449 28.7951C19.2636 27.9394 17.6662 27.9394 16.4849 28.7951L13.9649 30.6701C12.7861 31.5329 11.1849 31.5352 10.0037 30.6758C8.82245 29.8164 8.33181 28.2922 8.78989 26.9051L9.77989 23.9051C10.2268 22.5162 9.73063 20.9973 8.54989 20.1401L5.92489 18.2501C4.71184 17.3954 4.20316 15.8461 4.67346 14.4386C5.14377 13.0312 6.48166 12.0989 7.96489 12.1451H11.0849C12.5357 12.1419 13.8221 11.2118 14.2799 9.83513L15.2699 6.83513C15.7137 5.44944 16.999 4.50687 18.454 4.50004C19.909 4.49321 21.2031 5.42367 21.6599 6.80513Z" fill="white"/>
</svg>
