<svg width="44" height="44" viewBox="0 0 44 44" fill="none" xmlns="http://www.w3.org/2000/svg">
<path d="M32.217 29.595C32.217 30.4567 32.3454 34.93 31.7037 35.48C31.062 36.03 25.5804 35.92 24.2237 35.92C20.9054 35.92 17.5687 35.92 14.2504 36.0117H6.77038H4.80871C4.53371 36.0117 4.57038 34.93 4.58871 34.435V32.2533C4.58871 30.8967 4.58871 28.3667 4.58871 26.9917C4.58871 20.4467 4.46038 9.09833 5.08371 8.65833C6.20205 7.74166 11.097 8.21833 14.3604 8.2L25.3604 8.09C27.982 7.99833 31.062 7.83333 31.6487 8.32833C32.0762 8.84024 32.2926 9.49584 32.2537 10.1617V12.5267V17.22" stroke="white" stroke-linecap="round" stroke-linejoin="round"/>
<path d="M5.24902 14.3049C8.51236 14.1949 11.3357 14.3049 14.544 14.1766L24.5174 14.0299L32.199 13.9382" stroke="white" stroke-linecap="round" stroke-linejoin="round"/>
<path d="M10.2354 14.1582C10.2354 14.9832 10.2354 15.8265 10.2354 16.6515" stroke="white" stroke-linecap="round" stroke-linejoin="round"/>
<path d="M5.32227 19.3283C6.26114 19.2366 7.20672 19.2366 8.1456 19.3283" stroke="white" stroke-linecap="round" stroke-linejoin="round"/>
<path d="M10.0527 21.1616C10.0527 21.1616 10.0527 23.71 10.0527 24.26V27.7616C10.0527 30.2 10.0527 32.6566 10.0527 35.095" stroke="white" stroke-linecap="round" stroke-linejoin="round"/>
<path d="M12.582 18.8699L16.377 18.7782H20.667L29.1554 18.6682" stroke="white" stroke-linecap="round" stroke-linejoin="round"/>
<path d="M21.3828 14.5249C21.3828 15.3682 21.3828 18.5582 21.3828 19.4566V22.3166C21.3828 23.1232 21.3828 25.0299 21.3828 25.0299" stroke="white" stroke-linecap="round" stroke-linejoin="round"/>
<path d="M17.6787 24.1316C17.6318 23.9003 17.5211 23.6866 17.3591 23.5149C17.1971 23.3432 16.9903 23.2202 16.7621 23.16C16.5588 23.1078 16.346 23.1056 16.1416 23.1535C15.9373 23.2014 15.7477 23.2979 15.5887 23.4349C15.3095 23.7671 15.146 24.181 15.1228 24.6143C15.0996 25.0476 15.2181 25.4766 15.4604 25.8366C15.8821 26.5883 16.5787 27.1566 17.0737 27.8716C17.3538 28.2099 17.529 28.6225 17.5779 29.0589C17.6267 29.4953 17.5471 29.9365 17.3487 30.3283C17.1519 30.6249 16.8503 30.8362 16.5044 30.9199C16.1584 31.0036 15.7936 30.9535 15.4829 30.7797C15.1723 30.6058 14.9389 30.3211 14.8293 29.9824C14.7197 29.6437 14.7421 29.2761 14.8921 28.9533" stroke="white" stroke-linecap="round" stroke-linejoin="round"/>
<path d="M16.3955 31.3733C16.3955 31.3733 16.3955 32.015 16.3955 32.6016" stroke="white" stroke-linecap="round" stroke-linejoin="round"/>
<path d="M16.249 21.4365C16.249 21.7115 16.249 21.9682 16.249 22.2432" stroke="white" stroke-linecap="round" stroke-linejoin="round"/>
<path d="M37.1489 16.89C37.4606 16.89 37.9189 17.3483 38.1389 17.5683C38.3589 17.7883 38.5606 18.1 38.8356 18.375C39.1214 18.5969 39.3273 18.9058 39.4222 19.255C39.4222 19.7133 39.1472 19.8967 38.8539 20.1717L38.2122 20.7767L36.9106 22.005L34.3072 24.4433L34.2156 24.5533C32.4739 26.185 31.5939 27.065 29.8706 28.6967C29.5589 28.99 28.4956 30.035 28.2206 30.3283C27.1596 30.8144 26.0263 31.124 24.8656 31.245C24.7983 29.9966 24.9919 28.7478 25.4339 27.5783C25.8372 27.1383 28.9172 24.3333 30.6772 22.72L35.9022 17.8617C36.1039 17.5867 36.7089 16.8533 37.1489 16.89Z" stroke="white" stroke-miterlimit="10"/>
</svg>
