<svg width="44" height="44" viewBox="0 0 44 44" fill="none" xmlns="http://www.w3.org/2000/svg">
<path d="M33.9598 14.2158C33.7765 20.4858 33.6054 26.7435 33.4465 32.9891C33.4465 34.3091 33.4465 35.6474 33.3181 36.9491C33.3181 37.7008 33.0981 38.9474 32.1815 39.1124C29.2102 39.4273 26.2192 39.5131 23.2348 39.3691L13.7381 39.3508H10.3098C9.40084 39.4706 8.47636 39.344 7.63313 38.9841C7.15646 38.7641 7.43146 35.8858 7.43146 35.1158V30.3674V20.8891V14.1424V10.7324C7.43146 9.96243 7.15646 8.60577 7.70646 7.9641C8.37152 7.68375 9.10008 7.58872 9.81479 7.6891C10.6765 7.6891 11.5015 7.6891 12.3631 7.6891C16.5248 7.6891 20.7048 7.6891 24.8848 7.5791" stroke="white" stroke-linecap="round" stroke-linejoin="round"/>
<path d="M36.4167 4.77412C36.0043 4.58466 35.5452 4.52089 35.0967 4.59079H33.2634C31.9251 4.59079 30.5867 4.59079 29.2484 4.77412C28.9184 4.77412 28.5884 4.77412 28.6067 5.17745C28.6067 6.18579 28.6067 7.19412 28.6067 8.20245V9.72412C28.6067 10.0175 28.4967 10.4391 28.8084 10.6041C29.1275 10.7347 29.4737 10.7851 29.8167 10.7508C31.6501 10.7508 33.4834 10.6408 35.4267 10.6408C35.7017 10.6408 36.0867 10.6408 36.3067 10.5491C36.8384 10.1641 36.6001 9.30245 36.5634 8.71579L36.4534 6.57079C36.5014 5.95753 36.4644 5.34057 36.3434 4.73745L36.4167 4.77412Z" stroke="white" stroke-linecap="round" stroke-linejoin="round"/>
<path d="M12.1797 13.9223L22.4097 13.7756" stroke="white" stroke-linecap="round" stroke-linejoin="round"/>
<path d="M12.1064 19.4592L22.0981 19.2942" stroke="white" stroke-linecap="round" stroke-linejoin="round"/>
<path d="M21.8965 23.9507L29.0098 24.0974" stroke="white" stroke-linecap="round" stroke-linejoin="round"/>
<path d="M21.6396 30.4223C23.968 30.239 26.3696 30.4223 28.698 30.4223" stroke="white" stroke-linecap="round" stroke-linejoin="round"/>
<path d="M17.6801 24.849C18.1965 24.849 18.6151 24.4304 18.6151 23.914C18.6151 23.3976 18.1965 22.979 17.6801 22.979C17.1637 22.979 16.7451 23.3976 16.7451 23.914C16.7451 24.4304 17.1637 24.849 17.6801 24.849Z" fill="white"/>
<path d="M17.7534 31.0824C18.2697 31.0824 18.6884 30.6638 18.6884 30.1474C18.6884 29.631 18.2697 29.2124 17.7534 29.2124C17.237 29.2124 16.8184 29.631 16.8184 30.1474C16.8184 30.6638 17.237 31.0824 17.7534 31.0824Z" fill="white"/>
</svg>
