<svg width="34" height="34" viewBox="0 0 34 34" fill="none" xmlns="http://www.w3.org/2000/svg">
<path fill-rule="evenodd" clip-rule="evenodd" d="M17 2.125C17.5868 2.125 18.0625 2.6007 18.0625 3.1875V6.375C18.0625 6.9618 17.5868 7.4375 17 7.4375C16.4132 7.4375 15.9375 6.9618 15.9375 6.375V3.1875C15.9375 2.6007 16.4132 2.125 17 2.125ZM7.98439 5.85939C8.39932 5.44446 9.07206 5.44446 9.48699 5.85939L11.7409 8.11329C12.1558 8.52822 12.1558 9.20096 11.7409 9.61589C11.326 10.0308 10.6532 10.0308 10.2383 9.61589L7.98439 7.36199C7.56946 6.94706 7.56946 6.27432 7.98439 5.85939ZM26.0156 5.85939C26.4305 6.27432 26.4305 6.94706 26.0156 7.36199L23.7617 9.61589C23.3468 10.0308 22.674 10.0308 22.2591 9.61589C21.8442 9.20096 21.8442 8.52822 22.2591 8.11329L24.513 5.85939C24.9279 5.44446 25.6007 5.44446 26.0156 5.85939ZM16.3602 12.2284C16.802 12.11 17.2699 12.2876 17.5219 12.6692L24.927 23.8848C25.1638 24.2434 25.1612 24.7094 24.9205 25.0654C24.6798 25.4214 24.2484 25.5973 23.8273 25.5112L20.8562 24.9032L22.3362 30.4267C22.4881 30.9935 22.1517 31.5761 21.5849 31.728C21.0181 31.8799 20.4355 31.5435 20.2836 30.9767L18.8036 25.4533L16.5349 27.4651C16.2134 27.7503 15.7518 27.8136 15.3653 27.6257C14.9788 27.4378 14.7436 27.0355 14.7694 26.6065L15.5746 13.191C15.602 12.7345 15.9185 12.3467 16.3602 12.2284ZM4.25 14.875C4.25 14.2882 4.7257 13.8125 5.3125 13.8125H8.5C9.0868 13.8125 9.5625 14.2882 9.5625 14.875C9.5625 15.4618 9.0868 15.9375 8.5 15.9375H5.3125C4.7257 15.9375 4.25 15.4618 4.25 14.875ZM24.4375 14.875C24.4375 14.2882 24.9132 13.8125 25.5 13.8125H28.6875C29.2743 13.8125 29.75 14.2882 29.75 14.875C29.75 15.4618 29.2743 15.9375 28.6875 15.9375H25.5C24.9132 15.9375 24.4375 15.4618 24.4375 14.875ZM11.7409 20.1341C12.1558 20.549 12.1558 21.2218 11.7409 21.6367L9.48699 23.8906C9.07206 24.3055 8.39932 24.3055 7.98439 23.8906C7.56946 23.4757 7.56946 22.8029 7.98439 22.388L10.2383 20.1341C10.6532 19.7192 11.326 19.7192 11.7409 20.1341Z" fill="white"/>
</svg>
