<svg width="20" height="21" viewBox="0 0 20 21" fill="none" xmlns="http://www.w3.org/2000/svg">
<path d="M9.59999 9.42002C9.49686 9.4109 9.39313 9.4109 9.28999 9.42002C8.6529 9.44867 8.11306 9.89854 7.96999 10.52C7.71523 11.2296 8.08169 12.0117 8.78999 12.27C8.89283 12.2844 8.99716 12.2844 9.09999 12.27C9.32661 12.2659 9.54783 12.2002 9.73999 12.08C10.0765 11.8768 10.3204 11.5503 10.42 11.17C10.5343 10.7913 10.4985 10.3831 10.32 10.03C10.1743 9.73615 9.9138 9.51544 9.59999 9.42002Z" fill="#F9F9F9"/>
<path fill-rule="evenodd" clip-rule="evenodd" d="M13.93 1.43002C13.7949 1.80203 13.7239 2.19426 13.72 2.59002C13.7134 3.79155 14.3001 4.91895 15.288 5.60288C16.2759 6.28681 17.5377 6.43916 18.66 6.01002V16.09C18.66 18.2992 16.8691 20.09 14.66 20.09H4C1.79086 20.09 0 18.2992 0 16.09V5.43002C0 3.22088 1.79086 1.43002 4 1.43002H13.93ZM12.7 13.82C13.585 13.548 14.2372 12.7948 14.38 11.88C14.6003 10.6711 14.4395 9.42361 13.92 8.31002C13.3075 7.00706 12.1867 6.01284 10.82 5.56002C9.27124 5.0534 7.57319 5.32524 6.25999 6.29002C4.80488 7.3654 3.95038 9.07068 3.95999 10.88C3.89249 13.8582 6.23285 16.3367 9.20999 16.44C9.40798 16.4427 9.59878 16.3659 9.73973 16.2268C9.88068 16.0878 9.96001 15.898 9.95999 15.7C9.96266 15.5011 9.88619 15.3093 9.74741 15.1667C9.60863 15.0242 9.41891 14.9427 9.21999 14.94C7.06481 14.848 5.38667 13.0359 5.45999 10.88C5.45208 9.55063 6.0755 8.29637 7.13999 7.50002C8.06585 6.81488 9.26773 6.62452 10.36 6.99002C11.3413 7.32272 12.1413 8.04665 12.57 8.99002C12.9596 9.81172 13.0887 10.7329 12.94 11.63C12.8939 11.9814 12.6481 12.274 12.31 12.38C12.0717 12.4574 11.8114 12.4244 11.6 12.29C11.7262 12.0688 11.8268 11.834 11.9 11.59C12.385 10.0824 11.5571 8.46679 10.05 7.98002C9.816 7.91247 9.57354 7.8788 9.32999 7.88002C8.02737 7.92056 6.89993 8.79746 6.53999 10.05C6.06174 11.5601 6.89274 13.1729 8.39999 13.66C8.63505 13.7224 8.87683 13.756 9.11999 13.76C9.61781 13.7587 10.1057 13.6203 10.53 13.36C11.1293 13.8699 11.9454 14.0429 12.7 13.82Z" fill="#F9F9F9"/>
<path d="M17.38 1.92926e-05C16.3266 -0.00402456 15.3748 0.627958 14.9699 1.60041C14.5649 2.57287 14.7867 3.6936 15.5315 4.43848C16.2764 5.18336 17.3972 5.40517 18.3696 5.00017C19.3421 4.59518 19.974 3.64343 19.97 2.59002C19.97 1.90311 19.6971 1.24433 19.2114 0.758613C18.7257 0.272894 18.0669 1.92926e-05 17.38 1.92926e-05Z" fill="#F9F9F9"/>
</svg>
