<svg width="28" height="28" viewBox="0 0 28 28" fill="none" xmlns="http://www.w3.org/2000/svg">
<path fill-rule="evenodd" clip-rule="evenodd" d="M4.66699 8.74935C4.66699 6.49419 6.49516 4.66602 8.75033 4.66602C11.0055 4.66602 12.8337 6.49419 12.8337 8.74935C12.8337 11.0045 11.0055 12.8327 8.75033 12.8327C6.49516 12.8327 4.66699 11.0045 4.66699 8.74935ZM11.0837 8.74935C11.0837 7.46068 10.039 6.41602 8.75033 6.41602C7.46166 6.41602 6.41699 7.46068 6.41699 8.74935C6.41699 10.038 7.46166 11.0827 8.75033 11.0827C10.039 11.0827 11.0837 10.038 11.0837 8.74935Z" fill="white"/>
<path fill-rule="evenodd" clip-rule="evenodd" d="M16.3337 8.74935C16.3337 6.49419 18.1618 4.66602 20.417 4.66602C22.6722 4.66602 24.5003 6.49419 24.5003 8.74935C24.5003 11.0045 22.6722 12.8327 20.417 12.8327C18.1618 12.8327 16.3337 11.0045 16.3337 8.74935ZM22.7503 8.74935C22.7503 7.46068 21.7057 6.41602 20.417 6.41602C19.1283 6.41602 18.0837 7.46068 18.0837 8.74935C18.0837 10.038 19.1283 11.0827 20.417 11.0827C21.7057 11.0827 22.7503 10.038 22.7503 8.74935Z" fill="white"/>
<path fill-rule="evenodd" clip-rule="evenodd" d="M4.66699 20.416C4.66699 18.1609 6.49516 16.3327 8.75033 16.3327C11.0055 16.3327 12.8337 18.1609 12.8337 20.416C12.8337 22.6712 11.0055 24.4994 8.75033 24.4994C6.49516 24.4994 4.66699 22.6712 4.66699 20.416ZM11.0837 20.416C11.0837 19.1274 10.039 18.0827 8.75033 18.0827C7.46166 18.0827 6.41699 19.1274 6.41699 20.416C6.41699 21.7047 7.46166 22.7494 8.75033 22.7494C10.039 22.7494 11.0837 21.7047 11.0837 20.416Z" fill="white"/>
<path fill-rule="evenodd" clip-rule="evenodd" d="M16.3337 20.416C16.3337 18.1609 18.1618 16.3327 20.417 16.3327C22.6722 16.3327 24.5003 18.1609 24.5003 20.416C24.5003 22.6712 22.6722 24.4994 20.417 24.4994C18.1618 24.4994 16.3337 22.6712 16.3337 20.416ZM22.7503 20.416C22.7503 19.1274 21.7057 18.0827 20.417 18.0827C19.1283 18.0827 18.0837 19.1274 18.0837 20.416C18.0837 21.7047 19.1283 22.7494 20.417 22.7494C21.7057 22.7494 22.7503 21.7047 22.7503 20.416Z" fill="white"/>
</svg>
