<svg width="138" height="78" viewBox="0 0 138 78" fill="none" xmlns="http://www.w3.org/2000/svg">
<g filter="url(#filter0_ddd_43672_8668)">
<path d="M117.993 21.2935C117.481 21.5721 117.434 22.733 117.9 23.1278C118.389 23.4993 119.204 23.3367 119.577 22.7795C120.229 21.8043 119.018 20.6666 117.993 21.2935Z" fill="#F9F9F9"/>
</g>
<g filter="url(#filter1_ddd_43672_8668)">
<path d="M37.5291 31.3469C37.0401 31.5326 36.4114 31.8577 36.1552 32.1131C35.5032 32.6703 34.8047 34.226 34.8047 35.0851C34.8047 36.1299 35.5964 37.6159 36.4579 38.2428C37.2031 38.7768 37.5058 38.8 41.2547 38.9161C45.7487 39.0554 46.261 39.218 46.8897 40.8433C47.2855 41.8881 47.076 42.724 46.2144 43.5831L45.5624 44.2564H40.5794C35.3402 44.2564 34.5486 44.3957 34.8745 45.278C35.0143 45.6031 35.5964 45.6495 40.1603 45.6495C44.8173 45.6495 45.3761 45.6031 46.2144 45.1852C47.6348 44.4654 48.1937 43.4902 48.1937 41.7024C48.1937 39.9145 47.6348 38.9394 46.2144 38.2196C45.4227 37.8249 44.8173 37.7552 41.7902 37.7552C38.0413 37.7552 37.2962 37.5927 36.5744 36.5478C35.9457 35.6655 36.0854 34.1563 36.8771 33.2972L37.5523 32.531L42.8846 32.4149C47.8444 32.2988 48.1937 32.2756 48.2635 31.8577C48.3101 31.6255 48.2169 31.3469 48.0307 31.2308C47.4951 30.8825 38.5303 30.9986 37.5291 31.3469Z" fill="#F9F9F9"/>
</g>
<g filter="url(#filter2_ddd_43672_8668)">
<path d="M50.4503 31.3008C50.1243 31.6258 50.0545 44.8604 50.3572 45.3713C50.5202 45.5802 52.0104 45.6499 57.0633 45.6034C63.2106 45.5338 63.5599 45.5106 63.6297 45.0926C63.6763 44.8604 63.5832 44.5818 63.3969 44.4657C63.2339 44.3496 60.5095 44.2568 57.3427 44.2568H51.568V41.5866V38.9165H57.6454H63.6996L63.6297 38.3824L63.5599 37.8716L57.5756 37.802L51.568 37.7555V35.0854V32.4153L57.5523 32.3688C63.2106 32.2992 63.5599 32.2759 63.6297 31.858C63.6763 31.6258 63.5832 31.3472 63.3969 31.2311C62.8846 30.906 50.7763 30.9757 50.4503 31.3008Z" fill="#F9F9F9"/>
</g>
<g filter="url(#filter3_ddd_43672_8668)">
<path d="M83.0667 31.1848C82.7872 31.2312 82.2284 31.6491 81.8326 32.0903L81.134 32.9029V38.2432C81.134 45.9286 80.8779 45.65 87.8867 45.65C94.8955 45.65 94.6394 45.9286 94.6394 38.2664C94.6394 33.1583 94.6161 32.9262 94.1271 32.2993C93.2423 31.1615 92.4972 31.0222 87.8401 31.0455C85.4883 31.0687 83.3461 31.1383 83.0667 31.1848ZM92.9163 32.7404C93.3354 33.0655 93.3587 33.3905 93.3587 38.2897C93.3587 42.3529 93.2889 43.5835 93.0327 43.8621C92.7533 44.2104 92.1013 44.2568 87.8867 44.2568C83.6721 44.2568 83.0201 44.2104 82.7407 43.8621C82.4845 43.5835 82.4147 42.3529 82.4147 38.2897C82.4147 33.3905 82.438 33.0655 82.8571 32.7404C83.2297 32.485 84.3008 32.4153 87.8867 32.4153C91.4726 32.4153 92.5437 32.485 92.9163 32.7404Z" fill="#F9F9F9"/>
</g>
<g filter="url(#filter4_ddd_43672_8668)">
<path d="M96.7857 31.2079C96.5761 31.3705 96.5063 32.9725 96.5529 38.4754C96.6227 45.3481 96.6227 45.5338 97.0884 45.5338C97.5308 45.5338 97.5541 45.3713 97.6007 42.7476C97.6473 41.2152 97.7171 39.7292 97.787 39.4273L97.9267 38.8701L102.048 38.9629C105.657 39.0326 106.263 39.079 106.961 39.497C108.358 40.3096 108.684 40.983 108.824 43.3745C108.941 45.3248 109.01 45.5338 109.43 45.5338C109.849 45.5338 109.895 45.3481 109.965 43.3977C110.035 41.0991 109.709 40.0078 108.638 39.0558L108.149 38.5914L108.824 37.8949C110.99 35.6427 110.035 32.0902 107.031 31.2544C106.03 30.9757 97.2281 30.9525 96.7857 31.2079ZM107.823 33.1815C108.521 33.8084 108.684 34.1103 108.708 34.9229C108.731 35.9677 108.126 36.9661 107.194 37.4537C106.798 37.6627 105.378 37.7324 102.211 37.6859L97.787 37.6395L97.7171 35.0158L97.6473 32.4153H102.328H106.985L107.823 33.1815Z" fill="#F9F9F9"/>
</g>
<g filter="url(#filter5_ddd_43672_8668)">
<path d="M112.13 31.3473C111.944 31.5563 111.874 33.6692 111.92 38.5915L111.99 45.5339L117.183 45.6035C121.956 45.65 122.422 45.6267 123.26 45.1856C125.519 44.0479 126.101 40.9598 124.448 39.0559L123.749 38.2897L124.238 37.8485C125.379 36.8269 125.752 34.714 125.03 33.3673C124.564 32.4618 123.423 31.5563 122.399 31.2544C121.933 31.1383 119.488 31.0222 116.973 31.0222C113.387 31.0222 112.339 31.0919 112.13 31.3473ZM122.794 32.7636C123.656 33.2048 124.308 34.5515 124.122 35.5266C124.029 35.9446 123.656 36.5947 123.26 36.9662L122.562 37.6395L117.905 37.7092L113.271 37.7789V35.1087V32.4154H117.695C121.141 32.4154 122.282 32.485 122.794 32.7636ZM122.981 39.5203C123.772 40.1239 124.331 41.4706 124.122 42.3065C124.029 42.6548 123.656 43.212 123.283 43.5835L122.631 44.2568H117.951H113.271V41.5635V38.8701L117.788 38.963C121.956 39.0327 122.375 39.0791 122.981 39.5203Z" fill="#F9F9F9"/>
</g>
<g filter="url(#filter6_ddd_43672_8668)">
<g filter="url(#filter7_dddddddd_43672_8668)">
<path d="M66.0761 31.1847C65.9131 31.2544 65.7734 31.4866 65.7734 31.7187C65.7734 32.1599 71.7112 45.1391 72.0837 45.5338C72.2234 45.6731 72.433 45.6731 72.6658 45.5338C72.8521 45.3945 74.4355 42.2368 76.1586 38.4754C79.046 32.2528 79.2788 31.6259 78.9528 31.3008C78.6268 30.9757 78.5337 30.9757 78.2543 31.2544C78.068 31.4401 76.7407 34.1567 75.3204 37.2912C73.8767 40.4257 72.6426 43.0494 72.5494 43.1655C72.4563 43.2584 71.129 40.6811 69.6388 37.4073C68.1252 34.1567 66.7747 31.3937 66.6117 31.3008C66.472 31.1847 66.2159 31.1383 66.0761 31.1847Z" fill="#F9F9F9"/>
</g>
</g>
<g filter="url(#filter8_ddd_43672_8668)">
<path d="M57.7457 47.9482C55.6569 52.2361 52.1854 55.6959 47.8905 57.7702C43.5956 59.8444 38.7276 60.4122 34.0707 59.3822C29.4139 58.3521 25.2394 55.7842 22.22 52.0921C19.2007 48.4001 17.5122 43.799 17.4268 39.0301C17.3413 34.2613 18.8638 29.6026 21.7489 25.8046C24.6341 22.0066 28.7138 19.2905 33.3308 18.0941C37.9477 16.8976 42.833 17.2904 47.1994 19.2092C51.5659 21.128 55.1591 24.461 57.4002 28.6712L56.463 29.1701C54.334 25.1704 50.9204 22.0041 46.7723 20.1812C42.6242 18.3583 37.9832 17.9852 33.5971 19.1218C29.211 20.2585 25.3352 22.8387 22.5943 26.4468C19.8534 30.0549 18.4071 34.4807 18.4883 39.0111C18.5694 43.5415 20.1735 47.9125 23.0419 51.42C25.9103 54.9274 29.876 57.367 34.3 58.3455C38.724 59.3241 43.3487 58.7846 47.4288 56.8141C51.5089 54.8436 54.8069 51.5568 56.7912 47.4833L57.7457 47.9482Z" fill="#F9F9F9"/>
</g>
<g filter="url(#filter9_ddd_43672_8668)">
<path d="M65.2872 48.3416C63.0313 54.552 58.6744 59.7778 52.9712 63.1138C47.268 66.4498 40.5776 67.686 34.059 66.6082C27.5404 65.5303 21.604 62.2064 17.2782 57.2121C12.9523 52.2178 10.5094 45.8678 10.3726 39.2617C10.2358 32.6557 12.4136 26.2098 16.529 21.0406C20.6444 15.8713 26.438 12.3043 32.9064 10.9573C39.3748 9.61025 46.1106 10.5681 51.947 13.665C57.7835 16.7618 62.353 21.8026 64.8641 27.9141L63.8883 28.3152C61.4707 22.4313 57.0715 17.5784 51.4525 14.597C45.8336 11.6156 39.3488 10.6934 33.1215 11.9902C26.8941 13.287 21.3164 16.7211 17.3544 21.6977C13.3924 26.6744 11.2957 32.88 11.4274 39.2399C11.5591 45.5997 13.911 51.7132 18.0756 56.5213C22.2403 61.3295 27.9554 64.5295 34.2311 65.5672C40.5068 66.6049 46.9478 65.4148 52.4385 62.2031C57.9292 58.9913 62.1237 53.9603 64.2956 47.9813L65.2872 48.3416Z" fill="#F9F9F9"/>
</g>
<defs>
<filter id="filter0_ddd_43672_8668" x="107.215" y="10.7509" width="22.9051" height="22.9396" filterUnits="userSpaceOnUse" color-interpolation-filters="sRGB">
<feFlood flood-opacity="0" result="BackgroundImageFix"/>
<feColorMatrix in="SourceAlpha" type="matrix" values="0 0 0 0 0 0 0 0 0 0 0 0 0 0 0 0 0 0 127 0" result="hardAlpha"/>
<feOffset/>
<feGaussianBlur stdDeviation="5.18135"/>
<feComposite in2="hardAlpha" operator="out"/>
<feColorMatrix type="matrix" values="0 0 0 0 0.745098 0 0 0 0 0.203922 0 0 0 0 0.333333 0 0 0 0.33 0"/>
<feBlend mode="normal" in2="BackgroundImageFix" result="effect1_dropShadow_43672_8668"/>
<feColorMatrix in="SourceAlpha" type="matrix" values="0 0 0 0 0 0 0 0 0 0 0 0 0 0 0 0 0 0 127 0" result="hardAlpha"/>
<feOffset/>
<feGaussianBlur stdDeviation="5.18135"/>
<feComposite in2="hardAlpha" operator="out"/>
<feColorMatrix type="matrix" values="0 0 0 0 0.745098 0 0 0 0 0.203922 0 0 0 0 0.333333 0 0 0 0.33 0"/>
<feBlend mode="normal" in2="effect1_dropShadow_43672_8668" result="effect2_dropShadow_43672_8668"/>
<feColorMatrix in="SourceAlpha" type="matrix" values="0 0 0 0 0 0 0 0 0 0 0 0 0 0 0 0 0 0 127 0" result="hardAlpha"/>
<feOffset/>
<feGaussianBlur stdDeviation="5.18135"/>
<feComposite in2="hardAlpha" operator="out"/>
<feColorMatrix type="matrix" values="0 0 0 0 0.745098 0 0 0 0 0.203922 0 0 0 0 0.333333 0 0 0 0.33 0"/>
<feBlend mode="normal" in2="effect2_dropShadow_43672_8668" result="effect3_dropShadow_43672_8668"/>
<feBlend mode="normal" in="SourceGraphic" in2="effect3_dropShadow_43672_8668" result="shape"/>
</filter>
<filter id="filter1_ddd_43672_8668" x="24.442" y="20.6578" width="34.1941" height="35.3544" filterUnits="userSpaceOnUse" color-interpolation-filters="sRGB">
<feFlood flood-opacity="0" result="BackgroundImageFix"/>
<feColorMatrix in="SourceAlpha" type="matrix" values="0 0 0 0 0 0 0 0 0 0 0 0 0 0 0 0 0 0 127 0" result="hardAlpha"/>
<feOffset/>
<feGaussianBlur stdDeviation="5.18135"/>
<feComposite in2="hardAlpha" operator="out"/>
<feColorMatrix type="matrix" values="0 0 0 0 0.745098 0 0 0 0 0.203922 0 0 0 0 0.333333 0 0 0 0.33 0"/>
<feBlend mode="normal" in2="BackgroundImageFix" result="effect1_dropShadow_43672_8668"/>
<feColorMatrix in="SourceAlpha" type="matrix" values="0 0 0 0 0 0 0 0 0 0 0 0 0 0 0 0 0 0 127 0" result="hardAlpha"/>
<feOffset/>
<feGaussianBlur stdDeviation="5.18135"/>
<feComposite in2="hardAlpha" operator="out"/>
<feColorMatrix type="matrix" values="0 0 0 0 0.745098 0 0 0 0 0.203922 0 0 0 0 0.333333 0 0 0 0.33 0"/>
<feBlend mode="normal" in2="effect1_dropShadow_43672_8668" result="effect2_dropShadow_43672_8668"/>
<feColorMatrix in="SourceAlpha" type="matrix" values="0 0 0 0 0 0 0 0 0 0 0 0 0 0 0 0 0 0 127 0" result="hardAlpha"/>
<feOffset/>
<feGaussianBlur stdDeviation="5.18135"/>
<feComposite in2="hardAlpha" operator="out"/>
<feColorMatrix type="matrix" values="0 0 0 0 0.745098 0 0 0 0 0.203922 0 0 0 0 0.333333 0 0 0 0.33 0"/>
<feBlend mode="normal" in2="effect2_dropShadow_43672_8668" result="effect3_dropShadow_43672_8668"/>
<feBlend mode="normal" in="SourceGraphic" in2="effect3_dropShadow_43672_8668" result="shape"/>
</filter>
<filter id="filter2_ddd_43672_8668" x="39.8014" y="20.6567" width="34.2645" height="35.3232" filterUnits="userSpaceOnUse" color-interpolation-filters="sRGB">
<feFlood flood-opacity="0" result="BackgroundImageFix"/>
<feColorMatrix in="SourceAlpha" type="matrix" values="0 0 0 0 0 0 0 0 0 0 0 0 0 0 0 0 0 0 127 0" result="hardAlpha"/>
<feOffset/>
<feGaussianBlur stdDeviation="5.18135"/>
<feComposite in2="hardAlpha" operator="out"/>
<feColorMatrix type="matrix" values="0 0 0 0 0.745098 0 0 0 0 0.203922 0 0 0 0 0.333333 0 0 0 0.33 0"/>
<feBlend mode="normal" in2="BackgroundImageFix" result="effect1_dropShadow_43672_8668"/>
<feColorMatrix in="SourceAlpha" type="matrix" values="0 0 0 0 0 0 0 0 0 0 0 0 0 0 0 0 0 0 127 0" result="hardAlpha"/>
<feOffset/>
<feGaussianBlur stdDeviation="5.18135"/>
<feComposite in2="hardAlpha" operator="out"/>
<feColorMatrix type="matrix" values="0 0 0 0 0.745098 0 0 0 0 0.203922 0 0 0 0 0.333333 0 0 0 0.33 0"/>
<feBlend mode="normal" in2="effect1_dropShadow_43672_8668" result="effect2_dropShadow_43672_8668"/>
<feColorMatrix in="SourceAlpha" type="matrix" values="0 0 0 0 0 0 0 0 0 0 0 0 0 0 0 0 0 0 127 0" result="hardAlpha"/>
<feOffset/>
<feGaussianBlur stdDeviation="5.18135"/>
<feComposite in2="hardAlpha" operator="out"/>
<feColorMatrix type="matrix" values="0 0 0 0 0.745098 0 0 0 0 0.203922 0 0 0 0 0.333333 0 0 0 0.33 0"/>
<feBlend mode="normal" in2="effect2_dropShadow_43672_8668" result="effect3_dropShadow_43672_8668"/>
<feBlend mode="normal" in="SourceGraphic" in2="effect3_dropShadow_43672_8668" result="shape"/>
</filter>
<filter id="filter3_ddd_43672_8668" x="70.7701" y="20.6805" width="34.2332" height="35.3334" filterUnits="userSpaceOnUse" color-interpolation-filters="sRGB">
<feFlood flood-opacity="0" result="BackgroundImageFix"/>
<feColorMatrix in="SourceAlpha" type="matrix" values="0 0 0 0 0 0 0 0 0 0 0 0 0 0 0 0 0 0 127 0" result="hardAlpha"/>
<feOffset/>
<feGaussianBlur stdDeviation="5.18135"/>
<feComposite in2="hardAlpha" operator="out"/>
<feColorMatrix type="matrix" values="0 0 0 0 0.745098 0 0 0 0 0.203922 0 0 0 0 0.333333 0 0 0 0.33 0"/>
<feBlend mode="normal" in2="BackgroundImageFix" result="effect1_dropShadow_43672_8668"/>
<feColorMatrix in="SourceAlpha" type="matrix" values="0 0 0 0 0 0 0 0 0 0 0 0 0 0 0 0 0 0 127 0" result="hardAlpha"/>
<feOffset/>
<feGaussianBlur stdDeviation="5.18135"/>
<feComposite in2="hardAlpha" operator="out"/>
<feColorMatrix type="matrix" values="0 0 0 0 0.745098 0 0 0 0 0.203922 0 0 0 0 0.333333 0 0 0 0.33 0"/>
<feBlend mode="normal" in2="effect1_dropShadow_43672_8668" result="effect2_dropShadow_43672_8668"/>
<feColorMatrix in="SourceAlpha" type="matrix" values="0 0 0 0 0 0 0 0 0 0 0 0 0 0 0 0 0 0 127 0" result="hardAlpha"/>
<feOffset/>
<feGaussianBlur stdDeviation="5.18135"/>
<feComposite in2="hardAlpha" operator="out"/>
<feColorMatrix type="matrix" values="0 0 0 0 0.745098 0 0 0 0 0.203922 0 0 0 0 0.333333 0 0 0 0.33 0"/>
<feBlend mode="normal" in2="effect2_dropShadow_43672_8668" result="effect3_dropShadow_43672_8668"/>
<feBlend mode="normal" in="SourceGraphic" in2="effect3_dropShadow_43672_8668" result="shape"/>
</filter>
<filter id="filter4_ddd_43672_8668" x="86.1764" y="20.6673" width="34.1863" height="35.2292" filterUnits="userSpaceOnUse" color-interpolation-filters="sRGB">
<feFlood flood-opacity="0" result="BackgroundImageFix"/>
<feColorMatrix in="SourceAlpha" type="matrix" values="0 0 0 0 0 0 0 0 0 0 0 0 0 0 0 0 0 0 127 0" result="hardAlpha"/>
<feOffset/>
<feGaussianBlur stdDeviation="5.18135"/>
<feComposite in2="hardAlpha" operator="out"/>
<feColorMatrix type="matrix" values="0 0 0 0 0.745098 0 0 0 0 0.203922 0 0 0 0 0.333333 0 0 0 0.33 0"/>
<feBlend mode="normal" in2="BackgroundImageFix" result="effect1_dropShadow_43672_8668"/>
<feColorMatrix in="SourceAlpha" type="matrix" values="0 0 0 0 0 0 0 0 0 0 0 0 0 0 0 0 0 0 127 0" result="hardAlpha"/>
<feOffset/>
<feGaussianBlur stdDeviation="5.18135"/>
<feComposite in2="hardAlpha" operator="out"/>
<feColorMatrix type="matrix" values="0 0 0 0 0.745098 0 0 0 0 0.203922 0 0 0 0 0.333333 0 0 0 0.33 0"/>
<feBlend mode="normal" in2="effect1_dropShadow_43672_8668" result="effect2_dropShadow_43672_8668"/>
<feColorMatrix in="SourceAlpha" type="matrix" values="0 0 0 0 0 0 0 0 0 0 0 0 0 0 0 0 0 0 127 0" result="hardAlpha"/>
<feOffset/>
<feGaussianBlur stdDeviation="5.18135"/>
<feComposite in2="hardAlpha" operator="out"/>
<feColorMatrix type="matrix" values="0 0 0 0 0.745098 0 0 0 0 0.203922 0 0 0 0 0.333333 0 0 0 0.33 0"/>
<feBlend mode="normal" in2="effect2_dropShadow_43672_8668" result="effect3_dropShadow_43672_8668"/>
<feBlend mode="normal" in="SourceGraphic" in2="effect3_dropShadow_43672_8668" result="shape"/>
</filter>
<filter id="filter5_ddd_43672_8668" x="101.544" y="20.6595" width="34.2176" height="35.3235" filterUnits="userSpaceOnUse" color-interpolation-filters="sRGB">
<feFlood flood-opacity="0" result="BackgroundImageFix"/>
<feColorMatrix in="SourceAlpha" type="matrix" values="0 0 0 0 0 0 0 0 0 0 0 0 0 0 0 0 0 0 127 0" result="hardAlpha"/>
<feOffset/>
<feGaussianBlur stdDeviation="5.18135"/>
<feComposite in2="hardAlpha" operator="out"/>
<feColorMatrix type="matrix" values="0 0 0 0 0.745098 0 0 0 0 0.203922 0 0 0 0 0.333333 0 0 0 0.33 0"/>
<feBlend mode="normal" in2="BackgroundImageFix" result="effect1_dropShadow_43672_8668"/>
<feColorMatrix in="SourceAlpha" type="matrix" values="0 0 0 0 0 0 0 0 0 0 0 0 0 0 0 0 0 0 127 0" result="hardAlpha"/>
<feOffset/>
<feGaussianBlur stdDeviation="5.18135"/>
<feComposite in2="hardAlpha" operator="out"/>
<feColorMatrix type="matrix" values="0 0 0 0 0.745098 0 0 0 0 0.203922 0 0 0 0 0.333333 0 0 0 0.33 0"/>
<feBlend mode="normal" in2="effect1_dropShadow_43672_8668" result="effect2_dropShadow_43672_8668"/>
<feColorMatrix in="SourceAlpha" type="matrix" values="0 0 0 0 0 0 0 0 0 0 0 0 0 0 0 0 0 0 127 0" result="hardAlpha"/>
<feOffset/>
<feGaussianBlur stdDeviation="5.18135"/>
<feComposite in2="hardAlpha" operator="out"/>
<feColorMatrix type="matrix" values="0 0 0 0 0.745098 0 0 0 0 0.203922 0 0 0 0 0.333333 0 0 0 0.33 0"/>
<feBlend mode="normal" in2="effect2_dropShadow_43672_8668" result="effect3_dropShadow_43672_8668"/>
<feBlend mode="normal" in="SourceGraphic" in2="effect3_dropShadow_43672_8668" result="shape"/>
</filter>
<filter id="filter6_ddd_43672_8668" x="55.4107" y="20.6882" width="34.0145" height="35.3128" filterUnits="userSpaceOnUse" color-interpolation-filters="sRGB">
<feFlood flood-opacity="0" result="BackgroundImageFix"/>
<feColorMatrix in="SourceAlpha" type="matrix" values="0 0 0 0 0 0 0 0 0 0 0 0 0 0 0 0 0 0 127 0" result="hardAlpha"/>
<feOffset/>
<feGaussianBlur stdDeviation="5.18135"/>
<feComposite in2="hardAlpha" operator="out"/>
<feColorMatrix type="matrix" values="0 0 0 0 0.745098 0 0 0 0 0.203922 0 0 0 0 0.333333 0 0 0 0.33 0"/>
<feBlend mode="normal" in2="BackgroundImageFix" result="effect1_dropShadow_43672_8668"/>
<feColorMatrix in="SourceAlpha" type="matrix" values="0 0 0 0 0 0 0 0 0 0 0 0 0 0 0 0 0 0 127 0" result="hardAlpha"/>
<feOffset/>
<feGaussianBlur stdDeviation="5.18135"/>
<feComposite in2="hardAlpha" operator="out"/>
<feColorMatrix type="matrix" values="0 0 0 0 0.745098 0 0 0 0 0.203922 0 0 0 0 0.333333 0 0 0 0.33 0"/>
<feBlend mode="normal" in2="effect1_dropShadow_43672_8668" result="effect2_dropShadow_43672_8668"/>
<feColorMatrix in="SourceAlpha" type="matrix" values="0 0 0 0 0 0 0 0 0 0 0 0 0 0 0 0 0 0 127 0" result="hardAlpha"/>
<feOffset/>
<feGaussianBlur stdDeviation="5.18135"/>
<feComposite in2="hardAlpha" operator="out"/>
<feColorMatrix type="matrix" values="0 0 0 0 0.745098 0 0 0 0 0.203922 0 0 0 0 0.333333 0 0 0 0.33 0"/>
<feBlend mode="normal" in2="effect2_dropShadow_43672_8668" result="effect3_dropShadow_43672_8668"/>
<feBlend mode="normal" in="SourceGraphic" in2="effect3_dropShadow_43672_8668" result="shape"/>
</filter>
<filter id="filter7_dddddddd_43672_8668" x="63.6762" y="28.9537" width="17.4835" height="18.7818" filterUnits="userSpaceOnUse" color-interpolation-filters="sRGB">
<feFlood flood-opacity="0" result="BackgroundImageFix"/>
<feColorMatrix in="SourceAlpha" type="matrix" values="0 0 0 0 0 0 0 0 0 0 0 0 0 0 0 0 0 0 127 0" result="hardAlpha"/>
<feOffset/>
<feGaussianBlur stdDeviation="1.04861"/>
<feComposite in2="hardAlpha" operator="out"/>
<feColorMatrix type="matrix" values="0 0 0 0 0.745098 0 0 0 0 0.203922 0 0 0 0 0.333333 0 0 0 0.1 0"/>
<feBlend mode="normal" in2="BackgroundImageFix" result="effect1_dropShadow_43672_8668"/>
<feColorMatrix in="SourceAlpha" type="matrix" values="0 0 0 0 0 0 0 0 0 0 0 0 0 0 0 0 0 0 127 0" result="hardAlpha"/>
<feOffset/>
<feGaussianBlur stdDeviation="1.04861"/>
<feComposite in2="hardAlpha" operator="out"/>
<feColorMatrix type="matrix" values="0 0 0 0 0.745098 0 0 0 0 0.203922 0 0 0 0 0.333333 0 0 0 0.1 0"/>
<feBlend mode="normal" in2="effect1_dropShadow_43672_8668" result="effect2_dropShadow_43672_8668"/>
<feColorMatrix in="SourceAlpha" type="matrix" values="0 0 0 0 0 0 0 0 0 0 0 0 0 0 0 0 0 0 127 0" result="hardAlpha"/>
<feOffset/>
<feGaussianBlur stdDeviation="1.04861"/>
<feComposite in2="hardAlpha" operator="out"/>
<feColorMatrix type="matrix" values="0 0 0 0 0.745098 0 0 0 0 0.203922 0 0 0 0 0.333333 0 0 0 0.1 0"/>
<feBlend mode="normal" in2="effect2_dropShadow_43672_8668" result="effect3_dropShadow_43672_8668"/>
<feColorMatrix in="SourceAlpha" type="matrix" values="0 0 0 0 0 0 0 0 0 0 0 0 0 0 0 0 0 0 127 0" result="hardAlpha"/>
<feOffset/>
<feGaussianBlur stdDeviation="1.04861"/>
<feComposite in2="hardAlpha" operator="out"/>
<feColorMatrix type="matrix" values="0 0 0 0 0.745098 0 0 0 0 0.203922 0 0 0 0 0.333333 0 0 0 0.1 0"/>
<feBlend mode="normal" in2="effect3_dropShadow_43672_8668" result="effect4_dropShadow_43672_8668"/>
<feColorMatrix in="SourceAlpha" type="matrix" values="0 0 0 0 0 0 0 0 0 0 0 0 0 0 0 0 0 0 127 0" result="hardAlpha"/>
<feOffset/>
<feGaussianBlur stdDeviation="1.04861"/>
<feComposite in2="hardAlpha" operator="out"/>
<feColorMatrix type="matrix" values="0 0 0 0 0.745098 0 0 0 0 0.203922 0 0 0 0 0.333333 0 0 0 0.1 0"/>
<feBlend mode="normal" in2="effect4_dropShadow_43672_8668" result="effect5_dropShadow_43672_8668"/>
<feColorMatrix in="SourceAlpha" type="matrix" values="0 0 0 0 0 0 0 0 0 0 0 0 0 0 0 0 0 0 127 0" result="hardAlpha"/>
<feOffset/>
<feGaussianBlur stdDeviation="1.04861"/>
<feComposite in2="hardAlpha" operator="out"/>
<feColorMatrix type="matrix" values="0 0 0 0 0.745098 0 0 0 0 0.203922 0 0 0 0 0.333333 0 0 0 0.1 0"/>
<feBlend mode="normal" in2="effect5_dropShadow_43672_8668" result="effect6_dropShadow_43672_8668"/>
<feColorMatrix in="SourceAlpha" type="matrix" values="0 0 0 0 0 0 0 0 0 0 0 0 0 0 0 0 0 0 127 0" result="hardAlpha"/>
<feOffset/>
<feGaussianBlur stdDeviation="1.04861"/>
<feComposite in2="hardAlpha" operator="out"/>
<feColorMatrix type="matrix" values="0 0 0 0 0.745098 0 0 0 0 0.203922 0 0 0 0 0.333333 0 0 0 0.1 0"/>
<feBlend mode="normal" in2="effect6_dropShadow_43672_8668" result="effect7_dropShadow_43672_8668"/>
<feColorMatrix in="SourceAlpha" type="matrix" values="0 0 0 0 0 0 0 0 0 0 0 0 0 0 0 0 0 0 127 0" result="hardAlpha"/>
<feOffset/>
<feGaussianBlur stdDeviation="1.04861"/>
<feComposite in2="hardAlpha" operator="out"/>
<feColorMatrix type="matrix" values="0 0 0 0 0.745098 0 0 0 0 0.203922 0 0 0 0 0.333333 0 0 0 0.1 0"/>
<feBlend mode="normal" in2="effect7_dropShadow_43672_8668" result="effect8_dropShadow_43672_8668"/>
<feBlend mode="normal" in="SourceGraphic" in2="effect8_dropShadow_43672_8668" result="shape"/>
</filter>
<filter id="filter8_ddd_43672_8668" x="7.05918" y="7.05234" width="61.0457" height="63.1937" filterUnits="userSpaceOnUse" color-interpolation-filters="sRGB">
<feFlood flood-opacity="0" result="BackgroundImageFix"/>
<feColorMatrix in="SourceAlpha" type="matrix" values="0 0 0 0 0 0 0 0 0 0 0 0 0 0 0 0 0 0 127 0" result="hardAlpha"/>
<feOffset/>
<feGaussianBlur stdDeviation="5.18135"/>
<feComposite in2="hardAlpha" operator="out"/>
<feColorMatrix type="matrix" values="0 0 0 0 0.745098 0 0 0 0 0.203922 0 0 0 0 0.333333 0 0 0 0.33 0"/>
<feBlend mode="normal" in2="BackgroundImageFix" result="effect1_dropShadow_43672_8668"/>
<feColorMatrix in="SourceAlpha" type="matrix" values="0 0 0 0 0 0 0 0 0 0 0 0 0 0 0 0 0 0 127 0" result="hardAlpha"/>
<feOffset/>
<feGaussianBlur stdDeviation="5.18135"/>
<feComposite in2="hardAlpha" operator="out"/>
<feColorMatrix type="matrix" values="0 0 0 0 0.745098 0 0 0 0 0.203922 0 0 0 0 0.333333 0 0 0 0.33 0"/>
<feBlend mode="normal" in2="effect1_dropShadow_43672_8668" result="effect2_dropShadow_43672_8668"/>
<feColorMatrix in="SourceAlpha" type="matrix" values="0 0 0 0 0 0 0 0 0 0 0 0 0 0 0 0 0 0 127 0" result="hardAlpha"/>
<feOffset/>
<feGaussianBlur stdDeviation="5.18135"/>
<feComposite in2="hardAlpha" operator="out"/>
<feColorMatrix type="matrix" values="0 0 0 0 0.745098 0 0 0 0 0.203922 0 0 0 0 0.333333 0 0 0 0.33 0"/>
<feBlend mode="normal" in2="effect2_dropShadow_43672_8668" result="effect3_dropShadow_43672_8668"/>
<feBlend mode="normal" in="SourceGraphic" in2="effect3_dropShadow_43672_8668" result="shape"/>
</filter>
<filter id="filter9_ddd_43672_8668" x="0.00448895" y="-2.76566e-05" width="75.6473" height="77.3502" filterUnits="userSpaceOnUse" color-interpolation-filters="sRGB">
<feFlood flood-opacity="0" result="BackgroundImageFix"/>
<feColorMatrix in="SourceAlpha" type="matrix" values="0 0 0 0 0 0 0 0 0 0 0 0 0 0 0 0 0 0 127 0" result="hardAlpha"/>
<feOffset/>
<feGaussianBlur stdDeviation="5.18135"/>
<feComposite in2="hardAlpha" operator="out"/>
<feColorMatrix type="matrix" values="0 0 0 0 0.745098 0 0 0 0 0.203922 0 0 0 0 0.333333 0 0 0 0.33 0"/>
<feBlend mode="normal" in2="BackgroundImageFix" result="effect1_dropShadow_43672_8668"/>
<feColorMatrix in="SourceAlpha" type="matrix" values="0 0 0 0 0 0 0 0 0 0 0 0 0 0 0 0 0 0 127 0" result="hardAlpha"/>
<feOffset/>
<feGaussianBlur stdDeviation="5.18135"/>
<feComposite in2="hardAlpha" operator="out"/>
<feColorMatrix type="matrix" values="0 0 0 0 0.745098 0 0 0 0 0.203922 0 0 0 0 0.333333 0 0 0 0.33 0"/>
<feBlend mode="normal" in2="effect1_dropShadow_43672_8668" result="effect2_dropShadow_43672_8668"/>
<feColorMatrix in="SourceAlpha" type="matrix" values="0 0 0 0 0 0 0 0 0 0 0 0 0 0 0 0 0 0 127 0" result="hardAlpha"/>
<feOffset/>
<feGaussianBlur stdDeviation="5.18135"/>
<feComposite in2="hardAlpha" operator="out"/>
<feColorMatrix type="matrix" values="0 0 0 0 0.745098 0 0 0 0 0.203922 0 0 0 0 0.333333 0 0 0 0.33 0"/>
<feBlend mode="normal" in2="effect2_dropShadow_43672_8668" result="effect3_dropShadow_43672_8668"/>
<feBlend mode="normal" in="SourceGraphic" in2="effect3_dropShadow_43672_8668" result="shape"/>
</filter>
</defs>
</svg>
