<svg width="24" height="24" viewBox="0 0 24 24" fill="none" xmlns="http://www.w3.org/2000/svg">
<path d="M21.7075 20.29L17.9975 16.61C19.4376 14.8144 20.135 12.5353 19.9463 10.2413C19.7576 7.94733 18.6971 5.81281 16.983 4.27667C15.2688 2.74053 13.0313 1.91954 10.7304 1.9825C8.4295 2.04546 6.24018 2.98759 4.6126 4.61517C2.98502 6.24275 2.04289 8.43207 1.97993 10.7329C1.91697 13.0338 2.73797 15.2714 4.27411 16.9855C5.81025 18.6997 7.94476 19.7601 10.2388 19.9488C12.5328 20.1375 14.8119 19.4401 16.6075 18L20.2875 21.68C20.3804 21.7738 20.491 21.8482 20.6129 21.8989C20.7347 21.9497 20.8655 21.9758 20.9975 21.9758C21.1295 21.9758 21.2602 21.9497 21.382 21.8989C21.5039 21.8482 21.6145 21.7738 21.7075 21.68C21.8877 21.4936 21.9885 21.2444 21.9885 20.985C21.9885 20.7257 21.8877 20.4765 21.7075 20.29ZM10.9975 18C9.61299 18 8.25962 17.5895 7.10847 16.8203C5.95733 16.0511 5.06012 14.9579 4.53031 13.6788C4.00049 12.3997 3.86187 10.9923 4.13197 9.63439C4.40206 8.27653 5.06875 7.02925 6.04772 6.05028C7.02668 5.07131 8.27396 4.40463 9.63183 4.13453C10.9897 3.86443 12.3972 4.00306 13.6762 4.53287C14.9553 5.06268 16.0486 5.95989 16.8178 7.11103C17.5869 8.26218 17.9975 9.61556 17.9975 11C17.9975 12.8565 17.26 14.637 15.9472 15.9498C14.6345 17.2625 12.854 18 10.9975 18Z" fill="#F9F9F9"/>
</svg>
