<svg width="28" height="28" viewBox="0 0 28 28" fill="none" xmlns="http://www.w3.org/2000/svg">
<path d="M11.0488 4.9695C10.903 7.62361 10.903 10.2837 11.0488 12.9378C11.0328 13.177 11.0671 13.4168 11.1495 13.6419C11.2319 13.8669 11.3605 14.0722 11.5271 14.2445C11.8011 14.4097 12.1175 14.4908 12.4371 14.4778C13.6572 14.5478 14.8804 14.5478 16.1005 14.4778C16.5116 14.4874 16.9167 14.378 17.2671 14.1628C17.4975 13.9173 17.6696 13.6231 17.7706 13.3019C17.8716 12.9808 17.8989 12.641 17.8505 12.3078V5.8445C17.8707 5.40182 17.8314 4.95842 17.7338 4.52617C17.2905 2.9395 15.3188 2.99783 14.0121 3.1145C13.3471 3.17283 11.5505 3.1145 11.1305 3.72117C11.0218 3.89996 10.9689 4.10715 10.9788 4.31617L11.0488 4.9695Z" stroke="white" stroke-width="0.97" stroke-linecap="round" stroke-linejoin="round"/>
<path d="M13.2412 5.30802C14.0229 5.30802 14.7929 5.21469 15.5745 5.17969" stroke="white" stroke-width="0.72" stroke-linecap="round" stroke-linejoin="round"/>
<path d="M13.3115 7.50138L15.6449 7.37305" stroke="white" stroke-width="0.72" stroke-linecap="round" stroke-linejoin="round"/>
<path d="M13.3115 9.74162C14.0932 9.67162 14.8632 9.64828 15.6449 9.61328" stroke="white" stroke-width="0.72" stroke-linecap="round" stroke-linejoin="round"/>
<path d="M2.88188 15.5507C2.88188 17.7907 2.75355 19.6691 2.75355 20.7307C2.68537 21.5262 2.80941 22.3265 3.11521 23.0641C3.26515 23.2198 3.44712 23.3412 3.64855 23.4197C3.84998 23.4983 4.06607 23.5322 4.28188 23.519C5.23793 23.5676 6.19583 23.5676 7.15188 23.519C7.46688 23.519 8.55188 23.5191 8.86688 23.1691C9.02908 22.968 9.14889 22.7361 9.21906 22.4875C9.28924 22.2389 9.30834 21.9786 9.27521 21.7224C9.27521 19.3074 9.27521 17.2074 9.17021 14.7924C9.17021 14.3024 9.17021 13.7307 8.64521 13.4857C7.96881 13.2832 7.26071 13.2081 6.55688 13.264C5.65405 13.2407 4.75063 13.2641 3.85021 13.3341C3.64584 13.3326 3.44468 13.3849 3.26688 13.4857C3.15985 13.6055 3.0787 13.746 3.02851 13.8986C2.97832 14.0512 2.96018 14.2125 2.97521 14.3724L2.88188 15.5507Z" stroke="white" stroke-width="0.97" stroke-linecap="round" stroke-linejoin="round"/>
<path d="M16.7531 20.4862C16.7531 21.8512 16.5898 24.5579 17.0448 25.0129C17.4998 25.4679 17.9081 25.2812 18.3165 25.2929C19.1303 25.3058 19.9443 25.2747 20.7548 25.1996C21.0883 25.1872 21.4134 25.0909 21.6998 24.9196C21.8981 24.7329 21.9215 23.8812 21.9215 23.6012C21.9915 21.5712 22.0265 20.1012 22.0031 19.2146C22.0186 18.5923 21.9238 17.9721 21.7231 17.3829C21.5365 17.0446 20.4281 17.0096 20.0665 16.9746C19.1098 16.8929 17.0915 16.9746 16.9281 17.7329C16.8134 18.6462 16.755 19.5657 16.7531 20.4862Z" stroke="white" stroke-width="0.97" stroke-linecap="round" stroke-linejoin="round"/>
<path d="M4.88867 15.2943L7.40867 15.166" stroke="white" stroke-width="0.72" stroke-linecap="round" stroke-linejoin="round"/>
<path d="M4.87695 17.0094L7.39695 16.9277" stroke="white" stroke-width="0.72" stroke-linecap="round" stroke-linejoin="round"/>
<path d="M4.86523 18.9938L7.38523 18.9121" stroke="white" stroke-width="0.72" stroke-linecap="round" stroke-linejoin="round"/>
<path d="M18.457 18.7715H20.0087" stroke="white" stroke-width="0.72" stroke-linecap="round" stroke-linejoin="round"/>
<path d="M18.4912 20.043H20.0429" stroke="white" stroke-width="0.72" stroke-linecap="round" stroke-linejoin="round"/>
<path d="M18.4912 20.0547C19.0045 20.0547 19.5295 20.0547 20.0429 20.0547" stroke="white" stroke-width="0.72" stroke-linecap="round" stroke-linejoin="round"/>
<path d="M18.5264 21.3848C18.5264 21.3848 19.553 21.3848 20.078 21.3848" stroke="white" stroke-width="0.72" stroke-linecap="round" stroke-linejoin="round"/>
<path d="M9.53125 20.4634C10.6979 20.4634 11.8646 20.4051 12.9379 20.4634C14.0113 20.5218 15.4579 20.4634 16.7063 20.5334" stroke="white" stroke-width="0.97" stroke-linecap="round" stroke-linejoin="round"/>
<path d="M10.4996 8.87762C9.20458 8.87762 8.25958 8.87762 7.76958 8.87762C7.25628 8.86835 6.7458 8.95541 6.26458 9.13429C6.05458 9.23929 6.04292 9.70596 6.03125 9.92762C6.03125 11.036 6.03125 11.9226 6.03125 13.031" stroke="white" stroke-width="0.97" stroke-linecap="round" stroke-linejoin="round"/>
<path d="M17.9434 11.8412C18.655 11.6429 19.705 11.7129 19.6934 12.6112C19.6934 14.0229 19.6234 15.4346 19.53 16.8462" stroke="white" stroke-width="0.97" stroke-linecap="round" stroke-linejoin="round"/>
<path d="M15.7852 12.7872C16.1396 12.7872 16.4269 12.5 16.4269 12.1456C16.4269 11.7912 16.1396 11.5039 15.7852 11.5039C15.4308 11.5039 15.1436 11.7912 15.1436 12.1456C15.1436 12.5 15.4308 12.7872 15.7852 12.7872Z" fill="white"/>
<path d="M7.18659 22.1193C7.54097 22.1193 7.82826 21.832 7.82826 21.4776C7.82826 21.1232 7.54097 20.8359 7.18659 20.8359C6.83221 20.8359 6.54492 21.1232 6.54492 21.4776C6.54492 21.832 6.83221 22.1193 7.18659 22.1193Z" fill="white"/>
<path d="M19.9737 24.1154C20.3281 24.1154 20.6154 23.8281 20.6154 23.4737C20.6154 23.1193 20.3281 22.832 19.9737 22.832C19.6193 22.832 19.332 23.1193 19.332 23.4737C19.332 23.8281 19.6193 24.1154 19.9737 24.1154Z" fill="white"/>
</svg>
