<svg width="28" height="28" viewBox="0 0 28 28" fill="none" xmlns="http://www.w3.org/2000/svg">
<path d="M6.20659 4.66693C5.75159 4.66693 4.29326 4.81859 3.87326 4.90026C1.99493 5.20359 2.42659 6.93026 2.42659 8.52859C2.42659 12.7053 2.42659 16.8819 2.42659 21.0469C2.37191 21.4624 2.40492 21.8846 2.52348 22.2865C2.64204 22.6884 2.84352 23.061 3.11493 23.3803C3.71227 23.7787 4.43159 23.9523 5.14493 23.8703H10.5349C11.3533 23.9481 12.1743 23.7511 12.8683 23.3103C13.2247 22.9047 13.4886 22.4265 13.6417 21.9087C13.7948 21.391 13.8335 20.8461 13.7549 20.3119V8.06193C13.8565 7.15663 13.6378 6.24434 13.1366 5.48359C12.7178 5.11385 12.2223 4.84151 11.6857 4.68618C11.1491 4.53084 10.5848 4.49638 10.0333 4.58526C8.43493 4.59693 7.32659 4.66693 6.20659 4.66693Z" stroke="white" stroke-width="0.97" stroke-linecap="round" stroke-linejoin="round"/>
<path d="M5.28516 8.36435L10.8385 8.16602" stroke="white" stroke-width="0.94" stroke-linecap="round" stroke-linejoin="round"/>
<path d="M5.02832 11.2585L10.7333 10.9785" stroke="white" stroke-width="0.94" stroke-linecap="round" stroke-linejoin="round"/>
<path d="M5.0752 13.9994L10.7919 13.8711" stroke="white" stroke-width="0.94" stroke-linecap="round" stroke-linejoin="round"/>
<path d="M13.8252 7.2793C14.8285 7.2793 15.8435 7.2793 16.8469 7.2793" stroke="white" stroke-width="0.73" stroke-linecap="round" stroke-linejoin="round"/>
<path d="M14.082 21C15.0737 21 16.077 21 17.0804 21" stroke="white" stroke-width="0.73" stroke-linecap="round" stroke-linejoin="round"/>
<path d="M14 14.1055H16.8583" stroke="white" stroke-width="0.73" stroke-linecap="round" stroke-linejoin="round"/>
<path d="M17.0569 5.29648C17.0417 5.28229 17.0296 5.26513 17.0213 5.24607C17.0131 5.227 17.0088 5.20644 17.0088 5.18565C17.0088 5.16486 17.0131 5.1443 17.0213 5.12523C17.0296 5.10617 17.0417 5.08901 17.0569 5.07482C17.3976 4.821 17.7654 4.6058 18.1536 4.43315L18.7369 4.09482C18.9236 3.97815 19.1103 3.86148 19.2969 3.76815L20.4053 3.19648C20.589 3.09683 20.7918 3.03719 21.0003 3.02148C21.1291 3.03578 21.2529 3.07971 21.3619 3.14982C21.4786 3.21982 22.3186 3.68648 22.6453 3.84982L23.7186 4.40982C24.0867 4.57661 24.4349 4.78401 24.7569 5.02815C24.7569 5.02815 24.5819 5.14482 24.5703 5.16815C24.3502 5.30919 24.1202 5.43397 23.8819 5.54148L22.9019 6.08982L22.2019 6.46315L21.4203 6.89482C21.2991 6.98774 21.1584 7.0518 21.0088 7.08213C20.8592 7.11246 20.7047 7.10825 20.5569 7.06982C20.2536 6.96482 19.5069 6.49815 19.1919 6.33482C18.8769 6.17148 18.3986 5.91482 18.1769 5.82148C17.7858 5.68725 17.4103 5.51124 17.0569 5.29648Z" stroke="white" stroke-width="0.75" stroke-linecap="round" stroke-linejoin="round"/>
<path d="M17.0097 5.19073C16.8522 6.45361 16.8522 7.73118 17.0097 8.99406C17.0067 9.14746 17.051 9.29807 17.1366 9.4254C17.2221 9.55274 17.3449 9.65062 17.4881 9.70573C18.2114 10.0907 18.9581 10.4291 19.7164 10.7557C20.0935 10.9359 20.4835 11.088 20.8831 11.2107C21.4781 11.3624 22.0497 10.8374 22.5281 10.5457L23.6947 9.83406C23.9397 9.6824 24.5231 9.46073 24.6164 9.16906C24.7232 8.67892 24.7547 8.17536 24.7097 7.67573C24.7097 6.78906 24.7681 5.91406 24.7097 5.03906" stroke="white" stroke-width="0.75" stroke-linecap="round" stroke-linejoin="round"/>
<path d="M20.8135 7.14062C20.8135 7.43229 20.8718 7.71229 20.9068 8.00396C20.9418 8.29563 20.9068 8.50563 20.9068 8.76229C20.9068 9.26396 20.9068 9.76563 20.9068 10.279C20.9068 10.5006 20.9068 10.734 20.9068 10.9556" stroke="white" stroke-width="0.75" stroke-linecap="round" stroke-linejoin="round"/>
<path d="M24.4999 16.0879C24.2666 16.5779 23.3332 16.9396 22.9132 17.2546C22.2876 17.6054 21.6408 17.9171 20.9766 18.1879" stroke="white" stroke-width="0.75" stroke-linecap="round" stroke-linejoin="round"/>
<path d="M21.0001 18.154C19.6869 17.7265 18.4416 17.1137 17.3018 16.334" stroke="white" stroke-width="0.75" stroke-linecap="round" stroke-linejoin="round"/>
<path d="M17.3021 16.3342C17.0805 16.1359 17.1738 14.9342 17.1738 14.3159C17.1386 13.6056 17.1816 12.8935 17.3021 12.1926C17.4071 12.0409 17.8038 12.4259 18.0021 12.5426L18.9821 13.0909C19.6471 13.4642 20.8838 14.2576 20.9538 14.2576C21.2074 14.1033 21.4527 13.9358 21.6888 13.7559L22.6105 13.1842C23.2405 12.7876 24.4538 12.0176 24.5121 12.0176C24.5705 12.0176 24.6055 12.1926 24.6055 12.3909C24.6055 12.5892 24.6055 13.4642 24.5471 14.1759C24.5932 14.8137 24.5775 15.4545 24.5005 16.0892" stroke="white" stroke-width="0.75" stroke-linecap="round" stroke-linejoin="round"/>
<path d="M21 14.1641V17.9441" stroke="white" stroke-width="0.75" stroke-linecap="round" stroke-linejoin="round"/>
<path d="M24.4999 23.334C24.2666 23.8357 23.3332 24.1857 22.9132 24.5007C22.2876 24.8514 21.6408 25.1632 20.9766 25.434" stroke="white" stroke-width="0.75" stroke-linecap="round" stroke-linejoin="round"/>
<path d="M21.0002 25.3744C19.694 24.9305 18.4598 24.2977 17.3369 23.4961" stroke="white" stroke-width="0.75" stroke-linecap="round" stroke-linejoin="round"/>
<path d="M17.3021 23.4961C17.0805 23.2978 17.1738 22.0961 17.1738 21.4778C17.1386 20.7675 17.1816 20.0554 17.3021 19.3545C17.4071 19.2028 17.8038 19.5995 18.0021 19.7045L18.9821 20.2645C19.6471 20.6378 20.8838 21.4311 20.9538 21.3728C21.2074 21.2185 21.4527 21.0511 21.6888 20.8711L22.6105 20.2995C23.2405 19.9028 24.4538 19.1328 24.5121 19.1328C24.5705 19.1328 24.6055 19.3195 24.6055 19.5061C24.6055 19.6928 24.6055 20.5795 24.5471 21.2911C24.6017 21.9715 24.5861 22.6557 24.5005 23.3328" stroke="white" stroke-width="0.75" stroke-linecap="round" stroke-linejoin="round"/>
<path d="M21 21.3848V25.1764" stroke="white" stroke-width="0.75" stroke-linecap="round" stroke-linejoin="round"/>
<path d="M10.1151 21.6541C10.6113 21.6541 11.0135 21.2519 11.0135 20.7558C11.0135 20.2596 10.6113 19.8574 10.1151 19.8574C9.61899 19.8574 9.2168 20.2596 9.2168 20.7558C9.2168 21.2519 9.61899 21.6541 10.1151 21.6541Z" fill="white"/>
</svg>
