<svg width="28" height="28" viewBox="0 0 28 28" fill="none" xmlns="http://www.w3.org/2000/svg">
<path d="M12.8913 23.543C12.3779 23.1347 11.7246 22.6447 11.7246 21.933C14.1979 19.7747 16.5313 17.453 19.0746 15.3764C18.9253 14.8197 18.9044 14.2364 19.0135 13.6705C19.1226 13.1046 19.359 12.5709 19.7046 12.1097C20.1065 11.5544 20.675 11.1417 21.3276 10.9319C21.9802 10.7221 22.6827 10.726 23.3329 10.943C25.4329 11.783 26.4013 15.2597 24.3246 16.6247C23.8291 16.9624 23.2476 17.1517 22.6482 17.1703C22.0489 17.1889 21.4567 17.036 20.9413 16.7297C20.1129 17.4414 19.3779 18.1997 18.6079 18.958" stroke="white" stroke-width="1.02" stroke-linecap="round" stroke-linejoin="round"/>
<path d="M12.8916 23.543C13.4516 23.4052 13.9563 23.1 14.3383 22.668" stroke="white" stroke-width="1.02" stroke-linecap="round" stroke-linejoin="round"/>
<path d="M15.4697 21.4902C15.8965 21.8735 16.287 22.2953 16.6364 22.7502" stroke="white" stroke-width="1.02" stroke-linecap="round" stroke-linejoin="round"/>
<path d="M17.0449 20.125C17.2316 20.3467 17.4183 20.5567 17.6166 20.7667" stroke="white" stroke-width="1.02" stroke-linecap="round" stroke-linejoin="round"/>
<path d="M20.4521 13.8942C20.4767 13.6802 20.5434 13.4732 20.6483 13.285C20.7533 13.0969 20.8944 12.9314 21.0635 12.798C21.2327 12.6646 21.4266 12.566 21.634 12.5079C21.8414 12.4497 22.0583 12.4332 22.2721 12.4592" stroke="white" stroke-width="0.77" stroke-linecap="round" stroke-linejoin="round"/>
<path d="M10.6749 3.06886L10.1149 3.25552C6.08987 4.79552 5.8332 12.4489 10.8965 12.4022C11.8103 12.4302 12.7138 12.2026 13.5053 11.745C14.2968 11.2875 14.9448 10.6181 15.3765 9.81219C16.9865 6.38219 14.5015 2.10052 10.6749 3.06886Z" stroke="white" stroke-width="1.02" stroke-linecap="round" stroke-linejoin="round"/>
<path d="M16.66 13.9996C15.4 12.3429 12.285 12.1796 10.4184 12.5179C9.16247 12.7263 7.9734 13.2278 6.94769 13.9819C5.92198 14.736 5.08855 15.7213 4.51504 16.8579C3.81394 18.2179 3.39714 19.7065 3.29004 21.2329V21.6062" stroke="white" stroke-width="1.02" stroke-linecap="round" stroke-linejoin="round"/>
</svg>
