<svg width="28" height="28" viewBox="0 0 28 28" fill="none" xmlns="http://www.w3.org/2000/svg">
<path d="M8.81991 25.1659C9.21658 25.2592 11.0016 25.2476 11.5149 25.2709C12.5532 25.2709 13.6032 25.2709 14.6416 25.2709C15.7338 25.3035 16.8268 25.2411 17.9082 25.0842C18.2363 25.0834 18.5553 24.977 18.8182 24.7809C19.3199 24.3376 19.2966 23.2059 19.3316 22.4476C19.3316 21.2109 19.3316 19.1576 19.2382 17.9442C20.2655 16.7098 20.9205 15.2087 21.1271 13.6161C21.3337 12.0234 21.0832 10.4049 20.4049 8.94924C19.6007 7.14877 18.1823 5.69309 16.4032 4.84257C15.2292 4.33252 13.9486 4.11592 12.6722 4.21145C11.3957 4.30698 10.1616 4.71178 9.07658 5.3909C6.67325 7.0009 5.71658 9.26424 5.17991 11.9242C4.74825 12.5892 4.24658 13.2076 3.75658 13.8376C3.52325 14.1526 3.26658 14.4559 3.04491 14.7826C2.82325 15.1092 2.62491 15.2492 2.74158 15.5642C2.85825 15.8792 3.41825 15.8792 3.76825 15.8676C3.96961 15.8373 4.17533 15.8578 4.36681 15.927C4.55829 15.9963 4.72949 16.1122 4.86491 16.2642C5.63491 17.2559 3.79158 21.9459 5.70491 22.0976C6.53122 22.1139 7.35467 22.1998 8.16658 22.3542C8.53991 22.6342 8.51658 23.1942 8.55158 23.6376C8.58658 24.9092 8.71491 25.1426 8.81991 25.1659Z" stroke="white" stroke-width="0.98" stroke-linecap="round" stroke-linejoin="round"/>
<path d="M10.5004 9.3343C10.4829 9.68408 10.4829 10.0345 10.5004 10.3843C10.5004 10.6176 10.5004 14.0243 10.7921 14.2576C11.5003 14.3571 12.2189 14.3571 12.9271 14.2576C13.2888 14.2576 14.0938 14.2576 14.5838 14.1993C14.9762 14.2135 15.3686 14.1743 15.7504 14.0826C15.8435 13.1094 15.863 12.1305 15.8088 11.1543C15.8088 10.431 15.8788 9.3343 15.6454 9.1593C14.968 9.03884 14.2796 8.9919 13.5921 9.0193C13.0438 9.0193 12.4954 9.0193 11.9471 9.0193H11.3871C11.1901 9.02352 10.9943 9.05093 10.8038 9.10096C10.7376 9.11112 10.6751 9.13783 10.6221 9.17863C10.5691 9.21943 10.5272 9.27298 10.5004 9.3343Z" stroke="white" stroke-width="0.98" stroke-linecap="round" stroke-linejoin="round"/>
<path d="M11.457 7.34961C11.457 7.34961 11.457 8.09628 11.457 8.51628" stroke="white" stroke-width="0.98" stroke-linecap="round" stroke-linejoin="round"/>
<path d="M14 7.2207C14 7.2207 14 8.38737 14 8.63237" stroke="white" stroke-width="0.98" stroke-linecap="round" stroke-linejoin="round"/>
<path d="M15.9482 10.5C15.9482 10.5 16.8466 10.5 17.3716 10.5" stroke="white" stroke-width="0.98" stroke-linecap="round" stroke-linejoin="round"/>
<path d="M15.9482 12.6694C16.4309 12.5973 16.9187 12.566 17.4066 12.576" stroke="white" stroke-width="0.98" stroke-linecap="round" stroke-linejoin="round"/>
<path d="M12.25 14.4668V16.0301" stroke="white" stroke-width="0.98" stroke-linecap="round" stroke-linejoin="round"/>
<path d="M14.2334 14.3848C14.2334 14.3848 14.2334 15.3648 14.3151 15.8431" stroke="white" stroke-width="0.98" stroke-linecap="round" stroke-linejoin="round"/>
<path d="M8.64453 10.7908L9.8812 10.7324" stroke="white" stroke-width="0.98" stroke-linecap="round" stroke-linejoin="round"/>
<path d="M8.77344 12.7632L9.9401 12.6582" stroke="white" stroke-width="0.98" stroke-linecap="round" stroke-linejoin="round"/>
<path d="M11.0016 20.5454C10.8823 20.6501 10.7902 20.7822 10.7333 20.9304C10.6578 21.1538 10.6686 21.3974 10.7636 21.6133C10.8586 21.8292 11.0309 22.0017 11.2466 22.0971C11.4671 22.1769 11.7095 22.1708 11.9256 22.08C12.1418 21.9892 12.3159 21.8203 12.4133 21.6071C12.4822 21.421 12.4892 21.2176 12.4333 21.0272C12.3774 20.8368 12.2615 20.6696 12.103 20.5503C11.9444 20.431 11.7515 20.3661 11.5531 20.3652C11.3547 20.3644 11.1612 20.4275 11.0016 20.5454Z" stroke="white" stroke-width="0.98" stroke-linecap="round" stroke-linejoin="round"/>
<path d="M11.5264 22.7031C11.5264 23.2981 11.5264 24.2898 11.5264 24.8848" stroke="white" stroke-width="0.98" stroke-linecap="round" stroke-linejoin="round"/>
<path d="M16.1934 20.7793C16.1934 22.016 16.0417 23.8593 15.9834 25.0143" stroke="white" stroke-width="0.98" stroke-linecap="round" stroke-linejoin="round"/>
<path d="M16.3331 18.5855C16.221 18.5678 16.1068 18.5678 15.9948 18.5855C15.7396 18.6492 15.5135 18.7972 15.3531 19.0055C15.1761 19.2736 15.1093 19.5995 15.1664 19.9155C15.2192 20.093 15.323 20.251 15.4649 20.3699C15.6067 20.4889 15.7804 20.5636 15.9643 20.5847C16.1482 20.6058 16.3343 20.5724 16.4994 20.4887C16.6645 20.405 16.8014 20.2747 16.8931 20.1139C16.9962 19.9537 17.0558 19.7694 17.0661 19.5791C17.0763 19.3888 17.0368 19.1992 16.9514 19.0289C16.8864 18.9147 16.7975 18.816 16.6908 18.7395C16.5841 18.6629 16.462 18.6104 16.3331 18.5855Z" stroke="white" stroke-width="0.98" stroke-linecap="round" stroke-linejoin="round"/>
<path d="M21.2451 13.4629H23.5785" stroke="white" stroke-width="0.98" stroke-linecap="round" stroke-linejoin="round"/>
<path d="M23.5898 13.4512C23.6482 13.8945 23.5898 14.3612 23.6482 14.8162" stroke="white" stroke-width="0.98" stroke-linecap="round" stroke-linejoin="round"/>
<path d="M24.3946 15.5989L24.208 15.4822C23.9109 15.3956 23.5916 15.4305 23.3203 15.5793C23.049 15.728 22.848 15.9785 22.7613 16.2755C22.7107 16.4377 22.7111 16.6115 22.7626 16.7735C22.814 16.9354 22.914 17.0776 23.049 17.1807C23.184 17.2839 23.3475 17.343 23.5172 17.3502C23.687 17.3573 23.8548 17.312 23.998 17.2205C24.5696 16.9289 24.9196 16.0422 24.3946 15.5989Z" stroke="white" stroke-width="0.98" stroke-linecap="round" stroke-linejoin="round"/>
<path d="M21.0586 10.2907C21.5719 10.2907 22.0853 10.2907 22.5986 10.2207" stroke="white" stroke-width="0.98" stroke-linecap="round" stroke-linejoin="round"/>
<path d="M24.1383 9.25159C23.9871 9.20362 23.826 9.19601 23.6709 9.22951C23.5159 9.26302 23.3723 9.33647 23.2544 9.44259C23.1365 9.5487 23.0483 9.6838 22.9987 9.83448C22.9491 9.98516 22.9398 10.1462 22.9716 10.3016C23.0171 10.5206 23.1397 10.7161 23.3172 10.8523C23.4947 10.9885 23.7152 11.0564 23.9386 11.0437C24.1619 11.031 24.3733 10.9385 24.5341 10.783C24.695 10.6275 24.7947 10.4194 24.815 10.1966C24.8428 9.98266 24.7885 9.76612 24.6629 9.59072C24.5373 9.41531 24.3498 9.29411 24.1383 9.25159Z" stroke="white" stroke-width="0.98" stroke-linecap="round" stroke-linejoin="round"/>
<path d="M19.4951 7.16406C20.6618 7.16406 22.4001 7.16406 23.5551 7.16406" stroke="white" stroke-width="0.98" stroke-linecap="round" stroke-linejoin="round"/>
<path d="M23.6715 5.55273C23.6715 6.0544 23.6131 6.56773 23.5781 7.08107" stroke="white" stroke-width="0.98" stroke-linecap="round" stroke-linejoin="round"/>
<path d="M23.4971 3.37263C23.4073 3.38381 23.3202 3.41149 23.2404 3.45429C23.088 3.5361 22.962 3.65967 22.8773 3.81051C22.7926 3.96135 22.7526 4.13321 22.7621 4.30596C22.7533 4.50206 22.8164 4.69462 22.9396 4.84744C23.0628 5.00026 23.2376 5.1028 23.4311 5.13576C23.6246 5.16873 23.8235 5.12986 23.9903 5.02646C24.1572 4.92306 24.2805 4.76225 24.3371 4.57429C24.406 4.41779 24.4294 4.24503 24.4047 4.07583C24.3799 3.90663 24.308 3.74782 24.1971 3.61763C24.108 3.52444 23.9982 3.45367 23.8765 3.41108C23.7549 3.3685 23.6248 3.35532 23.4971 3.37263Z" stroke="white" stroke-width="0.98" stroke-linecap="round" stroke-linejoin="round"/>
</svg>
