<svg width="28" height="28" viewBox="0 0 28 28" fill="none" xmlns="http://www.w3.org/2000/svg">
<path d="M3.37012 5.48242C4.65345 6.11242 5.89012 6.73076 7.17345 7.39576" stroke="white" stroke-width="0.74" stroke-linecap="round" stroke-linejoin="round"/>
<path d="M7.17383 7.38411L11.2338 5.05078" stroke="white" stroke-width="0.74" stroke-linecap="round" stroke-linejoin="round"/>
<path d="M7.23242 7.37305C7.23242 8.86638 7.23242 11.853 7.23242 11.853" stroke="white" stroke-width="0.74" stroke-linecap="round" stroke-linejoin="round"/>
<path d="M11.3505 4.96971C11.4009 5.69606 11.4009 6.42503 11.3505 7.15138V9.06471C11.3505 9.22805 11.3505 9.41471 11.2455 9.53138C11.1405 9.64805 10.9305 9.70638 10.7788 9.79971C10.4288 9.98638 10.0905 10.1847 9.75217 10.383C9.41384 10.5814 7.30217 11.888 7.19717 11.9114C6.86929 11.8069 6.55575 11.6619 6.26384 11.4797L5.2605 10.9897C4.78217 10.7447 4.30384 10.488 3.81384 10.2547C3.6286 10.1772 3.45253 10.0794 3.28884 9.96305C3.21509 9.82774 3.18647 9.67242 3.20717 9.51971C3.20717 9.26305 3.20717 7.93305 3.20717 7.53638C3.17183 6.84072 3.17183 6.14371 3.20717 5.44805C3.20717 5.24971 3.8255 4.98138 4.1055 4.81805L5.1905 4.16471C5.88448 3.67519 6.64203 3.28268 7.44217 2.99805C8.13155 3.20078 8.79366 3.48677 9.41384 3.84971C10.1129 4.1217 10.7661 4.49944 11.3505 4.96971Z" stroke="white" stroke-width="0.99" stroke-linecap="round" stroke-linejoin="round"/>
<path d="M16.6357 5.48242C17.9191 6.11242 19.1441 6.74242 20.4274 7.39576" stroke="white" stroke-width="0.74" stroke-linecap="round" stroke-linejoin="round"/>
<path d="M20.4268 7.38411L24.4984 5.05078" stroke="white" stroke-width="0.74" stroke-linecap="round" stroke-linejoin="round"/>
<path d="M20.4971 7.37305C20.4971 8.86638 20.4971 11.853 20.4971 11.853" stroke="white" stroke-width="0.74" stroke-linecap="round" stroke-linejoin="round"/>
<path d="M24.6152 4.96971C24.6597 5.69625 24.6597 6.42484 24.6152 7.15138V9.06471C24.6152 9.22805 24.6735 9.41471 24.5218 9.53138C24.3702 9.64805 24.2068 9.70638 24.0435 9.79971L23.0168 10.383C22.5735 10.6397 20.5785 11.888 20.4735 11.9114C20.141 11.8094 19.8233 11.6643 19.5285 11.4797L18.5368 10.9897C18.0468 10.7447 17.5685 10.488 17.0785 10.2547C16.8958 10.172 16.7202 10.0745 16.5535 9.96305C16.4852 9.82586 16.4569 9.67223 16.4718 9.51971C16.4718 9.26305 16.4718 7.93305 16.4718 7.53638C16.4365 6.84072 16.4365 6.14371 16.4718 5.44805C16.5418 5.24971 17.0902 4.98138 17.3702 4.81805L18.4668 4.16471C19.1554 3.67321 19.9094 3.28051 20.7068 2.99805C21.397 3.19853 22.0594 3.48464 22.6785 3.84971C23.3756 4.12586 24.0281 4.50325 24.6152 4.96971Z" stroke="white" stroke-width="0.99" stroke-linecap="round" stroke-linejoin="round"/>
<path d="M16.8457 18.5723C18.1407 19.2023 19.3657 19.8323 20.649 20.4856" stroke="white" stroke-width="0.74" stroke-linecap="round" stroke-linejoin="round"/>
<path d="M20.6484 20.474L24.7084 18.1406" stroke="white" stroke-width="0.74" stroke-linecap="round" stroke-linejoin="round"/>
<path d="M20.707 20.4629C20.707 21.9562 20.707 24.9429 20.707 24.9429" stroke="white" stroke-width="0.74" stroke-linecap="round" stroke-linejoin="round"/>
<path d="M24.8368 18.0478C24.8804 18.7744 24.8804 19.5029 24.8368 20.2295V22.1545C24.8368 22.3178 24.8368 22.5045 24.7318 22.6095C24.5832 22.7138 24.4272 22.8074 24.2652 22.8895L23.2385 23.4728C22.7835 23.7295 20.8002 24.9778 20.6835 25.0011C20.3596 24.8868 20.0471 24.7423 19.7502 24.5695L18.7585 24.0795L17.3002 23.3328C17.1145 23.261 16.9382 23.167 16.7752 23.0528C16.7022 22.9172 16.6736 22.7621 16.6935 22.6095C16.6935 22.3528 16.6935 21.0228 16.6935 20.6261C16.6582 19.9305 16.6582 19.2334 16.6935 18.5378C16.6935 18.3395 17.3118 18.0711 17.5918 17.9078L18.7702 17.2311C19.4533 16.7444 20.1989 16.352 20.9868 16.0645C21.6762 16.2672 22.3383 16.5532 22.9585 16.9161C23.6336 17.2054 24.2656 17.5862 24.8368 18.0478Z" stroke="white" stroke-width="0.99" stroke-linecap="round" stroke-linejoin="round"/>
<path d="M3.32422 18.0137C4.65422 18.6437 5.82089 19.2853 7.12755 19.927" stroke="white" stroke-width="0.74" stroke-linecap="round" stroke-linejoin="round"/>
<path d="M7.12695 19.9154L11.187 17.582" stroke="white" stroke-width="0.74" stroke-linecap="round" stroke-linejoin="round"/>
<path d="M7.18555 19.9023C7.18555 21.3957 7.18555 24.3823 7.18555 24.3823" stroke="white" stroke-width="0.74" stroke-linecap="round" stroke-linejoin="round"/>
<path d="M11.3041 17.499C11.3545 18.2254 11.3545 18.9543 11.3041 19.6807V21.594C11.3041 21.769 11.3624 21.944 11.2107 22.0607C11.0619 22.1613 10.9059 22.251 10.7441 22.329L9.7174 22.9123C9.2624 23.169 7.2674 24.429 7.1624 24.4407C6.83683 24.3353 6.52384 24.1945 6.22907 24.0207L5.22573 23.519L3.77907 22.784C3.59164 22.7111 3.41502 22.6129 3.25407 22.4923C3.18115 22.3565 3.14876 22.2027 3.16073 22.049C3.16073 21.7923 3.16073 20.4623 3.16073 20.0657C3.1196 19.3702 3.1196 18.6728 3.16073 17.9773C3.16073 17.779 3.7674 17.5223 4.05907 17.3473L5.14407 16.694C5.83945 16.2068 6.59667 15.8145 7.39573 15.5273C8.08511 15.7301 8.74722 16.0161 9.3674 16.379C10.0665 16.651 10.7197 17.0287 11.3041 17.499Z" stroke="white" stroke-width="0.99" stroke-linecap="round" stroke-linejoin="round"/>
<path d="M7.24414 11.9355C7.24414 12.5772 7.24414 13.8489 7.24414 13.8489" stroke="white" stroke-width="0.74" stroke-linecap="round" stroke-linejoin="round"/>
<path d="M11.2686 17.6289C12.1669 17.6289 13.9636 17.6289 13.9636 17.6289" stroke="white" stroke-width="0.74" stroke-linecap="round" stroke-linejoin="round"/>
<path d="M16.7177 9.76531L13.8477 9.69531" stroke="white" stroke-width="0.74" stroke-linecap="round" stroke-linejoin="round"/>
<path d="M20.8594 15.6439C20.9294 14.8972 20.8594 13.3105 20.8594 13.3105" stroke="white" stroke-width="0.74" stroke-linecap="round" stroke-linejoin="round"/>
</svg>
