<svg width="28" height="28" viewBox="0 0 28 28" fill="none" xmlns="http://www.w3.org/2000/svg">
<path d="M8.68058 12.5411C8.68058 12.2377 8.68058 12.0044 8.68058 11.8411V11.5494C8.68058 11.5494 8.68058 11.4561 8.68058 11.3744V11.1177C8.68058 11.0127 8.68058 10.9427 8.68058 10.8727C8.67777 10.8261 8.67777 10.7794 8.68058 10.7327V10.6044C8.67418 10.5619 8.67418 10.5186 8.68058 10.4761C8.68058 10.4761 8.68058 10.4177 8.75058 10.3827C8.78254 10.3448 8.81767 10.3097 8.85558 10.2777C8.94014 10.2064 9.03442 10.1475 9.13558 10.1027C9.23688 10.0545 9.3423 10.0155 9.45058 9.98607L9.69558 9.92773H10.2089H10.8622H14.8056H15.2489H15.7039C15.8074 9.945 15.909 9.97236 16.0072 10.0094L16.2406 10.0911L16.4506 10.2194L16.5906 10.3244L16.6722 10.4294L16.7772 10.6044C16.826 10.6836 16.8615 10.7704 16.8822 10.8611C16.919 10.9747 16.9425 11.0921 16.9522 11.2111C16.9522 11.3511 16.9522 11.4794 16.9522 11.5961C16.9522 11.7244 16.9522 11.8527 16.9522 12.0044C16.9522 12.1561 16.9522 12.2961 16.9522 12.4244C16.9522 12.5527 16.9522 12.7044 16.9522 12.8794C16.9522 13.0544 16.9522 13.2177 16.9522 13.3811C16.9522 13.5444 16.9522 13.7311 16.9522 13.9644V14.7344C16.9522 15.0261 16.9522 15.2827 16.9522 15.5161V16.5894C16.9522 16.7411 16.9522 16.9044 16.9522 17.0794C16.9357 17.2836 16.9045 17.4863 16.8589 17.6861C16.8253 17.8461 16.7662 17.9997 16.6839 18.1411C16.6276 18.2161 16.5652 18.2864 16.4972 18.3511C16.3883 18.4131 16.2753 18.4677 16.1589 18.5144L15.9606 18.5727H15.7039H15.2606H14.7122H14.2106H13.7906H13.2539H12.6822H9.99891C9.78267 18.6347 9.55884 18.6661 9.33391 18.6661C9.24798 18.6368 9.16576 18.5977 9.08891 18.5494C9.01101 18.4675 8.94786 18.3728 8.90224 18.2694C8.85383 18.1744 8.82225 18.0718 8.80891 17.9661C8.80255 17.8573 8.80255 17.7482 8.80891 17.6394C8.80891 17.5227 8.80891 17.3827 8.80891 17.2311C8.81605 17.0912 8.81605 16.951 8.80891 16.8111C8.80891 16.6827 8.80891 16.5661 8.80891 16.4377C8.80891 16.3094 8.80891 16.1694 8.80891 16.0411C8.80891 15.9127 8.80891 15.7961 8.80891 15.7377V15.2244" stroke="white" stroke-width="0.74" stroke-linecap="round" stroke-linejoin="round"/>
<path d="M12.0983 13.0078L11.9466 13.3461C11.865 13.5445 11.7716 13.7545 11.6783 13.9528C11.585 14.1511 11.515 14.3378 11.4566 14.4895C11.3983 14.6411 11.3516 14.7578 11.305 14.8511C11.2583 14.9445 11.2233 15.0728 11.1766 15.2245C11.13 15.3761 11.0366 15.5978 10.9316 15.9128" stroke="white" stroke-width="0.74" stroke-linecap="round" stroke-linejoin="round"/>
<path d="M12.0986 13.0078C12.1301 13.0681 12.1574 13.1305 12.1803 13.1945C12.1803 13.1945 12.2503 13.3461 12.3436 13.5561C12.437 13.7661 12.5186 13.9878 12.6003 14.2211C12.682 14.4545 12.7403 14.6061 12.7753 14.7228L12.857 14.9678C12.8743 15.0473 12.8977 15.1253 12.927 15.2011L12.9853 15.3995C12.9853 15.3995 12.9853 15.6328 13.137 15.9711" stroke="white" stroke-width="0.74" stroke-linecap="round" stroke-linejoin="round"/>
<path d="M14.9453 13.0312V13.4629C14.9453 13.6846 14.9453 14.0346 14.9453 14.5246V15.5979" stroke="white" stroke-width="0.74" stroke-linecap="round" stroke-linejoin="round"/>
<path d="M16.6836 23.8691C16.6836 24.0441 16.6836 24.1608 16.6836 24.1958C16.6922 24.2928 16.6922 24.3904 16.6836 24.4875C16.6836 24.6741 16.6836 24.9308 16.6836 25.2458" stroke="white" stroke-width="0.98" stroke-linecap="round" stroke-linejoin="round"/>
<path d="M22.9023 17.5586H23.159H24.0923" stroke="white" stroke-width="0.98" stroke-linecap="round" stroke-linejoin="round"/>
<path d="M23.0537 14.8395L24.0687 14.7578" stroke="white" stroke-width="0.98" stroke-linecap="round" stroke-linejoin="round"/>
<path d="M23.0537 12.4941H23.2287H23.5087H24.2087" stroke="white" stroke-width="0.98" stroke-linecap="round" stroke-linejoin="round"/>
<path d="M2.22852 12.3086H2.33352H3.50018" stroke="white" stroke-width="0.98" stroke-linecap="round" stroke-linejoin="round"/>
<path d="M2.25195 14.7578H3.50029" stroke="white" stroke-width="0.98" stroke-linecap="round" stroke-linejoin="round"/>
<path d="M2.04199 17.5H3.50033" stroke="white" stroke-width="0.98" stroke-linecap="round" stroke-linejoin="round"/>
<path d="M13.3115 23.9043C13.3115 24.0793 13.3115 24.196 13.3115 24.231C13.3115 24.266 13.3115 24.336 13.3115 24.5226C13.3115 24.7093 13.3115 24.966 13.3115 25.281" stroke="white" stroke-width="0.98" stroke-linecap="round" stroke-linejoin="round"/>
<path d="M9.5791 23.8008C9.5791 23.9874 9.5791 24.0924 9.5791 24.1391C9.5791 24.1858 9.5791 24.2441 9.5791 24.4191C9.5791 24.5941 9.5791 24.8624 9.5791 25.1891" stroke="white" stroke-width="0.98" stroke-linecap="round" stroke-linejoin="round"/>
<path d="M16.5898 3.5C16.5898 3.675 16.5898 3.79167 16.5898 3.82667C16.5898 3.86167 16.5898 3.93167 16.5898 4.11833C16.5898 4.305 16.5898 4.56167 16.5898 4.87667" stroke="white" stroke-width="0.98" stroke-linecap="round" stroke-linejoin="round"/>
<path d="M13.2188 3.5C13.2188 3.675 13.2188 3.79167 13.2188 3.82667C13.2188 3.86167 13.2188 3.93167 13.2188 4.11833C13.2188 4.305 13.2188 4.55 13.2188 4.87667" stroke="white" stroke-width="0.98" stroke-linecap="round" stroke-linejoin="round"/>
<path d="M9.33398 3.5C9.33398 3.675 9.33398 3.79167 9.33398 3.82667C9.33398 3.86167 9.33398 3.93167 9.33398 4.11833C9.33398 4.305 9.33398 4.55 9.33398 4.87667" stroke="white" stroke-width="0.98" stroke-linecap="round" stroke-linejoin="round"/>
<path d="M5.97363 8.94895C5.97363 10.209 6.07863 11.1656 6.07863 12.2973V17.9323C6.07863 18.784 5.9853 20.2656 6.74363 20.8956C7.50197 21.5256 9.22863 21.4556 10.2436 21.479C12.0986 21.5373 14.187 21.3856 15.1786 21.374C16.3485 21.4164 17.5199 21.354 18.6786 21.1873C20.1836 20.849 20.1603 19.3673 20.1953 18.049C20.2536 16.229 20.277 14.2806 20.1953 12.3673C20.1953 11.2706 20.1953 10.174 20.0786 9.07729C19.8686 7.24562 19.0403 7.35062 17.3486 7.23395C14.3251 7.02191 11.2891 7.06093 8.27197 7.35062C7.0003 7.47895 5.97363 7.75895 5.97363 8.94895Z" stroke="white" stroke-width="0.98" stroke-linecap="round" stroke-linejoin="round"/>
</svg>
