<svg width="28" height="28" viewBox="0 0 28 28" fill="none" xmlns="http://www.w3.org/2000/svg">
<path d="M6.21879 7.39648C6.21879 7.39648 5.05213 7.39648 4.76046 7.88648C4.51474 8.39412 4.40614 8.95721 4.44546 9.51982L4.31713 21.5598C4.24019 22.0773 4.26984 22.605 4.40426 23.1106C4.53868 23.6161 4.77503 24.0889 5.09879 24.4998C5.88058 25.0653 6.84852 25.3114 7.80546 25.1882C10.2788 25.1882 16.6021 25.1882 17.2671 25.0948C18.3288 24.9898 18.1305 23.2632 18.1305 23.2632" stroke="white" stroke-width="0.96" stroke-linecap="round" stroke-linejoin="round"/>
<path d="M8.34124 5.58927C8.34124 6.2776 8.25958 8.19094 8.24791 9.41594C8.24791 11.8543 8.24791 14.6426 8.24791 17.0926C8.1163 18.0929 8.34814 19.1072 8.90124 19.9509C9.35499 20.3396 9.88583 20.6278 10.4589 20.7967C11.0319 20.9656 11.6342 21.0114 12.2262 20.9309H19.3662C20.1956 21.0222 21.0289 20.7972 21.6996 20.3009C22.2231 19.6112 22.4613 18.7465 22.3646 17.8859L22.4929 7.24594C22.5814 6.62813 22.5421 5.99875 22.3775 5.39673C22.213 4.79471 21.9266 4.23286 21.5362 3.74594C20.6039 3.09977 19.4639 2.82515 18.3396 2.97594L10.9312 3.0926C10.2079 3.0926 9.06458 2.89427 8.59791 3.55927C8.36976 4.21017 8.28228 4.90207 8.34124 5.58927Z" stroke="white" stroke-width="0.96" stroke-linecap="round" stroke-linejoin="round"/>
<path d="M14.1631 6.47583L18.9698 6.3125" stroke="white" stroke-width="0.96" stroke-linecap="round" stroke-linejoin="round"/>
<path d="M11.8418 9.53211L18.8418 9.28711" stroke="white" stroke-width="0.96" stroke-linecap="round" stroke-linejoin="round"/>
<path d="M11.9463 12.6357L19.063 12.4141" stroke="white" stroke-width="0.96" stroke-linecap="round" stroke-linejoin="round"/>
<path d="M11.9583 7.19781C12.2869 7.19781 12.5533 6.93142 12.5533 6.60281C12.5533 6.2742 12.2869 6.00781 11.9583 6.00781C11.6297 6.00781 11.3633 6.2742 11.3633 6.60281C11.3633 6.93142 11.6297 7.19781 11.9583 7.19781Z" fill="white"/>
</svg>
