<svg width="100" height="100" viewBox="0 0 100 100" fill="none" xmlns="http://www.w3.org/2000/svg">
<path d="M59.7718 1.17188C59.7718 1.17188 69.9188 11.3222 50.1479 26.9306C37.8882 36.6125 42.427 43.0764 46.7839 49.2812C48.0614 51.1004 49.3232 52.8974 50.1413 54.7466C40.887 46.3969 34.0955 39.0467 38.6517 32.2057C40.8768 28.8646 44.4125 26.0961 47.9895 23.2953C55.1634 17.6781 62.5037 11.9306 59.7718 1.17188Z" fill="#BE3455"/>
<path d="M54.5418 47.8662C59.2523 53.2895 53.3041 58.1698 53.3041 58.1698C53.3041 58.1698 65.2649 51.9953 59.7718 44.2633C59.5515 43.9536 59.3333 43.6506 59.1193 43.3533C54.3501 36.7289 51.6221 32.9396 72.0058 21.1178C72.0058 21.1178 38.5741 29.4675 54.5418 47.8662Z" fill="#BE3455"/>
<path d="M37.0551 69.7625C30.6627 69.1013 34.8483 66.003 34.8483 66.003C18.3068 71.4932 44.0516 77.719 67.1656 70.9602C64.7087 70.0939 63.1463 68.5099 63.1463 68.5099C51.8499 70.6851 45.3216 70.6154 37.0551 69.7625Z" fill="#BE3455"/>
<path d="M39.8401 79.5994C33.4524 78.865 37.1843 76.6948 37.1843 76.6948C22.1687 80.8905 46.3176 89.5584 65.4349 81.3651C62.3037 80.1474 60.0616 78.7416 60.0616 78.7416C51.5337 80.3556 47.5787 80.4822 39.8401 79.5994Z" fill="#BE3455"/>
<path d="M76.7844 88.639C82.5875 86.8786 79.8259 84.6031 79.8259 84.6031C89.9362 89.1636 57.8611 98.3311 18.8832 92.01C4.59066 89.6932 25.7623 81.6033 29.6374 84.3331C29.6374 84.3331 28.4124 84.2465 26.2688 84.7113C24.2133 85.1527 17.679 87.2563 21.1635 88.7722C30.8566 92.9913 65.7497 91.9818 76.7844 88.639Z" fill="#BE3455"/>
<path d="M38.9789 54.9251C38.9789 54.9251 21.2301 59.1407 32.6936 60.6716C37.5339 61.3196 47.1828 61.173 56.1705 60.42C63.5158 59.8004 70.8914 58.483 70.8914 58.483C70.8914 58.483 68.3013 59.5922 66.4275 60.8716C48.4039 65.6119 13.5855 63.4067 23.6093 58.558C32.0864 54.4603 38.9789 54.9251 38.9789 54.9251Z" fill="#BE3455"/>
<path d="M74.7559 55.2847C80.6687 54.052 89.14 63.2014 70.8182 72.7221C70.7334 72.9488 70.4499 73.202 70.4499 73.202C94.9197 66.7692 85.9235 50.5276 74.226 54.64C73.1984 55.0049 72.6604 55.8477 72.6604 55.8477C72.6604 55.8477 73.3066 55.5863 74.7559 55.2847Z" fill="#BE3455"/>
<path d="M86.012 89.575C85.3724 97.8965 58.366 99.6469 40.7793 98.5211C29.3063 97.7854 27.0069 95.9467 26.9733 95.9198L26.9729 95.9195C37.9534 97.7299 56.4669 98.0597 71.4775 95.2349C84.7825 92.7296 86.012 89.575 86.012 89.575Z" fill="#BE3455"/>
</svg>
