<svg width="140" height="140" viewBox="0 0 140 140" fill="none" xmlns="http://www.w3.org/2000/svg">
<path fill-rule="evenodd" clip-rule="evenodd" d="M129.137 35.5903C130.129 37.3292 130.619 39.3553 130.62 41.6482C130.626 60.3787 130.626 97.8287 130.626 97.8287C130.625 100.072 130.155 102.058 129.208 103.771C128.234 105.531 126.754 107.005 124.753 108.163C117.965 112.077 111.174 115.985 104.384 119.893L104.373 119.899L104.364 119.904C95.0009 125.294 85.6376 130.683 76.2815 136.085C71.9269 138.599 67.7062 138.508 63.3834 135.957C59.5012 133.666 46.2202 126.033 34.1965 119.121C26.3128 114.59 18.9697 110.369 15.171 108.169C13.1691 107.01 11.6899 105.538 10.7153 103.776C9.76732 102.063 9.29782 100.076 9.29688 97.8339C9.29996 88.4687 9.29996 79.1037 9.29996 69.7387C9.29996 60.3738 9.29996 51.0089 9.30305 41.6439C9.304 37.0952 11.2261 33.5955 15.1763 31.3088C18.9872 29.1015 26.3653 24.8599 34.2776 20.3113L34.2785 20.3108C46.2802 13.4113 59.5107 5.80532 63.3853 3.52027C67.7062 0.971031 71.9269 0.87941 76.2801 3.39257C85.5055 8.71915 94.7377 14.0333 103.97 19.3475L103.974 19.3495C110.899 23.336 117.825 27.3224 124.747 31.314C126.704 32.4472 128.163 33.8804 129.137 35.5903ZM122.757 72.0021H127.373V67.3874H122.757V62.7722H118.141V67.3874H113.526V72.0021H118.141V76.6183H122.757V72.0021ZM110.532 72.0021H105.917V76.6183H101.302V72.0021H96.6868V67.3874H101.302V62.7722H105.917V67.3874H110.532V72.0021ZM69.9616 89.8021C77.4654 89.8021 84.0037 85.6783 87.4445 79.5762L104.955 89.7214C98.0122 101.853 84.9413 110.03 69.9616 110.03C55.0094 110.03 41.9589 101.886 35.0062 89.7898C31.6119 83.8848 29.6699 77.0389 29.6699 69.7387C29.6699 47.4867 47.7087 29.4475 69.9616 29.4475C84.8667 29.4475 97.8802 37.5423 104.85 49.5745L87.3139 59.6727C83.8385 53.697 77.3714 49.6757 69.9616 49.6757C58.8812 49.6757 49.8981 58.6583 49.8981 69.7387C49.8981 73.3622 50.8641 76.7588 52.5442 79.6925C56.0025 85.73 62.5037 89.8021 69.9616 89.8021Z" fill="white"/>
</svg>
