<svg width="140" height="140" viewBox="0 0 140 140" fill="none" xmlns="http://www.w3.org/2000/svg">
<path fill-rule="evenodd" clip-rule="evenodd" d="M55.9019 8.09433V1.81152H40.9198V20.1766H55.9019V13.8938H47.2026V8.09433H55.9019Z" fill="white"/>
<path fill-rule="evenodd" clip-rule="evenodd" d="M77.1667 1.81152H62.1847V8.26082L68.4363 13.8938H62.1847V20.1766H77.1667V14.0601L71.4832 8.09433H77.1667V1.81152Z" fill="white"/>
<path fill-rule="evenodd" clip-rule="evenodd" d="M98.9149 1.81152H83.9328V8.26082L89.9428 13.8938H83.9328V20.1766H98.9149V14.0601L92.9897 8.09433H98.9149V1.81152Z" fill="white"/>
<path fill-rule="evenodd" clip-rule="evenodd" d="M109.569 127.214L69.9422 138.188L30.4234 127.23L21.6172 28.5714H118.384L109.569 127.214ZM70.0822 48.0142H39.6242L40.6975 60.0966H70.0822V104.648L69.9886 104.662L56.4764 101.037L55.5937 91.3996H43.4327L45.1297 110.386L69.9859 117.26L70.0822 117.238V129.795L102.063 121.007L109.555 36.7878H70.0822V48.0142ZM41.7746 73.0344L42.8354 85.1168H70.0819V60.9325L41.7746 73.0344Z" fill="white"/>
<path d="M94.7738 110.36L70.0277 117.234V104.645L83.4618 100.901L84.805 85.104H70.0277V73.0216H98.0324L94.7738 110.36Z" fill="white"/>
<path d="M100.17 48.0016L99.1308 60.084L70.0277 73.0216V60.9197L71.9778 60.084H70.0277V48.0016H100.17Z" fill="white"/>
</svg>
