<svg width="140" height="140" viewBox="0 0 140 140" fill="none" xmlns="http://www.w3.org/2000/svg">
<path d="M109.131 39.3742L112.153 41.5616C117.407 45.7997 120.428 50.5847 121.085 56.0532C126.733 54.9595 133.958 55.7798 137.11 57.9672L140 59.7445L139.475 60.8382C138.555 62.8889 138.292 63.4357 138.161 63.7092C133.038 73.9626 122.924 74.0994 118.195 73.9626C106.242 103.903 80.7585 120.445 46.3433 120.445C30.4493 120.445 18.3645 115.387 10.2205 105.407C-0.550687 92.2822 -0.550687 75.1931 0.368803 69.7245L0.631515 68.6308H95.6017C100.593 68.6308 104.403 67.2637 106.242 66.17C104.271 63.1623 103.614 59.7445 103.483 57.8305C103.089 52.362 104.403 46.62 107.03 42.5186L109.131 39.3742ZM25.3264 52.2252V65.8966H10.8773V52.2252H25.3264ZM42.4027 52.2252V65.8966H27.9535V52.2252H42.4027ZM59.4789 52.2252V65.8966H45.0298V52.2252H59.4789ZM76.5552 52.2252V65.8966H62.106V52.2252H76.5552ZM93.6314 52.2252V65.8966H79.1823V52.2252H93.6314ZM76.5552 35.8197V49.491H62.106V35.8197H76.5552ZM59.4789 35.8197V49.491H45.0298V35.8197H59.4789ZM42.4027 35.8197V49.491H27.9535V35.8197H42.4027ZM76.5552 19.4141V33.0854H62.106V19.4141H76.5552Z" fill="white"/>
</svg>
