<svg width="186" height="186" viewBox="0 0 186 186" fill="none" xmlns="http://www.w3.org/2000/svg">
<g clip-path="url(#clip0_480_19179)">
<path d="M25.3633 149.735L26.4863 148.163L79.6109 47.3611L79.7231 46.294L56.3046 2.3059C54.3426 -1.3789 48.8191 -0.447254 48.1752 3.67759L25.3633 149.735Z" fill="white"/>
<path d="M26.0254 148.537L26.8749 146.881L79.4429 47.1352L56.083 2.96821C54.1416 -0.677973 49.2115 0.251515 48.5743 4.33314L26.0254 148.537Z" fill="white"/>
<path d="M96.795 79.5666L114.232 61.7087L96.7899 28.4121C95.1342 25.2604 90.5113 25.2513 88.8731 28.4121L79.5547 46.1841V47.6977L96.795 79.5666Z" fill="white"/>
<path d="M96.4834 78.8226L113.435 61.4614L96.4834 29.1823C94.8738 26.1183 90.9632 25.7972 89.3706 28.8702L80.0027 46.9175L79.7227 47.8401L96.4834 78.8226Z" fill="white"/>
<path d="M25.3633 149.736L25.8723 149.224L27.7219 148.472L95.6999 80.7467L96.5611 78.4022L79.6034 46.0879L25.3633 149.736Z" fill="white"/>
<path d="M98.9726 183.89L160.494 149.579L142.926 41.3805C142.376 37.9952 138.223 36.6569 135.8 39.0842L25.3633 149.735L86.532 183.887C90.3978 186.046 95.1058 186.047 98.9726 183.89Z" fill="white"/>
<path d="M159.942 149.291L142.507 41.914C141.962 38.5544 138.508 37.1642 136.104 39.5731L26.0449 149.525L86.5418 183.339C90.3782 185.481 95.0505 185.482 98.8879 183.342L159.942 149.291Z" fill="white"/>
<path d="M98.9726 182.88C95.1058 185.036 90.3978 185.035 86.532 182.877L25.856 149.215L25.3633 149.735L86.532 183.887C90.3978 186.046 95.1058 186.047 98.9726 183.89L160.494 149.579L160.343 148.652L98.9726 182.88Z" fill="white"/>
</g>
<defs>
<clipPath id="clip0_480_19179">
<rect width="185.507" height="185.507" fill="white"/>
</clipPath>
</defs>
</svg>
