<svg width="140" height="140" viewBox="0 0 140 140" fill="none" xmlns="http://www.w3.org/2000/svg">
<path fill-rule="evenodd" clip-rule="evenodd" d="M94.7514 110.389L97.7756 76.5021L98.0708 73.2541H53.991L52.8856 60.868H99.1325L99.414 58.1493L100.254 48.7723H39.6666L42.929 85.3495H84.8491L83.4452 101.037L69.9944 104.667L56.4726 101.044L55.6115 91.3975H43.4694L45.164 110.389L69.9409 117.268L94.7514 110.389Z" fill="white"/>
<path fill-rule="evenodd" clip-rule="evenodd" d="M30.6769 1.81152H36.8237V7.88455H42.4466V1.81152H48.5937V20.2022H42.4469V14.0439H36.824V20.2022H30.6772L30.6769 1.81152Z" fill="white"/>
<path fill-rule="evenodd" clip-rule="evenodd" d="M56.6769 7.91012H51.2656V1.81152H68.2381V7.91012H62.8243V20.2022H56.6772L56.6769 7.91012Z" fill="white"/>
<path fill-rule="evenodd" clip-rule="evenodd" d="M70.9318 1.81152H77.3412L81.2839 8.27344L85.2226 1.81152H91.6344V20.2022H85.5129V11.0867L81.2839 17.6256H81.1782L76.9462 11.0867V20.2022H70.9318V1.81152Z" fill="white"/>
<path fill-rule="evenodd" clip-rule="evenodd" d="M94.6936 1.81152H100.842V14.1233H109.486V20.2022H94.6936V1.81152Z" fill="white"/>
</svg>
