<svg width="186" height="186" viewBox="0 0 186 186" fill="none" xmlns="http://www.w3.org/2000/svg">
<path d="M110.881 2.17383C110.881 2.17383 129.704 21.0035 93.0279 49.9582C70.2853 67.9188 78.7052 79.9098 86.7875 91.4201C89.1573 94.7949 91.498 98.1284 93.0157 101.559C75.8482 86.0696 63.2495 72.4343 71.7017 59.7438C75.8294 53.5458 82.3883 48.4101 89.024 43.2143C102.332 32.794 115.949 22.132 110.881 2.17383Z" fill="white"/>
<path d="M101.179 88.7952C109.917 98.8558 98.883 107.909 98.883 107.909C98.883 107.909 121.071 96.4549 110.881 82.1116C110.472 81.537 110.068 80.9749 109.671 80.4234C100.823 68.1346 95.7626 61.1053 133.576 39.1749C133.576 39.1749 71.5577 54.6642 101.179 88.7952Z" fill="white"/>
<path d="M68.7398 129.414C56.8814 128.188 64.6461 122.44 64.6461 122.44C33.9604 132.625 81.7189 144.174 124.597 131.636C120.039 130.029 117.141 127.091 117.141 127.091C96.1852 131.126 84.0748 130.997 68.7398 129.414Z" fill="white"/>
<path d="M73.9063 147.663C62.0566 146.3 68.9795 142.274 68.9795 142.274C41.1244 150.058 85.9224 166.137 121.386 150.938C115.578 148.679 111.419 146.071 111.419 146.071C95.5987 149.065 88.2618 149.3 73.9063 147.663Z" fill="white"/>
<path d="M142.441 164.432C153.206 161.166 148.083 156.945 148.083 156.945C166.838 165.405 107.337 182.411 35.0297 170.685C8.51594 166.387 47.791 151.38 54.9795 156.444C54.9795 156.444 52.707 156.283 48.7304 157.146C44.9174 157.964 32.7958 161.867 39.2597 164.679C57.2412 172.505 121.97 170.633 142.441 164.432Z" fill="white"/>
<path d="M72.3087 101.89C72.3087 101.89 39.3833 109.71 60.649 112.55C69.628 113.752 87.5275 113.48 104.2 112.083C117.826 110.934 131.509 108.49 131.509 108.49C131.509 108.49 126.704 110.548 123.228 112.921C89.7926 121.715 25.2021 117.624 43.7969 108.629C59.5225 101.028 72.3087 101.89 72.3087 101.89Z" fill="white"/>
<path d="M138.678 102.557C149.646 100.27 165.361 117.243 131.373 134.905C131.216 135.325 130.69 135.795 130.69 135.795C176.083 123.862 159.394 93.7322 137.695 101.361C135.788 102.038 134.79 103.601 134.79 103.601C134.79 103.601 135.989 103.117 138.678 102.557Z" fill="white"/>
<path d="M159.558 166.168C158.372 181.605 108.273 184.852 75.6485 182.764C54.3653 181.399 50.0998 177.988 50.0373 177.938L50.0366 177.938C70.4063 181.296 104.75 181.908 132.596 176.668C157.278 172.02 159.558 166.168 159.558 166.168Z" fill="white"/>
</svg>
