<svg width="186" height="186" viewBox="0 0 186 186" fill="none" xmlns="http://www.w3.org/2000/svg">
<path fill-rule="evenodd" clip-rule="evenodd" d="M92.9183 182.997C90.4265 182.997 88.1008 182.333 85.9412 181.17L63.8471 168.046C60.5246 166.219 62.1859 165.554 63.1826 165.222C67.6679 163.727 68.4985 163.395 73.1499 160.737C73.6482 160.405 74.3127 160.571 74.8111 160.903L91.7555 171.036C92.42 171.369 93.2506 171.369 93.7489 171.036L160.031 132.662C160.696 132.33 161.028 131.666 161.028 130.835V54.2529C161.028 53.4223 160.696 52.7578 160.031 52.4256L93.7489 14.2176C93.0845 13.8854 92.2539 13.8854 91.7555 14.2176L25.473 52.4256C24.8085 52.7578 24.4763 53.5884 24.4763 54.2529V130.835C24.4763 131.499 24.8085 132.33 25.473 132.662L43.5802 143.128C53.3814 148.112 59.5279 142.297 59.5279 136.483V60.8978C59.5279 59.9011 60.3585 58.9043 61.5214 58.9043H69.9936C70.9903 58.9043 71.987 59.7349 71.987 60.8978V136.483C71.987 149.607 64.8438 157.248 52.3847 157.248C48.5639 157.248 45.5737 157.248 37.1015 153.095L19.6587 143.128C15.3396 140.636 12.6816 135.985 12.6816 131.001V54.419C12.6816 49.4354 15.3396 44.784 19.6587 42.2922L85.9412 3.9181C90.0943 1.5924 95.7424 1.5924 99.8954 3.9181L166.178 42.2922C170.497 44.784 173.155 49.4354 173.155 54.419V131.001C173.155 135.985 170.497 140.636 166.178 143.128L99.8954 181.502C97.7359 182.499 95.244 182.997 92.9183 182.997ZM113.351 130.337C84.28 130.337 78.2996 117.047 78.2996 105.751C78.2996 104.754 79.1303 103.757 80.2931 103.757H88.9314C89.9282 103.757 90.7588 104.422 90.7588 105.418C92.0877 114.223 95.9085 118.542 113.517 118.542C127.472 118.542 133.452 115.386 133.452 107.91C133.452 103.591 131.791 100.435 110.029 98.2751C91.9216 96.4478 80.6253 92.4609 80.6253 78.0083C80.6253 64.5525 91.9216 56.5786 110.859 56.5786C132.123 56.5786 142.589 63.888 143.918 79.8356C143.918 80.334 143.752 80.8324 143.419 81.3307C143.087 81.663 142.589 81.9952 142.09 81.9952H133.452C132.621 81.9952 131.791 81.3307 131.625 80.5001C129.631 71.3634 124.481 68.3733 110.859 68.3733C95.5763 68.3733 93.7489 73.6891 93.7489 77.6761C93.7489 82.4936 95.9085 83.9887 116.508 86.6466C136.941 89.3046 146.576 93.1254 146.576 107.412C146.409 122.031 134.449 130.337 113.351 130.337Z" fill="white"/>
</svg>
