<svg width="186" height="186" viewBox="0 0 186 186" fill="none" xmlns="http://www.w3.org/2000/svg">
<g clip-path="url(#clip0_480_19170)">
<path fill-rule="evenodd" clip-rule="evenodd" d="M125.698 102.748C118.474 102.748 111.997 105.948 107.562 110.987L96.1978 102.942C97.4042 99.6206 98.0969 96.0541 98.0969 92.3212C98.0969 88.6529 97.4283 85.1463 96.2617 81.8739L107.601 73.914C112.035 78.9274 118.495 82.1105 125.698 82.1105C139.031 82.1105 149.881 71.2629 149.881 57.9276C149.881 44.5922 139.031 33.7447 125.698 33.7447C112.364 33.7447 101.515 44.5922 101.515 57.9276C101.515 60.3144 101.875 62.6161 102.523 64.7958L91.1759 72.7598C86.4361 66.8797 79.6116 62.774 71.836 61.5208V47.8458C82.7902 45.5451 91.0438 35.8124 91.0438 24.1829C91.0438 10.8476 80.1945 0 66.8609 0C53.5274 0 42.678 10.8476 42.678 24.1829C42.678 35.6567 50.7179 45.2693 61.453 47.7343V61.5869C46.8024 64.1585 35.625 76.9444 35.625 92.3212C35.625 107.773 46.9131 120.606 61.6695 123.09V137.717C50.8246 140.101 42.678 149.772 42.678 161.324C42.678 174.66 53.5274 185.507 66.8609 185.507C80.1945 185.507 91.0438 174.66 91.0438 161.324C91.0438 149.772 82.8973 140.101 72.0524 137.717V123.089C79.675 121.806 86.3741 117.781 91.0653 112.032L102.506 120.129C101.87 122.289 101.515 124.568 101.515 126.931C101.515 140.266 112.364 151.114 125.698 151.114C139.031 151.114 149.881 140.266 149.881 126.931C149.881 113.595 139.031 102.748 125.698 102.748ZM125.698 46.2025C132.163 46.2025 137.422 51.4636 137.422 57.9276C137.422 64.3915 132.163 69.6521 125.698 69.6521C119.232 69.6521 113.973 64.3915 113.973 57.9276C113.973 51.4636 119.232 46.2025 125.698 46.2025ZM55.1359 24.1829C55.1359 17.719 60.3952 12.4583 66.8609 12.4583C73.3266 12.4583 78.5855 17.719 78.5855 24.1829C78.5855 30.6468 73.3266 35.9075 66.8609 35.9075C60.3952 35.9075 55.1359 30.6468 55.1359 24.1829ZM78.5855 161.324C78.5855 167.788 73.3266 173.049 66.8609 173.049C60.3952 173.049 55.1359 167.788 55.1359 161.324C55.1359 154.86 60.3952 149.6 66.8609 149.6C73.3266 149.6 78.5855 154.86 78.5855 161.324ZM66.8601 108.673C57.8423 108.673 50.5063 101.338 50.5063 92.3212C50.5063 83.3034 57.8423 75.9674 66.8601 75.9674C75.8773 75.9674 83.2133 83.3034 83.2133 92.3212C83.2133 101.338 75.8773 108.673 66.8601 108.673ZM125.698 138.656C119.232 138.656 113.973 133.395 113.973 126.931C113.973 120.467 119.232 115.206 125.698 115.206C132.163 115.206 137.422 120.467 137.422 126.931C137.422 133.395 132.163 138.656 125.698 138.656Z" fill="white"/>
</g>
<defs>
<clipPath id="clip0_480_19170">
<rect width="185.507" height="185.507" fill="white"/>
</clipPath>
</defs>
</svg>
