<svg width="186" height="186" viewBox="0 0 186 186" fill="none" xmlns="http://www.w3.org/2000/svg">
<g clip-path="url(#clip0_480_19182)">
<path fill-rule="evenodd" clip-rule="evenodd" d="M104.799 85.4771C102.651 84.281 100.144 83.5649 97.516 83.5649C94.7733 83.5649 92.2669 84.1591 90.1185 85.4771C87.9701 86.7951 86.1797 88.4636 84.9837 90.612C83.7876 92.8823 83.1933 95.3887 83.1933 98.1314C83.1933 100.874 83.7876 103.502 84.9837 105.651C86.1797 107.799 87.8482 109.589 90.1185 110.786C92.2669 111.982 94.7733 112.698 97.516 112.698C100.259 112.698 102.765 112.104 104.913 110.786C107.062 109.589 108.73 107.799 109.926 105.651C111.122 103.38 111.717 100.874 111.717 98.1314C111.717 95.3887 111.001 92.8823 109.805 90.612C108.624 88.4559 106.948 86.6656 104.799 85.4771ZM93.1125 90.231C94.3086 89.393 95.7409 89.0349 97.4093 89.0349C98.9635 89.0349 100.396 89.393 101.584 90.231C102.78 91.0691 103.733 92.1433 104.449 93.4536C105.165 94.8859 105.401 96.4401 105.401 98.2304C105.401 100.021 105.043 101.575 104.327 103.007C103.611 104.439 102.658 105.514 101.462 106.23C100.266 107.068 98.834 107.426 97.2874 107.426C95.7409 107.426 94.301 107.068 92.9906 106.23C91.7945 105.392 90.8422 104.318 90.1261 103.007C89.41 101.575 89.1738 100.021 89.1738 98.2304C89.1738 96.4401 89.5319 94.7716 90.248 93.4536C90.9641 92.0214 91.9164 90.9472 93.1125 90.231Z" fill="white"/>
<path d="M66.8442 92.3947L84.1532 73.8971H76.5119L60.0409 91.5643V74.019H53.9538V112.081H60.0409V93.6974L76.6338 112.081H84.3894L66.8442 92.3947Z" fill="white"/>
<path d="M118.17 77.2416H124.127V84.281H130.572V89.294H124.127V103.617C124.127 104.569 124.485 105.407 124.965 106.001C125.559 106.717 126.276 106.953 127.114 106.953H130.458V112.203H125.925C124.257 112.203 122.946 111.966 121.75 111.25C120.562 110.656 119.602 109.704 119.008 108.508C118.413 107.319 118.055 105.887 118.055 104.333V89.294H113.042V84.281H115.907C116.623 84.281 117.217 84.0449 117.575 83.6868C118.048 83.3287 118.17 82.7345 118.17 82.0184V77.2416Z" fill="white"/>
<path d="M141.086 72.4648H135.121V112.081H141.086V72.4648Z" fill="white"/>
<path d="M153.976 72.5867H147.889V78.7958H153.976V72.5867Z" fill="white"/>
<path d="M153.854 84.281H147.889V112.195H153.854V84.281Z" fill="white"/>
<path d="M180.717 84.9972C182.271 85.8276 183.46 87.1456 184.298 88.814C185.143 90.4901 185.616 92.3947 185.486 94.5355V111.959H179.521V95.2516C179.521 93.9412 179.285 92.7451 178.805 91.7928C178.332 90.8329 177.73 90.1244 176.778 89.5225C175.826 88.9207 174.866 88.6845 173.556 88.6845C172.123 88.6845 170.927 89.0426 169.853 89.6368C168.901 90.3529 168.063 91.1833 167.468 92.3794C166.867 93.5755 166.63 94.8859 166.63 96.4401V112.081H160.665V84.1668H166.394V88.4636C167.232 87.1456 168.306 85.9571 169.617 85.1191C171.285 84.1591 173.198 83.5649 175.346 83.5649C177.372 83.5649 179.163 84.0449 180.717 84.9972Z" fill="white"/>
<path d="M0 112.081H38.0769L19.0385 93.0422L38.0769 74.019H0V112.081Z" fill="white"/>
</g>
<defs>
<clipPath id="clip0_480_19182">
<rect width="185.507" height="185.507" fill="white"/>
</clipPath>
</defs>
</svg>
