<svg width="192" height="186" viewBox="0 0 192 186" fill="none" xmlns="http://www.w3.org/2000/svg">
<path d="M90.608 55.1503L89.4264 76.0191L89.3414 76.0617C89.2621 77.9286 87.7256 79.4194 85.8391 79.4194C85.0664 79.4194 84.3531 79.1712 83.7735 78.7478L83.7395 78.7648L66.6279 66.6345C71.887 61.4631 78.6138 57.6415 86.3662 55.8813C87.7823 55.5598 89.1978 55.3212 90.608 55.1503Z" fill="white"/>
<path d="M124.415 66.643C118.001 60.3618 109.63 56.2634 100.579 55.1503L101.761 75.9852L101.778 75.9937C101.808 76.7108 102.061 77.4212 102.543 78.0253C103.719 79.5 105.845 79.7735 107.354 78.6713L107.414 78.6968L124.415 66.643Z" fill="white"/>
<path d="M60.4224 74.4295L76.0465 88.4045L76.0295 88.4895C77.4397 89.7155 77.6477 91.8429 76.4715 93.3178C75.9897 93.922 75.3448 94.3272 74.6524 94.5164L74.6354 94.5844L54.6081 100.365C53.5887 91.044 55.7855 81.9835 60.4224 74.4295Z" fill="white"/>
<path d="M135.771 86.9594C134.725 82.4033 132.967 78.2007 130.646 74.438L115.107 88.345L115.115 88.3875C114.573 88.8584 114.173 89.4957 114.002 90.2491C113.582 92.0882 114.69 93.9217 116.492 94.4144L116.509 94.4994L136.639 100.297C137.065 95.9542 136.805 91.4608 135.771 86.9594Z" fill="white"/>
<path d="M92.3846 89.484H98.7855L102.764 94.4569L101.336 100.662L95.5893 103.425L89.8259 100.654L88.3978 94.4484L92.3846 89.484Z" fill="white"/>
<path d="M113.713 106.562C113.448 106.513 113.177 106.488 112.905 106.502C112.452 106.525 111.997 106.641 111.562 106.851C109.862 107.669 109.123 109.682 109.862 111.398L109.836 111.432L117.878 130.856C125.629 125.918 131.431 118.539 134.462 110.021L113.747 106.519L113.713 106.562Z" fill="white"/>
<path d="M78.1121 106.587C79.693 106.609 81.111 107.707 81.4784 109.316C81.6503 110.069 81.5666 110.816 81.2828 111.475L81.3423 111.552L73.3858 130.78C65.9469 126.006 60.0218 118.859 56.8522 110.089L77.3896 106.604L77.4236 106.647C77.6533 106.604 77.8863 106.584 78.1121 106.587Z" fill="white"/>
<path d="M97.1024 115.36C96.5713 115.104 96.0125 114.991 95.4618 115.011C94.2503 115.056 93.1011 115.732 92.4951 116.864H92.4781L82.3794 135.124C89.3683 137.505 97.0865 138.038 104.829 136.28C106.211 135.966 107.562 135.59 108.876 135.149L98.7515 116.856H98.675C98.3365 116.223 97.7986 115.695 97.1024 115.36Z" fill="white"/>
<path fill-rule="evenodd" clip-rule="evenodd" d="M23.5939 33.0071L90.0599 1.24893C91.5845 0.520549 93.2405 0.101493 94.9307 0.0163516C97.0567 -0.0911437 99.1758 0.332683 101.094 1.24893L167.568 32.9901C171.053 34.6543 173.584 37.8018 174.445 41.5416L190.868 112.878C191.729 116.62 190.825 120.547 188.411 123.547L142.423 180.755C140.009 183.751 136.352 185.493 132.486 185.49L58.7098 185.507C54.8423 185.508 51.1849 183.762 48.7726 180.764L2.76754 123.564C2.51034 123.241 2.2692 122.906 2.04499 122.561C0.17684 119.702 -0.445611 116.216 0.319375 112.895L16.717 41.5586C17.578 37.8188 20.1091 34.6713 23.5939 33.0071ZM91.611 28.7135C91.6108 26.2724 93.3922 24.2934 95.5893 24.2932C97.7864 24.293 99.5673 26.2724 99.5676 28.7135C99.568 28.8354 99.5707 28.972 99.5735 29.1118L99.5735 29.1127V29.1151C99.5785 29.3712 99.5837 29.6376 99.5761 29.8441C99.5415 30.7729 99.3962 31.5579 99.2482 32.357L99.2481 32.3576L99.2479 32.3592L99.2477 32.3605C99.1715 32.7717 99.0947 33.1866 99.032 33.6268L99.0065 33.838C98.6829 36.5203 98.4128 38.7592 98.5815 40.8438C98.7171 41.7676 99.2016 42.2093 99.6646 42.6314L99.6655 42.6323C99.7388 42.6991 99.8114 42.7653 99.8821 42.8329C99.8939 43.1213 99.9402 44.0795 99.9756 44.6096C112.625 45.7332 124.372 51.5176 133 60.5651L134.513 59.4856C134.532 59.4867 134.552 59.4879 134.572 59.4893C134.587 59.4904 134.602 59.4915 134.618 59.4926C134.65 59.495 134.684 59.4976 134.719 59.5003L134.72 59.5004C135.289 59.5441 136.248 59.6178 136.928 59.222C138.665 58.0524 140.251 56.4408 142.15 54.5115L142.291 54.3682C142.591 54.0504 142.864 53.7377 143.135 53.428L143.135 53.4276C143.676 52.8083 144.206 52.2009 144.918 51.5885C145.094 51.4371 145.335 51.2488 145.558 51.0748C145.643 51.0078 145.727 50.9428 145.802 50.883C147.71 49.3607 150.365 49.5225 151.736 51.24C153.106 52.9576 152.666 55.5831 150.758 57.1054C150.668 57.1775 150.57 57.2589 150.469 57.3423C150.266 57.5093 150.053 57.6847 149.882 57.8109C149.141 58.3585 148.438 58.7312 147.724 59.1095C147.346 59.3094 146.966 59.5109 146.576 59.7406L146.573 59.7424L146.572 59.7427C144.195 61.2113 142.223 62.429 140.659 63.8974C140.019 64.582 139.975 65.2352 139.933 65.8616C139.926 65.9584 139.92 66.0545 139.911 66.15C139.805 66.2476 139.569 66.458 139.308 66.6917C139.026 66.9435 138.714 67.2223 138.5 67.4166C141.929 72.5204 144.5 78.3134 145.955 84.6472C147.397 90.9227 147.621 97.1946 146.788 103.221L148.395 103.689C148.429 103.736 148.467 103.792 148.509 103.854C148.826 104.321 149.375 105.128 150.112 105.414C152.138 106.052 154.416 106.291 157.16 106.578L157.244 106.587C157.693 106.625 158.121 106.641 158.546 106.658C159.355 106.69 160.153 106.721 161.061 106.893C161.267 106.932 161.533 106.998 161.786 107.061L161.787 107.061C161.94 107.099 162.088 107.136 162.217 107.165C164.562 107.731 166.067 109.887 165.583 112.011C165.098 114.135 162.808 115.426 160.449 114.918C160.432 114.914 160.407 114.913 160.389 114.909C160.383 114.908 160.378 114.906 160.372 114.904L160.368 114.903L160.36 114.9L160.35 114.896C160.344 114.894 160.339 114.892 160.334 114.89C160.327 114.888 160.32 114.886 160.313 114.884C160.194 114.858 160.064 114.832 159.934 114.805C159.702 114.759 159.468 114.712 159.284 114.663C158.389 114.423 157.657 114.106 156.913 113.784L156.912 113.784C156.524 113.616 156.133 113.446 155.714 113.286L155.593 113.242C153.015 112.318 150.869 111.548 148.777 111.246C147.847 111.172 147.309 111.546 146.795 111.903L146.793 111.904L146.792 111.905L146.791 111.906C146.762 111.926 146.734 111.945 146.705 111.965C146.654 112.001 146.602 112.036 146.55 112.07C146.26 112.012 145.365 111.853 144.85 111.773C141.038 123.753 132.921 134.125 121.916 140.624C121.976 140.77 122.051 140.97 122.129 141.18L122.129 141.181C122.295 141.625 122.476 142.113 122.579 142.23C122.544 142.323 122.507 142.415 122.469 142.508C122.236 143.086 121.994 143.686 122.273 144.576C123.045 146.579 124.294 148.536 125.8 150.892C126.05 151.265 126.301 151.607 126.55 151.947C127.03 152.601 127.501 153.243 127.934 154.063C128.043 154.27 128.178 154.555 128.301 154.815L128.356 154.931C128.376 154.973 128.395 155.014 128.414 155.053C128.427 155.081 128.44 155.108 128.452 155.134C129.476 157.321 128.725 159.841 126.761 160.787C124.781 161.74 122.32 160.733 121.261 158.534C121.216 158.441 121.164 158.338 121.112 158.232C120.989 157.985 120.858 157.72 120.768 157.514C120.394 156.659 120.182 155.884 119.967 155.096L119.966 155.095L119.966 155.095C119.856 154.693 119.746 154.288 119.612 153.867L119.575 153.758C118.688 151.161 117.952 149.004 116.883 147.177C116.357 146.4 115.728 146.211 115.126 146.03C115.034 146.002 114.942 145.974 114.852 145.945C114.786 145.832 114.629 145.547 114.457 145.235L114.258 144.876C114.209 144.786 114.16 144.699 114.115 144.617C114.095 144.581 114.075 144.546 114.056 144.512C114.037 144.478 114.019 144.445 114.001 144.415C111.804 145.245 109.53 145.937 107.176 146.472C96.8529 148.816 86.5194 147.865 77.2875 144.321L76.3865 145.953C75.7158 146.133 75.0689 146.315 74.6721 146.788C73.6538 148.003 73.0655 149.734 72.4404 151.574C72.176 152.352 71.905 153.15 71.5922 153.935C71.4562 154.364 71.3448 154.776 71.2343 155.184C71.0229 155.965 70.8149 156.734 70.4446 157.582C70.3592 157.778 70.235 158.025 70.1168 158.261C70.0584 158.378 70.0016 158.491 69.9516 158.594C69.9505 158.596 69.9526 158.6 69.9516 158.602C69.9511 158.603 69.9504 158.604 69.9495 158.605C69.9488 158.605 69.9481 158.606 69.9473 158.606C69.9456 158.608 69.9439 158.609 69.9431 158.611C68.8814 160.803 66.4281 161.806 64.4517 160.855C62.4876 159.909 61.7376 157.39 62.7601 155.202C62.8152 155.088 62.8766 154.955 62.9401 154.818C63.0518 154.576 63.1697 154.321 63.2701 154.131C63.7053 153.307 64.1791 152.659 64.661 151.999C64.9078 151.661 65.1568 151.32 65.4038 150.952C66.9099 148.595 68.2325 146.482 69.0047 144.479C69.1987 143.815 68.9114 142.903 68.651 142.23L69.3735 140.496C58.784 134.221 50.4211 124.221 46.4305 111.849L44.6964 112.147C44.6438 112.117 44.5851 112.083 44.5212 112.046C44.0205 111.756 43.1964 111.277 42.4097 111.339C40.3165 111.642 38.1687 112.412 35.5873 113.338L35.4733 113.379C35.0612 113.537 34.6761 113.702 34.2946 113.866L34.294 113.867C33.5429 114.189 32.8054 114.506 31.903 114.748C31.6993 114.802 31.4332 114.858 31.1784 114.912L31.1778 114.912C31.073 114.935 30.9702 114.956 30.8745 114.977C30.8616 114.98 30.8495 114.985 30.8374 114.99C30.8245 114.995 30.8117 115 30.798 115.003C30.7905 115.004 30.7819 115.005 30.7732 115.006L30.7681 115.007C30.7576 115.008 30.747 115.009 30.7384 115.011C28.3795 115.52 26.0892 114.228 25.6041 112.104C25.1192 109.981 26.6255 107.825 28.9703 107.259C28.9791 107.257 28.9895 107.254 29 107.25C29.0051 107.249 29.0102 107.247 29.0151 107.246C29.0202 107.244 29.0252 107.243 29.0298 107.242C29.0351 107.241 29.0403 107.239 29.0454 107.238L29.0524 107.236L29.0581 107.235L29.0638 107.233C29.164 107.21 29.2724 107.183 29.3834 107.156L29.384 107.156L29.3848 107.156L29.3855 107.156C29.6431 107.093 29.9139 107.027 30.1264 106.987C31.0342 106.815 31.8312 106.783 32.6406 106.752C33.0653 106.735 33.4938 106.718 33.9432 106.681L34.0335 106.671L34.0339 106.671C36.7746 106.384 39.0505 106.145 41.0751 105.508C41.649 105.272 42.2007 104.547 42.6243 103.99L42.625 103.99L42.6853 103.91C42.719 103.866 42.7519 103.823 42.7838 103.782L44.4499 103.297C42.583 90.369 45.742 77.6805 52.5679 67.4081L51.2928 66.269C51.2902 66.2533 51.2877 66.237 51.285 66.22C51.2788 66.1797 51.2723 66.136 51.2653 66.0893L51.2647 66.0853L51.2646 66.0843C51.1821 65.5276 51.0378 64.5538 50.4938 63.9738C48.9292 62.5048 46.9567 61.2865 44.5774 59.8171C44.1902 59.5893 43.8141 59.3893 43.4413 59.191L43.4409 59.1908C42.7263 58.8108 42.0239 58.4373 41.2792 57.8874C41.1067 57.7601 40.8932 57.5844 40.6897 57.4169C40.6087 57.3503 40.5293 57.2849 40.4546 57.2244C40.4454 57.2172 40.4359 57.2108 40.4264 57.2043C40.4158 57.1972 40.4053 57.19 40.3951 57.1819C38.4864 55.6601 38.0479 53.0344 39.4175 51.3165C40.188 50.3502 41.3653 49.872 42.5882 49.9139C43.5394 49.9465 44.5244 50.2937 45.3594 50.9595C45.4329 51.0176 45.5136 51.0807 45.5971 51.1459L45.5975 51.1462C45.8221 51.3218 46.0667 51.5129 46.2435 51.665C46.9501 52.2729 47.4742 52.8759 48.0083 53.4904C48.2816 53.8047 48.5574 54.1221 48.8617 54.4447L48.9315 54.5156C50.8623 56.4766 52.4663 58.1059 54.2255 59.29C55.0365 59.7624 55.6841 59.6602 56.3051 59.5621C56.4001 59.5472 56.4945 59.5323 56.5887 59.5195C56.8172 59.6884 57.5859 60.2399 58.0253 60.5396C64.7965 53.3554 73.6902 48.0345 84.02 45.6891C86.4206 45.1441 88.824 44.7818 91.2115 44.584L91.305 42.9009C91.8347 42.3882 92.4288 41.6504 92.5971 40.8438C92.769 38.7194 92.4936 36.4349 92.162 33.6841L92.1551 33.6268C92.0922 33.1854 92.0152 32.7694 91.9389 32.3571C91.7909 31.558 91.6456 30.7729 91.611 29.8441C91.6037 29.647 91.6088 29.3984 91.6138 29.1549L91.6138 29.1544C91.6162 29.0412 91.6185 28.9292 91.6195 28.824C91.6191 28.8064 91.6172 28.7892 91.6153 28.7719L91.6141 28.7613L91.6132 28.7521L91.6126 28.7459C91.6117 28.7352 91.611 28.7244 91.611 28.7135Z" fill="white"/>
</svg>
