<svg width="189" height="186" viewBox="0 0 189 186" fill="none" xmlns="http://www.w3.org/2000/svg">
<path fill-rule="evenodd" clip-rule="evenodd" d="M149.518 91.6967C156.486 94.1347 159.969 98.3119 159.969 104.222C159.969 108.112 158.525 111.2 155.642 113.484C152.763 115.769 148.655 117.187 143.309 117.187C137.962 117.187 133.016 115.638 128.461 113.095C128.51 111.746 128.867 110.266 129.521 108.66C130.175 107.054 130.95 105.778 131.837 104.846C136.024 107.021 139.667 108.111 142.759 108.111C144.221 108.111 145.352 107.866 146.139 107.372C146.927 106.879 147.319 106.219 147.319 105.389C147.319 103.829 146.111 102.662 143.702 101.885L139.375 100.25C132.83 97.8647 129.557 93.9777 129.557 88.5783C129.557 84.6357 130.932 81.511 133.681 79.1993C136.431 76.8909 140.138 74.9034 144.798 74.9034C147.103 74.9034 149.642 75.2274 152.419 75.8756C155.194 76.5253 157.473 78.1256 159.254 79.0049C159.359 80.4584 159.067 82.054 158.39 83.7914C157.707 85.5304 156.871 86.7617 155.873 87.4886C151.471 85.5166 147.807 84.5306 144.872 84.5306C143.821 84.5306 143.03 84.7636 142.474 85.2327C141.925 85.7004 141.655 86.2957 141.655 87.0227C141.655 88.268 142.648 89.2525 144.641 89.9792L149.518 91.6967Z" stroke="white" stroke-width="2.89855"/>
<path fill-rule="evenodd" clip-rule="evenodd" d="M114.712 91.6967C121.681 94.1347 125.162 98.3119 125.162 104.222C125.162 108.112 123.717 111.2 120.84 113.484C117.957 115.769 113.848 117.187 108.503 117.187C103.161 117.187 98.2088 115.638 93.6551 113.095C93.7044 111.746 94.0609 110.266 94.7166 108.66C95.371 107.054 96.1424 105.778 97.0329 104.846C101.224 107.021 104.866 108.111 107.956 108.111C109.419 108.111 110.55 107.866 111.334 107.372C112.12 106.879 112.515 106.219 112.515 105.389C112.515 103.829 111.307 102.662 108.898 101.885L104.574 100.25C98.0267 97.8647 94.7523 93.9777 94.7523 88.5783C94.7523 84.6357 96.1273 81.511 98.88 79.1993C101.628 76.8909 105.333 74.9034 109.993 74.9034C112.297 74.9034 114.842 75.2274 117.613 75.8756C120.391 76.5253 122.667 78.1256 124.449 79.0049C124.554 80.4584 124.262 82.054 123.585 83.7914C122.904 85.5304 122.067 86.7617 121.07 87.4886C116.666 85.5166 113.002 84.5306 110.066 84.5306C109.017 84.5306 108.222 84.7636 107.67 85.2327C107.122 85.7004 106.849 86.2957 106.849 87.0227C106.849 88.268 107.844 89.2525 109.836 89.9792L114.712 91.6967Z" stroke="white" stroke-width="2.89855"/>
<path fill-rule="evenodd" clip-rule="evenodd" d="M89.3297 92.2459C89.3297 89.8603 88.9501 87.6552 88.1909 85.6305C87.4333 83.6061 86.3454 81.87 84.9318 80.4165C83.5167 78.9629 81.8024 77.8224 79.7871 76.9922C77.7686 76.1636 75.5034 74.9136 72.9897 74.9136C70.0036 74.9136 67.3976 76.2655 65.1725 77.3039C62.9474 78.341 61.1141 79.7667 59.6743 81.583C58.2315 83.4005 57.1575 85.5395 56.4508 88.0037C55.744 90.4681 55.3906 93.1529 55.3906 96.0571C55.3906 99.0631 55.6776 101.844 56.2548 104.385C56.8303 106.923 57.8131 109.127 59.2006 110.997C60.5893 112.864 62.3962 114.317 64.6229 115.352C66.8496 116.389 69.6132 117.185 72.9124 117.185C78.9875 117.185 84.1199 115.426 88.3108 112.471C87.8957 109.465 86.8249 107.075 85.1044 105.311C82.9641 106.115 81.0706 106.69 79.4288 107.044C77.7855 107.393 76.3365 107.569 75.0851 107.569C72.5806 107.569 70.7783 106.931 69.6844 105.644C68.5916 104.362 67.9922 102.845 67.886 100.541H88.3139C88.9887 98.3596 89.3297 95.4108 89.3297 92.2459ZM67.8082 92.7846C67.9639 90.1366 68.4471 87.3035 69.2511 86.137C70.0566 84.969 71.2895 84.3856 72.9544 84.3856C74.6689 84.3856 75.9557 85.006 76.8121 86.2513C77.6702 87.4966 78.0989 90.0056 78.0989 91.9251L78.1005 92.7846H67.8082Z" stroke="white" stroke-width="2.89855"/>
<path fill-rule="evenodd" clip-rule="evenodd" d="M181.522 97.9616C179.301 99.9012 178.013 102.693 178.013 106.342V119.934C178.013 124.452 176.624 127.888 173.487 130.251C170.353 132.61 166.699 133.778 162.528 133.891L160.056 133.872V127.1C162.235 126.464 163.13 125.725 163.997 124.885C165.568 123.466 166.771 121.156 166.771 117.948V106.975C166.83 103.245 167.117 100.323 168.475 98.2115C169.838 96.1005 172.49 94.255 176.432 92.661C172.078 90.6674 169.154 88.064 167.663 84.8529C166.787 82.9457 166.77 80.3718 166.77 77.1343V67.0718C166.77 63.7479 165.682 61.4196 164.344 60.0908C163.474 59.2236 162.461 58.5308 160.053 58.0078V51.6501C162.998 51.681 164.486 51.6472 166.202 51.6501C168.844 51.6286 171.056 53.073 172.982 54.5773C175.079 56.2269 176.57 58.4568 177.443 61.2635C177.94 62.8853 178.011 64.4347 178.011 65.9098V77.5478C178.011 81.6585 179.225 84.714 181.301 86.7091C182.471 87.8665 184.122 88.9249 186.956 89.8803V95.1376C184.445 95.8321 182.867 96.7733 181.522 97.9616Z" stroke="white" stroke-width="2.89855"/>
<path fill-rule="evenodd" clip-rule="evenodd" d="M25.2635 51.6536V51.6627C24.4195 51.6581 23.6555 51.655 23.0446 51.6565C20.4013 51.6334 18.1886 53.0778 16.2645 54.5837C14.1643 56.2333 12.3667 58.386 11.8036 61.2699C11.4826 62.9612 11.5505 64.4394 11.5505 65.9162V77.5542C11.5505 81.6635 10.0213 84.7173 7.94737 86.7157C6.77912 87.8729 4.28543 88.9297 1.44922 89.8849V95.1421C3.9629 95.835 6.38265 96.7731 7.72498 97.9645C9.94699 99.9057 11.5486 102.699 11.5486 106.348V119.939C11.5486 124.455 12.6258 127.894 15.7597 130.253C18.8938 132.611 22.5462 133.784 26.7172 133.898L29.5086 133.879V127.102C27.3312 126.465 26.1216 125.726 25.2497 124.889C23.6803 123.468 22.7915 121.16 22.7915 117.953V106.979C22.7314 103.246 22.1296 100.327 20.7702 98.214C19.4108 96.1061 16.7582 94.2575 12.8109 92.665C17.1672 90.6699 20.0898 88.0681 21.5804 84.8585C22.4585 82.9497 22.7917 80.3759 22.7917 77.1386V67.0761C22.7917 63.7522 23.5631 61.4238 24.8996 60.0937C25.6248 59.3716 26.9148 58.7774 28.7065 58.2961L31.5396 58.3159C31.5396 55.8774 31.5396 54.3509 31.5396 51.653H25.2639V51.6536H25.2635Z" stroke="white" stroke-width="2.89855"/>
<path fill-rule="evenodd" clip-rule="evenodd" d="M51.3836 106.794H49.2619C46.9551 106.794 46.0863 105.581 46.0863 103.145V58.366C46.0863 55.6734 45.3087 53.783 44.3132 52.6938C43.3178 51.6074 41.5897 51.6183 39.1284 51.6183H34.337L33.7723 51.6074L33.7677 105.311C33.7677 109.049 34.6072 111.783 36.1007 113.524C37.5959 115.261 40.122 116.128 43.6834 116.128C46.1463 116.128 48.9485 115.869 52.0902 115.349C52.2476 114.824 52.3264 113.701 52.3264 111.977C52.3264 110.249 52.0118 108.526 51.3836 106.794Z" stroke="white" stroke-width="2.89855"/>
</svg>
