<svg width="186" height="186" viewBox="0 0 186 186" fill="none" xmlns="http://www.w3.org/2000/svg">
<path d="M86.6788 0.0499207C86.2799 0.0861826 85.0106 0.2131 83.8681 0.303754C57.5199 2.67891 32.84 16.8936 17.2088 38.7414C8.50468 50.8892 2.93765 64.6688 0.834148 79.2642C0.0906683 84.359 0 85.8639 0 92.7718C0 99.6797 0.0906683 101.185 0.834148 106.279C5.8753 141.109 30.664 170.372 64.2838 181.215C70.3042 183.155 76.6509 184.478 83.8681 185.276C86.6788 185.584 98.8284 185.584 101.639 185.276C114.097 183.898 124.651 180.816 135.059 175.503C136.655 174.688 136.963 174.47 136.746 174.289C136.601 174.18 129.801 165.06 121.641 154.036L106.807 134.002L88.2202 106.497C77.9928 91.3757 69.5788 79.0104 69.5063 79.0104C69.4337 78.9922 69.3612 91.2125 69.3249 106.134C69.2705 132.261 69.2524 133.313 68.926 133.929C68.4545 134.818 68.0919 135.18 67.3302 135.579C66.75 135.869 66.2422 135.924 63.504 135.924H60.3669L59.5328 135.398C58.9888 135.053 58.5898 134.6 58.3178 134.074L57.937 133.258L57.9733 96.9056L58.0277 60.5349L58.5898 59.8278C58.88 59.447 59.4965 58.9575 59.9317 58.7218C60.6752 58.3592 60.9653 58.3229 64.1025 58.3229C67.8017 58.3229 68.4183 58.468 69.3793 59.5196C69.6514 59.8097 79.7155 74.9671 91.7563 93.2251C103.797 111.483 120.262 136.413 128.35 148.651L143.038 170.898L143.782 170.409C150.364 166.13 157.328 160.038 162.84 153.692C174.573 140.221 182.134 123.794 184.673 106.279C185.417 101.185 185.507 99.6797 185.507 92.7718C185.507 85.8639 185.417 84.359 184.673 79.2642C179.632 44.4346 154.843 15.1712 121.223 4.32883C115.294 2.40695 108.983 1.08339 101.911 0.285623C100.17 0.104314 88.1839 -0.0951272 86.6788 0.0499207ZM124.651 56.1472C125.521 56.5823 126.228 57.4164 126.482 58.2867C126.627 58.7581 126.664 68.8389 126.627 91.557L126.573 124.157L120.825 115.345L115.058 106.533V82.836C115.058 67.5153 115.131 58.9031 115.239 58.4861C115.529 57.4708 116.164 56.673 117.035 56.2016C117.778 55.8208 118.05 55.7846 120.897 55.7846C123.581 55.7846 124.052 55.8208 124.651 56.1472Z" fill="white"/>
</svg>
