<svg width="186" height="186" viewBox="0 0 186 186" fill="none" xmlns="http://www.w3.org/2000/svg">
<path d="M43.9343 92.7536C43.2929 92.7546 42.6576 92.6289 42.0648 92.3837C41.4721 92.1385 40.9337 91.7786 40.4805 91.3246C40.0273 90.8707 39.6683 90.3317 39.424 89.7386C39.1797 89.1455 39.055 88.51 39.057 87.8686V34.172C39.057 31.4744 41.2367 29.287 43.9343 29.287H62.2531C65.8087 29.287 69.1246 29.6451 72.201 30.3614C75.3443 31.0055 78.0573 32.1391 80.3401 33.7623C82.6796 35.3237 84.5217 37.4364 85.8667 40.1005C87.2064 42.6873 87.8763 45.8976 87.8763 49.7314C87.8763 53.4312 87.173 56.6441 85.7662 59.3701C84.4824 62.0154 82.5881 64.3176 80.2396 66.087C77.7972 67.8865 75.0352 69.2059 72.1005 69.9749C69.019 70.8251 65.7391 71.2477 62.2609 71.2425H58.7053C58.0632 71.2405 57.4271 71.3654 56.8335 71.6102C56.2399 71.855 55.7006 72.2147 55.2465 72.6688C54.7925 73.1228 54.4328 73.6621 54.188 74.2557C53.9432 74.8493 53.8182 75.4855 53.8203 76.1275V87.8763C53.8213 88.5178 53.6956 89.1531 53.4504 89.7458C53.2051 90.3385 52.8452 90.8769 52.3913 91.3301C51.9374 91.7833 51.3984 92.1424 50.8053 92.3867C50.2122 92.631 49.5767 92.7557 48.9353 92.7536H43.9343ZM53.8203 54.972C53.8203 57.6696 56.0077 59.857 58.7053 59.857H61.3565C69.3952 59.857 73.4145 56.4818 73.4145 49.7314C73.4145 46.4232 72.3736 44.0863 70.2918 42.7208C68.2821 41.3604 65.3037 40.6802 61.3565 40.6802H58.7053C58.0639 40.6782 57.4284 40.8029 56.8353 41.0472C56.2422 41.2914 55.7032 41.6505 55.2493 42.1037C54.7954 42.5569 54.4354 43.0953 54.1902 43.688C53.945 44.2807 53.8193 44.9161 53.8203 45.5575V54.972ZM102.516 156.213C101.875 156.214 101.24 156.088 100.648 155.843C100.056 155.599 99.518 155.239 99.0649 154.786C98.6118 154.333 98.2526 153.795 98.0078 153.203C97.7631 152.611 97.6376 151.976 97.6386 151.335V97.6386C97.6366 96.9972 97.7613 96.3617 98.0056 95.7686C98.2499 95.1755 98.609 94.6365 99.0622 94.1826C99.5154 93.7287 100.054 93.3688 100.646 93.1235C101.239 92.8783 101.875 92.7526 102.516 92.7536H119.544C122.945 92.7536 126.078 93.0113 128.943 93.5266C131.88 93.9903 134.415 94.8354 136.549 96.0618C138.682 97.2986 140.349 98.9217 141.55 100.931C142.817 102.941 143.451 105.471 143.451 108.522C143.451 109.954 143.219 111.382 142.756 112.804C142.35 114.251 141.668 115.606 140.746 116.792C138.703 119.526 135.756 121.443 132.429 122.203C132.377 122.215 132.331 122.245 132.299 122.287C132.267 122.33 132.25 122.382 132.251 122.435C132.251 122.551 132.329 122.651 132.444 122.667C137.015 123.527 140.483 125.14 142.848 127.505C145.25 129.901 146.45 133.243 146.45 137.53C146.45 140.777 145.816 143.567 144.549 145.901C143.277 148.243 141.461 150.245 139.254 151.737C136.793 153.311 134.087 154.463 131.246 155.146C128.032 155.883 124.743 156.244 121.445 156.22L102.516 156.213ZM112.34 113.376C112.34 116.073 114.528 118.253 117.225 118.253H118.848C122.445 118.253 125.045 117.573 126.647 116.213C128.25 114.852 129.049 112.938 129.043 110.47C129.043 108.135 128.211 106.481 126.547 105.507C124.949 104.466 122.414 103.946 118.941 103.946H117.225C116.583 103.944 115.947 104.069 115.353 104.314C114.76 104.558 114.22 104.918 113.766 105.372C113.312 105.826 112.953 106.365 112.708 106.959C112.463 107.553 112.338 108.189 112.34 108.831V113.376ZM112.34 140.143C112.34 142.841 114.528 145.02 117.225 145.02H120.24C128.113 145.02 132.05 142.166 132.05 136.456C132.05 133.673 131.081 131.664 129.144 130.427C127.284 129.19 124.316 128.572 120.24 128.572H117.225C116.583 128.57 115.947 128.695 115.353 128.94C114.76 129.184 114.22 129.544 113.766 129.998C113.312 130.452 112.953 130.992 112.708 131.585C112.463 132.179 112.338 132.815 112.34 133.457V140.143ZM10.7362 0C4.86184 0 0 4.86184 0 10.7362V116.174C0.0202126 119.016 1.1576 121.736 3.16645 123.746C5.1753 125.756 7.89435 126.896 10.7362 126.918H63.4589C64.0997 126.918 64.7342 126.791 65.326 126.546C65.9178 126.3 66.4553 125.94 66.9077 125.486C67.3601 125.032 67.7185 124.494 67.9623 123.901C68.2061 123.309 68.3305 122.674 68.3285 122.033C68.3285 120.741 67.8155 119.503 66.9022 118.59C65.989 117.676 64.7504 117.163 63.4589 117.163H10.7362C10.1333 117.163 9.77005 116.777 9.77005 116.174V10.744C9.77005 10.1411 10.1333 9.77778 10.7362 9.77778H116.174C116.777 9.77778 117.156 10.1411 117.156 10.744V63.4589C117.156 64.0991 117.282 64.7329 117.527 65.3242C117.772 65.9155 118.132 66.4527 118.585 66.905C119.038 67.3573 119.575 67.7158 120.167 67.9601C120.759 68.2043 121.393 68.3295 122.033 68.3285C122.674 68.3316 123.31 68.2079 123.903 67.9645C124.497 67.7212 125.037 67.3629 125.491 66.9105C125.946 66.458 126.307 65.9201 126.553 65.3278C126.799 64.7355 126.926 64.1004 126.926 63.4589V10.7362C126.903 7.89568 125.765 5.17778 123.756 3.16914C121.748 1.16051 119.03 0.0222323 116.189 0L10.7362 0ZM122.048 58.5739C121.406 58.5719 120.769 58.6971 120.175 58.9423C119.581 59.1876 119.041 59.548 118.587 60.0029C118.133 60.4577 117.773 60.998 117.529 61.5925C117.284 62.187 117.16 62.8239 117.163 63.4667C117.163 64.1068 117.29 64.7407 117.535 65.332C117.78 65.9233 118.139 66.4604 118.592 66.9127C119.045 67.365 119.583 67.7235 120.175 67.9678C120.766 68.212 121.4 68.3372 122.041 68.3362H174.771C175.374 68.3362 175.737 68.7227 175.737 69.3256V174.763C175.737 175.366 175.374 175.729 174.771 175.729H69.3333C68.7382 175.729 68.3517 175.366 68.3517 174.763V122.048C68.3517 121.408 68.2255 120.774 67.9803 120.183C67.7351 119.592 67.3757 119.055 66.9227 118.602C66.4697 118.15 65.932 117.791 65.3403 117.547C64.7486 117.303 64.1145 117.178 63.4744 117.179C62.833 117.176 62.1973 117.299 61.6038 117.543C61.0103 117.786 60.4707 118.144 60.0161 118.597C59.5615 119.049 59.2007 119.587 58.9545 120.179C58.7084 120.772 58.5816 121.407 58.5816 122.048V174.779C58.6059 177.618 59.7451 180.334 61.7535 182.341C63.7619 184.348 66.4787 185.485 69.3179 185.507H174.771C180.645 185.507 185.507 180.645 185.507 174.771V69.3333C185.487 66.4914 184.35 63.7716 182.341 61.7613C180.332 59.751 177.613 58.6116 174.771 58.5894L122.048 58.5739Z" fill="white"/>
</svg>
