<svg width="186" height="186" viewBox="0 0 186 186" fill="none" xmlns="http://www.w3.org/2000/svg">
<g clip-path="url(#clip0_480_19171)">
<path fill-rule="evenodd" clip-rule="evenodd" d="M179.457 111.123C178.375 107.848 175.542 105.566 171.878 105.019C170.151 104.761 168.172 104.871 165.831 105.353C161.751 106.195 158.723 106.516 156.514 106.578C164.853 92.4976 171.635 76.4405 175.539 61.3257C181.851 36.886 178.478 25.7521 174.536 20.7156C164.104 7.38609 148.884 0.224806 130.521 0.00528555C120.726 -0.114264 112.127 1.81977 107.641 3.2102C103.465 2.47375 98.9734 2.0622 94.261 1.98597C85.4289 1.84518 77.6245 3.77046 70.956 7.72766C67.2633 6.47968 61.3387 4.71977 54.4961 3.59634C38.4024 0.954181 25.4319 3.01318 15.9446 9.71543C4.45624 17.8306 -0.869733 31.9299 0.115402 51.6222C0.427813 57.8746 3.92556 76.897 9.43232 94.9381C12.5973 105.307 15.9721 113.919 19.4632 120.534C24.4139 129.915 29.7111 135.44 35.6582 137.423C38.9918 138.534 45.048 139.312 51.4182 134.007C52.2255 134.985 53.3023 135.956 54.7323 136.859C56.5476 138.004 58.7678 138.939 60.9847 139.494C68.9753 141.492 76.4598 140.992 82.8451 138.192C82.8842 139.328 82.9146 140.413 82.9405 141.349C82.983 142.869 83.0246 144.359 83.0804 145.753C83.4587 155.176 84.0997 162.503 85.9992 167.629C86.1033 167.911 86.2437 168.34 86.392 168.796C87.3392 171.697 88.9242 176.554 92.9551 180.359C97.1302 184.299 102.18 185.508 106.804 185.507C109.123 185.507 111.337 185.203 113.277 184.787C120.196 183.305 128.054 181.045 133.738 172.952C139.112 165.3 141.725 153.776 142.198 135.617C142.259 135.104 142.316 134.613 142.37 134.146C142.407 133.831 142.444 133.508 142.482 133.187L143.749 133.298L144.075 133.32C151.122 133.641 159.739 132.147 165.03 129.689C169.212 127.748 182.612 120.674 179.457 111.123ZM75.9361 57.1817C74.0483 56.9189 72.338 57.1621 71.4728 57.8169C70.9858 58.1856 70.8355 58.6125 70.7951 58.9066C70.6863 59.6852 71.232 60.5457 71.5669 60.9898C72.515 62.2465 73.9004 63.1104 75.2717 63.3008C75.4704 63.3283 75.6678 63.3416 75.8644 63.3416C78.1513 63.3416 80.2299 61.5613 80.4131 60.2471C80.6422 58.6013 78.2529 57.5041 75.9361 57.1817ZM138.489 57.2339H138.489C138.309 55.9439 136.013 55.5761 133.834 55.8789C131.659 56.1821 129.549 57.1639 129.725 58.4569C129.867 59.4624 131.682 61.179 133.831 61.1786C134.013 61.1786 134.196 61.1665 134.38 61.1407C135.815 60.942 136.868 60.031 137.367 59.5058C138.129 58.706 138.57 57.8138 138.489 57.2339ZM174.379 112.489C173.58 110.073 171.009 109.296 166.736 110.178C154.051 112.796 149.508 110.983 148.016 109.884C157.877 94.8627 165.988 76.7058 170.364 59.7644C172.437 51.7396 173.582 44.2871 173.675 38.213C173.779 31.5449 172.644 26.6459 170.301 23.653C160.859 11.5873 147 5.11541 130.225 4.93754C118.692 4.808 108.948 7.75965 107.059 8.58942C103.081 7.60012 98.7447 6.99279 94.0239 6.91531C85.366 6.77535 77.8827 8.84809 71.6866 13.0727C68.9953 12.0713 62.0398 9.68369 53.5343 8.31366C38.8285 5.94559 27.1431 7.73966 18.8038 13.6476C8.85329 20.6972 4.2596 33.2986 5.14977 51.101C5.44926 57.091 8.86162 75.5161 14.2476 93.1619C21.3368 116.387 29.0425 129.534 37.151 132.239C38.0999 132.555 39.1946 132.777 40.4009 132.777C43.3588 132.777 46.9849 131.443 50.758 126.908C57.0249 119.368 62.8762 113.05 65.0331 110.755C68.2205 112.466 71.7216 113.421 75.3035 113.517C75.3097 113.611 75.3193 113.704 75.3276 113.798C74.6091 114.65 74.0197 115.397 73.5173 116.035C71.0359 119.184 70.5194 119.84 62.5317 121.485C60.2598 121.954 54.2245 123.197 54.1366 127.428C54.0404 132.049 61.2696 133.99 62.0935 134.196C64.9639 134.915 67.729 135.269 70.3661 135.269C76.7801 135.269 82.4239 133.161 86.9347 129.082C86.7956 145.559 87.4829 161.795 89.4611 166.742C91.081 170.791 95.0395 180.688 107.543 180.687C109.377 180.687 111.397 180.474 113.618 179.998C126.667 177.2 132.333 171.433 134.526 158.718C135.699 151.923 137.712 135.696 138.658 126.992C140.656 127.615 143.229 127.901 146.01 127.9C151.81 127.9 158.502 126.668 162.699 124.72C167.414 122.531 175.922 117.157 174.379 112.489ZM143.305 53.6731C143.261 56.2428 142.908 58.5755 142.533 61.0106C142.13 63.6294 141.712 66.337 141.607 69.624C141.504 72.8226 141.903 76.1484 142.29 79.3641C143.07 85.8597 143.871 92.5474 140.77 99.1464C140.288 98.2904 139.823 97.3565 139.396 96.3222C139.011 95.3879 138.174 93.887 137.016 91.8097C132.507 83.7245 121.949 64.7908 127.354 57.0647C128.963 54.7645 133.049 52.4006 143.305 53.6731ZM130.874 10.141C145.905 10.473 157.794 16.096 166.213 26.8529C172.669 35.1039 165.559 72.6473 144.977 105.036C144.774 104.778 144.567 104.517 144.353 104.25C144.268 104.142 144.18 104.034 144.093 103.924C149.411 95.1401 148.371 86.4496 147.445 78.7443C147.065 75.5823 146.706 72.5957 146.797 69.7906C146.892 66.8165 147.285 64.2668 147.665 61.8008C148.133 58.7617 148.608 55.6176 148.477 51.9108C148.575 51.5221 148.614 51.0627 148.563 50.5174C148.228 46.9626 144.17 36.3252 135.898 26.6959C131.374 21.4299 124.776 15.5362 115.767 11.561C119.642 10.7579 124.941 10.009 130.874 10.141ZM46.7654 123.588C42.6087 128.586 39.7378 127.628 38.7939 127.314C32.6428 125.262 25.5061 112.262 19.2137 91.6462C13.769 73.8084 10.587 55.8715 10.3354 50.8416C9.54022 34.9345 13.3962 23.8481 21.7967 17.8906C35.4678 8.1955 57.9447 13.9984 66.9763 16.9418C66.8463 17.0696 66.7114 17.1896 66.5827 17.3196C51.7623 32.2874 52.1139 57.8601 52.1501 59.4229C52.1489 60.0261 52.1993 60.88 52.2688 62.0547C52.5238 66.3555 52.9982 74.3607 51.7307 83.4265C50.5523 91.8508 53.149 100.096 58.854 106.049C59.4447 106.665 60.0612 107.243 60.6981 107.788C58.1584 110.507 52.6396 116.521 46.7654 123.588ZM62.6038 102.456C58.0055 97.6588 55.9173 90.9853 56.8737 84.1456C58.2125 74.5688 57.7181 66.2282 57.4527 61.7474C57.4157 61.1205 57.3827 60.5711 57.3632 60.1375C59.5284 58.218 69.5618 52.8416 76.7168 54.4812C79.9825 55.2293 81.9715 57.4524 82.7988 61.2771C87.0801 81.0769 83.3657 89.3295 80.3812 95.961C79.7659 97.3273 79.1848 98.6186 78.6883 99.9548L78.3038 100.987C77.33 103.599 76.424 106.026 75.8625 108.332C70.9747 108.317 66.2194 106.229 62.6038 102.456ZM63.3535 129.159C61.9264 128.802 60.6426 128.183 59.8895 127.669C60.5185 127.373 61.6381 126.971 63.5797 126.571C72.9766 124.636 74.4274 123.271 77.5965 119.247C78.3234 118.325 79.1469 117.279 80.2874 116.005C80.2878 116.004 80.2882 116.004 80.2886 116.003C81.9877 114.101 82.7646 114.424 84.1738 115.008C85.3159 115.481 86.4281 116.912 86.8792 118.488C87.0925 119.232 87.3325 120.644 86.5481 121.743C79.9279 131.012 70.2815 130.893 63.3535 129.159ZM112.53 174.921C101.035 177.384 96.9646 171.519 94.2825 164.813C92.5513 160.484 91.7007 140.964 92.3043 119.407C92.3122 119.12 92.2714 118.843 92.1922 118.582C92.1235 118.08 92.0177 117.571 91.8711 117.059C90.973 113.923 88.7857 111.299 86.1615 110.211C85.1189 109.779 83.2048 108.986 80.9051 109.575C81.3958 107.554 82.2463 105.272 83.1682 102.802L83.5551 101.762C83.9908 100.59 84.5369 99.3763 85.1151 98.0916C88.2384 91.1528 92.5159 81.6492 87.8735 60.1791C86.1344 52.1377 80.3277 48.2109 71.5248 49.1227C66.2472 49.6688 61.4194 51.7982 59.0113 53.0191C58.4935 53.2815 58.0199 53.5348 57.5776 53.7818C58.2495 45.6791 60.7891 30.5372 70.2881 20.957C76.2685 14.9254 84.2337 11.9467 93.9384 12.107C113.06 12.4203 125.322 22.2333 132.242 30.4105C138.205 37.4573 141.434 44.5553 142.723 48.3833C133.032 47.3982 126.441 49.3114 123.099 54.0879C115.83 64.4783 127.076 84.6459 132.481 94.3381C133.472 96.1147 134.327 97.6497 134.596 98.302C136.356 102.567 138.635 105.415 140.298 107.494C140.808 108.131 141.303 108.749 141.679 109.288C138.744 110.134 133.472 112.089 133.952 121.862C133.565 126.766 130.809 149.724 129.41 157.836C127.562 168.552 123.618 172.544 112.53 174.921ZM160.513 120.011C157.512 121.404 152.489 122.45 147.718 122.674C142.448 122.921 139.765 122.083 139.134 121.569C138.837 115.479 141.105 114.842 143.504 114.169C143.881 114.062 144.248 113.959 144.603 113.835C144.824 114.015 145.066 114.193 145.33 114.368C149.566 117.164 157.121 117.465 167.787 115.264C167.826 115.255 167.865 115.248 167.904 115.24C166.466 116.585 164.004 118.39 160.513 120.011Z" fill="white"/>
</g>
<defs>
<clipPath id="clip0_480_19171">
<rect width="185.507" height="185.507" fill="white"/>
</clipPath>
</defs>
</svg>
