<svg width="186" height="186" viewBox="0 0 186 186" fill="none" xmlns="http://www.w3.org/2000/svg">
<path fill-rule="evenodd" clip-rule="evenodd" d="M26.4343 180.854C26.4348 180.77 26.4348 180.77 26.4373 180.362C26.4408 179.797 26.4408 179.797 26.446 178.928C26.4553 177.359 26.4657 175.537 26.4769 173.483C26.5088 167.615 26.5408 161.068 26.5706 154.005C26.6558 133.824 26.7069 113.555 26.7069 94.5125C26.7069 84.7004 26.6227 76.1317 26.442 64.1423C25.8898 27.5091 26.1554 20.532 29.2131 13.9482C32.2848 7.33435 38.0518 5.65998 55.7053 5.65998H160.98L159.259 3.93941V125.527C159.259 129.258 159.3 132.478 159.397 137.901C159.773 158.804 159.311 164.747 155.937 170.256C151.991 176.699 143.495 179.511 126.399 179.511C116.746 179.511 105.39 179.489 92.6794 179.448C82.4553 179.414 71.6175 179.37 60.4653 179.317C51.5461 179.274 42.9333 179.228 34.9497 179.183C32.1554 179.167 29.6394 179.152 27.4419 179.139C26.6728 179.134 26.2233 179.131 25.424 179.127C24.8445 179.123 24.8445 179.123 24.7246 179.122L26.4343 180.854ZM22.9819 182.552L24.7025 182.563C24.8226 182.564 24.8226 182.564 25.4024 182.567C26.2019 182.572 26.6516 182.575 27.4208 182.58C29.6187 182.593 32.1351 182.608 34.9297 182.624C42.9144 182.669 51.5282 182.715 60.4486 182.758C71.6025 182.811 82.442 182.855 92.668 182.889C105.382 182.93 116.741 182.952 126.398 182.952C144.574 182.952 154.134 179.788 158.871 172.053C162.752 165.717 163.229 159.59 162.838 137.839C162.74 132.435 162.7 129.232 162.7 125.527V3.93932V2.21875H160.98H55.705C36.7758 2.21875 29.9451 4.20194 26.0918 12.4986C24.1658 16.6458 23.235 22.3874 22.8974 31.2578C22.6372 38.0942 22.6643 41.8618 23.0009 64.1941C23.1814 76.1677 23.2655 84.7208 23.2655 94.5124C23.2655 113.55 23.2144 133.814 23.1292 153.99C23.0994 161.052 23.0674 167.598 23.0355 173.464C23.0243 175.517 23.0139 177.339 23.0046 178.908C22.9994 179.776 22.9994 179.776 22.996 180.341C22.9934 180.748 22.9819 182.552 22.9819 182.552Z" fill="white"/>
<path fill-rule="evenodd" clip-rule="evenodd" d="M37.7422 139.344V165.905H44.5169V158.987L50.6823 165.152H61.0774L52.833 156.908C52.833 156.908 58.7643 156.812 59.2135 148.233C59.2135 140.363 53.275 139.344 46.4167 139.344H37.7422ZM44.8392 146.549H50.682V151.28H44.8392V146.549Z" fill="white"/>
<path fill-rule="evenodd" clip-rule="evenodd" d="M74.1624 139.452C70.4532 139.431 65.3086 139.775 65.3086 146.764V165.225H72.2626V160.708H79.0015V165.117H85.9913V145.761C85.9913 139.689 79.2461 139.452 75.632 139.452C75.1803 139.452 74.6923 139.455 74.1624 139.452ZM72.3703 146.119H78.8941V153.396H72.3703V146.119Z" fill="white"/>
<rect x="92.957" y="139.469" width="7.19558" height="25.4094" fill="white"/>
<path fill-rule="evenodd" clip-rule="evenodd" d="M107.686 139.806V165.215H125V158.469H114.769V139.693L107.686 139.806Z" fill="white"/>
<path fill-rule="evenodd" clip-rule="evenodd" d="M147.937 139.581V146.439H136.357V148.913H141.303C143.889 148.913 149.286 148.801 149.286 156.896C149.286 164.991 145.576 165.44 138.043 165.44H128.936V159.257H139.392C142.54 159.257 142.714 158.232 142.714 157.339C142.714 156.446 141.104 156.03 137.831 156.03C134.558 156.03 128.486 154.422 128.486 148.126C128.486 141.83 131.634 139.469 137.931 139.469C144.227 139.469 147.937 139.581 147.937 139.581V139.581Z" fill="white"/>
<path fill-rule="evenodd" clip-rule="evenodd" d="M44.0515 131.823H103.865C103.865 131.823 90.5979 101.691 93.9708 74.0334C97.3438 46.3754 119.155 33.7831 131.523 32.434C143.89 31.0848 150.636 38.7301 150.636 38.7301L153.334 34.6826C153.334 34.6826 135.57 16.6936 113.084 18.7174C90.5979 20.7411 75.0824 35.582 65.4134 53.571C55.7443 71.5599 50.1228 84.1522 46.3001 103.041C42.4775 121.929 44.0515 131.823 44.0515 131.823Z" fill="white"/>
<path fill-rule="evenodd" clip-rule="evenodd" d="M32.1324 101.691L43.8252 102.591L41.8014 114.284L30.7832 112.934L32.1324 101.691Z" fill="white"/>
<path fill-rule="evenodd" clip-rule="evenodd" d="M50.5724 76.9558L53.7205 68.1862L43.3768 64.1387L40.0039 73.5829L50.5724 76.9558Z" fill="white"/>
<path fill-rule="evenodd" clip-rule="evenodd" d="M65.1888 46.8244L71.26 39.6289L63.3899 34.457L57.0938 41.4277L65.1888 46.8244Z" fill="white"/>
<path fill-rule="evenodd" clip-rule="evenodd" d="M81.1543 18.9418L86.551 25.4628L93.9714 21.1904L88.5747 15.1191L81.1543 18.9418Z" fill="white"/>
<path fill-rule="evenodd" clip-rule="evenodd" d="M107.461 11.5215L108.81 18.0425L118.029 17.8176L117.13 11.9712L107.461 11.5215Z" fill="white"/>
<path fill-rule="evenodd" clip-rule="evenodd" d="M138.717 18.4922L138.492 22.5397L144.788 25.9126L146.137 23.8889L138.717 18.4922Z" fill="white"/>
<path fill-rule="evenodd" clip-rule="evenodd" d="M137.369 35.8066V39.1796L143.44 39.8542V37.1558L137.369 35.8066Z" fill="white"/>
<path fill-rule="evenodd" clip-rule="evenodd" d="M118.031 38.7303L120.954 44.127L125.227 40.754L124.327 37.1562L118.031 38.7303Z" fill="white"/>
<path fill-rule="evenodd" clip-rule="evenodd" d="M108.812 45.7012L113.309 52.447L110.611 57.1691L104.09 49.9735L108.812 45.7012Z" fill="white"/>
<path fill-rule="evenodd" clip-rule="evenodd" d="M99.8158 64.3633L96.8926 70.2097L104.538 76.7307L106.337 69.3102L99.8158 64.3633Z" fill="white"/>
<path fill-rule="evenodd" clip-rule="evenodd" d="M96.6685 84.8262L96.2188 92.6963L105.663 96.7439L105.213 89.3234L96.6685 84.8262Z" fill="white"/>
<path fill-rule="evenodd" clip-rule="evenodd" d="M99.3672 112.709L101.616 120.804L113.533 121.479L109.261 112.709H99.3672Z" fill="white"/>
</svg>
