<svg width="186" height="186" viewBox="0 0 186 186" fill="none" xmlns="http://www.w3.org/2000/svg">
<g clip-path="url(#clip0_480_19175)">
<path d="M152.524 63.6399C150.6 62.9775 148.606 62.3508 146.553 61.7581C146.89 60.3808 147.2 59.0214 147.475 57.6851C151.996 35.7423 149.04 18.065 138.947 12.2449C129.27 6.66417 113.443 12.483 97.4586 26.3936C95.9216 27.7313 94.3802 29.1475 92.8395 30.6318C91.8129 29.6498 90.7879 28.7008 89.7656 27.793C73.0136 12.9188 56.2222 6.65063 46.1396 12.4876C36.4713 18.0845 33.6081 34.7028 37.6772 55.4982C38.0701 57.5068 38.5294 59.558 39.0488 61.6435C36.6724 62.3181 34.3782 63.0373 32.183 63.8024C12.543 70.6497 0 81.3813 0 92.5126C0 104.009 13.4649 115.54 33.9215 122.532C35.5358 123.084 37.2109 123.606 38.9372 124.101C38.3769 126.357 37.8895 128.567 37.4804 130.723C33.6005 151.158 36.6305 167.383 46.273 172.945C56.2328 178.688 72.9482 172.785 89.2248 158.557C90.5112 157.432 91.8023 156.24 93.0957 154.99C94.7721 156.604 96.4459 158.132 98.1108 159.565C113.877 173.132 129.448 178.61 139.081 173.033C149.031 167.273 152.265 149.843 148.067 128.636C147.746 127.016 147.373 125.362 146.954 123.678C148.128 123.331 149.28 122.972 150.404 122.6C171.671 115.554 185.507 104.163 185.507 92.5126C185.507 81.341 172.56 70.5371 152.524 63.6399ZM147.912 115.078C146.897 115.413 145.856 115.738 144.796 116.053C142.448 108.62 139.28 100.717 135.402 92.5513C139.102 84.5802 142.148 76.7779 144.43 69.3937C146.328 69.9428 148.17 70.522 149.945 71.1332C167.111 77.0428 177.582 85.7802 177.582 92.5126C177.582 99.6839 166.274 108.993 147.912 115.078ZM140.293 130.175C142.149 139.552 142.414 148.031 141.184 154.658C140.08 160.614 137.858 164.584 135.11 166.175C129.264 169.559 116.762 165.16 103.279 153.557C101.733 152.227 100.177 150.807 98.6147 149.304C103.842 143.587 109.066 136.941 114.164 129.56C123.132 128.765 131.605 127.464 139.288 125.688C139.667 127.214 140.003 128.711 140.293 130.175ZM63.2436 165.59C57.5318 167.607 52.9826 167.665 50.2327 166.079C44.3812 162.704 41.9487 149.677 45.2668 132.201C45.6469 130.2 46.0993 128.144 46.6207 126.043C54.2199 127.723 62.6304 128.932 71.6198 129.661C76.7528 136.883 82.1278 143.522 87.5444 149.335C86.3609 150.477 85.1821 151.565 84.0099 152.59C76.8125 158.881 69.6 163.345 63.2436 165.59ZM36.4845 115.034C27.439 111.942 19.9689 107.924 14.8485 103.539C10.2474 99.5987 7.92448 95.6869 7.92448 92.5126C7.92448 85.7577 17.9953 77.1418 34.7916 71.2857C36.8296 70.5751 38.963 69.9055 41.177 69.2764C43.4983 76.8275 46.5434 84.7222 50.2182 92.7055C46.4959 100.807 43.4075 108.828 41.0634 116.467C39.485 116.014 37.9559 115.536 36.4845 115.034ZM45.4544 53.9763C41.9681 36.1593 44.2835 22.7188 50.1099 19.3462C56.316 15.7533 70.0395 20.876 84.5036 33.7191C85.4281 34.54 86.3563 35.3992 87.2872 36.2881C81.8973 42.0755 76.5715 48.6643 71.4841 55.8442C62.7595 56.6529 54.4081 57.9519 46.7296 59.6914C46.2469 57.7495 45.8193 55.8416 45.4544 53.9763ZM125.474 73.7351C123.638 70.5646 121.754 67.4689 119.833 64.4578C125.752 65.2061 131.422 66.1993 136.748 67.4148C135.149 72.5388 133.156 77.8963 130.811 83.3885C129.128 80.1939 127.348 76.9728 125.474 73.7351ZM92.8421 41.9517C96.4974 45.9118 100.158 50.3332 103.759 55.1303C100.13 54.959 96.4572 54.8698 92.7536 54.8698C89.0851 54.8698 85.439 54.957 81.8332 55.1254C85.4374 50.3728 89.1297 45.9574 92.8421 41.9517ZM60.0014 73.79C58.1678 76.9695 56.421 80.1731 54.7647 83.3826C52.457 77.9095 50.4827 72.5276 48.87 67.3309C54.1628 66.1465 59.8069 65.178 65.6881 64.444C63.7399 67.4828 61.8399 70.6012 60.0014 73.7893V73.79ZM65.8575 121.147C59.7811 120.469 54.0522 119.55 48.7607 118.398C50.3991 113.109 52.417 107.612 54.7736 102.021C56.4342 105.228 58.1879 108.433 60.0327 111.62H60.0331C61.9122 114.866 63.8591 118.046 65.8575 121.147ZM93.0614 143.632C89.3053 139.58 85.5589 135.097 81.8999 130.275C85.4519 130.414 89.0732 130.486 92.7536 130.486C96.5348 130.486 100.273 130.4 103.952 130.237C100.339 135.145 96.6919 139.635 93.0614 143.632ZM130.886 101.736C133.366 107.388 135.456 112.856 137.115 118.055C131.737 119.282 125.93 120.27 119.811 121.005C121.737 117.953 123.638 114.804 125.506 111.565C127.395 108.288 129.19 105.006 130.886 101.736ZM118.641 107.606C115.741 112.634 112.764 117.434 109.742 121.965C104.237 122.358 98.55 122.561 92.7536 122.561C86.9807 122.561 81.3653 122.382 75.958 122.031C72.8138 117.44 69.772 112.626 66.8907 107.649H66.8913C64.0176 102.686 61.3727 97.6803 58.9761 92.7028C61.372 87.7138 64.01 82.7027 66.8672 77.7481L66.8666 77.7491C69.7314 72.7812 72.7465 67.9906 75.8616 63.4293C81.3786 63.0122 87.0359 62.7946 92.7533 62.7946H92.7536C98.4968 62.7946 104.161 63.0139 109.677 63.4345C112.744 67.9626 115.739 72.7376 118.615 77.7061C121.524 82.7305 124.196 87.7082 126.612 92.5902C124.203 97.5561 121.537 102.584 118.641 107.606ZM134.989 19.1104C141.201 22.6928 143.617 37.1403 139.714 56.0856C139.465 57.2945 139.184 58.5258 138.88 59.7736C131.184 57.9978 122.826 56.6763 114.076 55.8554C108.979 48.5966 103.697 41.9976 98.3948 36.2845C99.8202 34.9131 101.244 33.6056 102.661 32.3716C116.357 20.453 129.157 15.7473 134.989 19.1104ZM92.7536 75.9475C101.902 75.9475 109.319 83.3638 109.319 92.5126C109.319 101.661 101.902 109.078 92.7536 109.078C83.6051 109.078 76.1885 101.661 76.1885 92.5126C76.1885 83.3638 83.6051 75.9475 92.7536 75.9475Z" fill="white"/>
</g>
<defs>
<clipPath id="clip0_480_19175">
<rect width="185.507" height="185.507" fill="white"/>
</clipPath>
</defs>
</svg>
