<svg width="186" height="186" viewBox="0 0 186 186" fill="none" xmlns="http://www.w3.org/2000/svg">
<path fill-rule="evenodd" clip-rule="evenodd" d="M9.31613 107.218C9.25125 107.242 9.18808 107.266 9.12663 107.29C-0.304263 110.983 -0.102582 114.141 9.49744 118.73C19.0975 123.316 72.3915 144.848 80.8147 148.872C89.2372 152.898 95.1603 152.953 105.822 147.393C116.484 141.835 166.565 121.242 176.232 116.205C185.899 111.166 185.538 108.322 176.115 104.868C176.105 104.865 176.095 104.861 176.085 104.857C166.06 110.028 116.431 130.439 105.823 135.971C95.1611 141.528 89.2378 141.475 80.815 137.448C72.3916 133.423 19.0958 111.893 9.49545 107.304C9.43532 107.276 9.37555 107.247 9.31613 107.218Z" fill="white"/>
<path fill-rule="evenodd" clip-rule="evenodd" d="M10.5887 77.0881C10.0244 77.3092 9.53471 77.501 9.12663 77.6607C-0.304263 81.3547 -0.102582 84.5137 9.49744 89.1014C19.0975 93.6884 72.3915 115.219 80.8147 119.243C89.2372 123.27 95.1603 123.324 105.822 117.766C116.484 112.206 166.565 91.615 176.232 86.5765V86.5758C185.899 81.5373 185.538 78.6925 176.115 75.2399C175.745 75.1044 175.313 74.9437 174.824 74.7598C162.467 80.7793 116.042 99.9154 105.823 105.244C95.1611 110.802 89.2378 110.748 80.815 106.721C72.6703 102.83 22.5735 82.5712 10.5887 77.0881Z" fill="white"/>
<path d="M181.88 127.835V127.836C181.88 128.125 181.705 128.711 180.658 129.653C179.763 130.459 178.391 131.38 176.438 132.443L175.565 132.908C170.794 135.395 155.934 141.771 140.83 148.263C125.806 154.719 110.546 161.288 105.152 164.101C99.9062 166.835 95.9777 168.107 92.4131 168.271C88.8732 168.433 85.5325 167.512 81.4404 165.556L81.4395 165.555C77.1817 163.521 61.695 157.109 46.1514 150.664C30.5454 144.193 14.8753 137.684 10.1201 135.412C7.75324 134.28 6.04504 133.282 4.94824 132.392C3.79776 131.458 3.62305 130.891 3.62305 130.664V116.807C4.94216 117.794 6.7102 118.791 8.87207 119.824C13.7171 122.14 29.4956 128.69 45.043 135.137C60.6516 141.609 76.0229 147.975 80.1895 149.966C84.5196 152.035 88.3525 153.154 92.5449 152.961C96.7127 152.769 101.077 151.289 106.492 148.466C111.761 145.719 126.874 139.211 141.973 132.722C156.991 126.267 172.005 119.827 176.901 117.275C178.952 116.207 180.625 115.2 181.883 114.23C181.882 119.204 181.88 126.712 181.88 127.835ZM181.88 98.4873V98.4883C181.88 98.7778 181.705 99.3633 180.658 100.306C179.763 101.111 178.391 102.032 176.438 103.096L175.565 103.561C170.794 106.047 155.934 112.424 140.83 118.915C125.806 125.372 110.546 131.94 105.152 134.753C99.9063 137.488 95.9777 138.759 92.4131 138.923C88.8731 139.086 85.5327 138.163 81.4404 136.207H81.4395C77.1818 134.173 61.6951 127.761 46.1514 121.315C30.5455 114.844 14.8753 108.337 10.1201 106.064C7.7532 104.933 6.04505 103.934 4.94824 103.044C3.79768 102.11 3.62305 101.543 3.62305 101.316V87.459C4.94209 88.4462 6.71039 89.4425 8.87207 90.4756C13.7171 92.791 29.4956 99.3421 45.043 105.789C60.6517 112.261 76.0231 118.627 80.1895 120.618C84.5196 122.688 88.3525 123.806 92.5449 123.613C96.7127 123.421 101.077 121.94 106.492 119.117C111.761 116.37 126.874 109.863 141.973 103.374C156.991 96.9195 172.005 90.4797 176.901 87.9277C178.952 86.8589 180.625 85.8524 181.883 84.8828C181.882 89.8567 181.88 97.3653 181.88 98.4873ZM181.88 67.6904V67.6914C181.88 67.9809 181.705 68.5665 180.658 69.5088C179.763 70.3146 178.391 71.2354 176.438 72.2988L175.565 72.7637C170.794 75.2506 155.934 81.6269 140.83 88.1182C126.745 94.1714 112.453 100.323 106.277 103.386L105.152 103.956C99.9063 106.691 95.9777 107.962 92.4131 108.126C88.8731 108.289 85.5326 107.367 81.4404 105.41H81.4395C77.1819 103.376 61.6952 96.964 46.1514 90.5186C31.5206 84.4517 16.8334 78.3529 11.1367 75.7422L10.1201 75.2676C7.75316 74.1359 6.04506 73.1372 4.94824 72.2471C3.79759 71.3132 3.62305 70.7466 3.62305 70.5195V56.6621C4.94209 57.6493 6.71041 58.6457 8.87207 59.6787C13.7171 61.9941 29.4956 68.5452 45.043 74.9922C60.6517 81.4646 76.0232 87.8303 80.1895 89.8213C84.5196 91.8907 88.3525 93.0093 92.5449 92.8164C96.7127 92.6246 101.077 91.1433 106.492 88.3203C111.761 85.5734 126.874 79.0661 141.973 72.5771C156.991 66.1227 172.005 59.6829 176.901 57.1309C178.952 56.0619 180.625 55.0546 181.883 54.085C181.882 59.0589 181.88 66.5685 181.88 67.6904Z" stroke="white" stroke-width="2.89855"/>
<path d="M136.213 55.5425L136.202 44.5926L150.063 50.0703L136.213 55.5425Z" fill="white"/>
<path fill-rule="evenodd" clip-rule="evenodd" d="M142.524 70.7655C157.198 64.4592 171.519 58.3052 176.232 55.8487C185.899 50.8102 185.538 47.9647 176.115 44.5142C171.42 42.794 156.697 37.0089 141.93 31.2059C127.068 25.3664 112.161 19.5087 107.38 17.7571C97.848 14.2648 93.9622 14.4092 82.7615 18.4279C72.3486 22.164 25.8236 40.3921 11.7415 45.9093L11.7358 45.9115C10.67 46.3291 9.7904 46.6737 9.12663 46.9336C-0.304263 50.6269 -0.102582 53.7865 9.49744 58.3743C14.4541 60.743 31.059 67.6281 47.1217 74.2884L47.1222 74.2886C62.1694 80.5279 76.741 86.5699 80.8147 88.5168C89.2372 92.5419 95.1603 92.5964 105.822 87.0385C111.285 84.1902 127.099 77.3944 142.521 70.7666L142.523 70.7657L142.524 70.7655ZM99.3163 39.6525L114.891 38.0354L102.814 33.5127L106.015 25.831L94.1701 29.7091L81.6062 24.7953L85.6324 32.2242L72.2126 37.0636L90.1972 38.68L95.8293 48.042L99.3163 39.6525ZM94.8989 78.738L65.8306 66.6817L107.484 60.2885L94.8989 78.738ZM76.8609 51.3281C76.8609 46.5625 66.8936 42.6985 54.598 42.6985C42.303 42.6985 32.335 46.5625 32.335 51.3281C32.335 56.0944 42.303 59.9578 54.598 59.9578C66.8936 59.9578 76.8609 56.0944 76.8609 51.3281ZM106.025 51.1168L133.298 40.3287L157.95 50.0705L133.319 59.8026L130.646 60.8488L106.025 51.1168Z" fill="white"/>
</svg>
