<svg width="186" height="186" viewBox="0 0 186 186" fill="none" xmlns="http://www.w3.org/2000/svg">
<mask id="path-1-inside-1_480_19180" fill="white">
<path fill-rule="evenodd" clip-rule="evenodd" d="M61.5209 113.515C58.5769 115.358 54.1412 118.345 50.7096 121.594C45.076 126.922 43.8971 134.313 46.869 136.039C49.6181 137.635 56.0361 135.736 60.6295 130.719C65.4502 125.451 67.4382 118.773 65.3849 111.193C65.1437 111.337 64.9069 111.481 64.6746 111.616L64.6796 111.626L64.3681 111.803C63.1696 112.519 62.1902 113.11 61.5209 113.515ZM144.253 111.123C142.585 114.752 142.502 115.92 143.008 116.283C145.428 115.413 149.431 113.315 149.463 107.692C149.468 106.85 149.282 105.947 148.985 105.003C146.398 107.297 144.907 109.699 144.253 111.123ZM170.218 100.149C163.753 99.3948 158.709 100.303 154.795 101.936C155.52 103.826 156.077 105.794 156.155 107.776C156.337 112.128 153.346 115.348 150.229 117.647C148.409 118.988 146.472 119.881 144.846 120.421C143.547 120.97 141.819 121.537 140.592 121.287C137.889 120.737 136.45 118.332 138.289 113.026C139.282 110.155 142.148 105.785 146.774 102.02C145.719 99.8468 144.544 97.6321 143.945 95.5974C142.765 91.5863 142.409 89.1617 142.409 89.1617C142.409 89.1617 138.596 97.0779 133.677 104.277C133.394 104.695 133.111 105.106 132.827 105.515C133.793 107.763 134.554 110.141 134.657 112.538C134.838 116.889 132.957 120.179 129.836 122.473C128.146 123.721 126.344 124.583 124.797 125.131C123.808 125.564 121.797 126.275 118.936 126.467C117.372 126.574 115.867 126.477 115.027 125.839C113.87 124.964 113.73 123.884 114.329 122.409C114.836 121.156 118.625 116.824 121.802 113.031C122.68 111.984 123.516 110.914 124.263 109.923L124.245 109.88C124.245 109.881 124.82 109.136 125.754 107.838C124.593 105.334 123.121 102.727 122.429 100.364C121.249 96.3525 120.892 93.9273 120.892 93.9273C120.892 93.9273 117.027 103.85 113.001 111.77C109.885 117.905 107.804 121.622 106.867 123.251L106.857 123.317C106.857 123.317 106.717 123.554 106.476 123.926L106.296 124.228L106.291 124.2C105.245 125.746 102.9 128.775 100.569 128.775C94.1693 128.775 96.5188 115.759 96.5188 115.759C96.5188 115.759 94.6479 120.58 92.539 124.717C90.8213 128.091 89.2562 130.949 85.8335 130.949C84.849 130.949 83.2883 130.921 81.9923 129.687C79.0527 126.89 76.805 119.788 77.2457 114.288C77.6218 109.611 78.3417 106.371 79.3262 103.668C77.5705 104.626 75.5413 105.763 73.4748 106.977L70.2977 108.852L70.4003 109.039C73.0284 114.13 73.7299 125.285 67.9988 133.848C62.2684 142.416 51.6007 147.628 41.2073 144.734C37.8536 143.798 32.7873 136.85 37.1571 127.165C41.0116 118.625 56.4163 110.551 60.476 108.536L61.5903 107.922C53.4963 100.829 33.2843 91.261 30.4517 76.5642C29.6526 72.427 31.5894 62.5331 43.7195 51.1594C53.9224 41.5958 68.1153 34.2706 81.2262 29.6026C103.253 21.7612 126.525 26.3867 130.106 40.4507C133.626 54.2821 121.645 70.8266 106.3 76.7741C92.5998 82.0837 81.2724 81.2417 76.6189 79.711C71.3291 77.9705 68.2268 74.475 67.4702 72.5018C67.1726 71.7295 66.661 70.4316 67.4702 69.9846C67.9665 69.71 68.166 69.7753 69.4943 71.2457C70.758 72.6419 75.8382 76.3886 85.4891 75.3037C110.814 72.4606 126.07 52.742 121.249 42.131C117.873 34.7036 98.3536 31.3526 73.9667 43.5316C44.1976 58.3959 42.5818 70.6497 42.3267 75.3037C41.6296 88.106 58.0929 94.8403 67.001 104.361L67.3442 104.739C69.0112 103.817 70.7719 102.845 72.4991 101.895C76.9906 99.4239 81.2262 97.1058 83.1997 96.026C86.3349 91.462 92.6966 86.4257 97.29 86.4257C104.632 86.4257 102.111 96.9949 102.111 96.9949C102.111 96.9949 102.259 96.5111 102.459 96.5066C102.668 96.5009 103.476 95.1142 105.743 95.9423C108.074 96.7989 107.544 98.4373 107.559 98.6047C107.587 98.93 104.805 108.326 103.649 114.353C103.095 117.229 103.416 119.324 103.579 119.324C103.806 119.324 104.271 118.593 104.703 117.807L104.693 117.783C104.693 117.783 105.018 117.188 105.562 116.117L105.669 115.894L105.673 115.904C106.315 114.647 107.215 112.799 108.255 110.51C110.294 106.01 118.072 88.6367 118.732 86.7148C119.391 84.793 119.735 82.8059 120.061 81.9537C120.381 81.1022 123.131 80.4599 126.344 80.4833C129.557 80.5068 129.884 81.8795 129.906 82.1636C129.929 82.447 128.378 86.259 128.02 88.9531C127.668 91.6478 128.007 92.992 128.299 95.2544C128.49 96.7336 129.414 98.6098 130.506 100.736C133.831 95.2911 139.682 84.8761 140.244 81.9581C140.629 79.9621 141.247 78.0492 141.572 77.197C141.897 76.3455 144.642 75.7038 147.856 75.7266C151.069 75.7501 151.394 77.1228 151.418 77.4069C151.441 77.6909 149.885 81.5023 149.532 84.197C149.179 86.8867 149.519 88.2366 149.811 90.4983C150.062 92.4341 151.557 95.0356 153.039 97.9948C157.083 95.9981 161.844 94.6583 167.417 94.6304C169.725 94.6171 172.405 94.8492 173.789 95.2816V50.7586C173.789 47.6175 172.182 44.723 169.466 43.155L96.9424 1.1765C94.2307 -0.392165 90.9099 -0.392165 88.1976 1.1765L15.8745 43.1347C13.1621 44.7034 11.7129 47.6029 11.7129 50.739V134.732C11.7129 137.868 13.171 140.768 15.8789 142.336L88.3185 184.327C91.0302 185.901 94.3187 185.901 97.0304 184.327L169.503 142.336C172.215 140.763 173.794 137.868 173.794 134.732V100.787C172.874 100.516 171.528 100.302 170.218 100.149ZM92.1957 95.7507C90.6401 97.4956 87.9886 101.996 86.7483 105.762C84.2822 113.24 85.3503 120.84 87.0965 121.296C89.1352 121.831 92.4794 111.835 94.0805 107.925C95.0841 105.477 98.9854 94.6113 98.1307 93.1593C97.4634 92.0237 94.6991 92.9405 92.1957 95.7507ZM120.41 120.956C120.41 120.956 119.918 121.422 120.131 121.552C120.419 121.724 121.041 121.501 121.719 121.147C123.638 119.938 127.942 116.921 127.952 112.458C127.952 112.328 127.947 112.203 127.938 112.068C126.939 113.38 126.019 114.548 125.226 115.539C123.869 117.228 120.41 120.956 120.41 120.956Z"/>
</mask>
<path d="M50.7096 121.594L52.7013 123.7L52.7024 123.699L50.7096 121.594ZM46.869 136.039L45.413 138.546L45.4138 138.546L46.869 136.039ZM60.6295 130.719L62.7674 132.676L62.7678 132.676L60.6295 130.719ZM65.3849 111.193L68.1827 110.435L67.1831 106.744L63.8997 108.703L65.3849 111.193ZM64.6746 111.616L63.2231 109.107L60.8636 110.472L62.0813 112.91L64.6746 111.616ZM64.6796 111.626L66.111 114.146L68.5004 112.789L67.2729 110.331L64.6796 111.626ZM64.3681 111.803L62.9367 109.282L62.9086 109.298L62.8808 109.315L64.3681 111.803ZM143.008 116.283L141.319 118.639L142.556 119.526L143.989 119.011L143.008 116.283ZM149.463 107.692L146.564 107.675V107.676L149.463 107.692ZM148.985 105.003L151.749 104.131L150.406 99.8687L147.062 102.834L148.985 105.003ZM154.795 101.936L153.679 99.261L151.08 100.345L152.088 102.974L154.795 101.936ZM156.155 107.776L153.259 107.891L153.259 107.897L156.155 107.776ZM150.229 117.647L151.948 119.981L151.95 119.98L150.229 117.647ZM144.846 120.421L143.933 117.67L143.824 117.706L143.718 117.751L144.846 120.421ZM140.592 121.287L141.172 118.447L141.171 118.447L140.592 121.287ZM138.289 113.026L141.028 113.976L141.028 113.974L138.289 113.026ZM146.774 102.02L148.603 104.269L150.383 102.82L149.382 100.756L146.774 102.02ZM143.945 95.5974L141.165 96.4155L141.165 96.4159L143.945 95.5974ZM142.409 89.1617L145.276 88.7401L143.901 79.3836L139.797 87.9039L142.409 89.1617ZM133.677 104.277L131.284 102.642L131.278 102.651L133.677 104.277ZM132.827 105.515L130.445 103.863L129.53 105.183L130.164 106.659L132.827 105.515ZM134.657 112.538L137.553 112.418L137.553 112.414L134.657 112.538ZM129.836 122.473L128.12 120.138L128.114 120.142L129.836 122.473ZM124.797 125.131L123.828 122.399L123.731 122.434L123.636 122.475L124.797 125.131ZM118.936 126.467L118.742 123.574L118.738 123.575L118.936 126.467ZM115.027 125.839L116.779 123.53L116.775 123.527L115.027 125.839ZM114.329 122.409L117.015 123.499L117.017 123.495L114.329 122.409ZM121.802 113.031L119.58 111.17L119.58 111.17L121.802 113.031ZM124.263 109.923L126.577 111.668L127.593 110.321L126.924 108.773L124.263 109.923ZM124.245 109.88L126.906 108.73L121.346 109.88H124.245ZM125.754 107.838L128.107 109.53L129.096 108.155L128.384 106.618L125.754 107.838ZM122.429 100.364L125.211 99.5492L125.21 99.5454L122.429 100.364ZM120.892 93.9273L123.759 93.5051L122.165 82.6729L118.191 92.8753L120.892 93.9273ZM113.001 111.77L110.417 110.457L110.417 110.458L113.001 111.77ZM106.867 123.251L104.355 121.805L104.078 122.286L103.998 122.834L106.867 123.251ZM106.857 123.317L109.355 124.787L109.644 124.296L109.726 123.733L106.857 123.317ZM106.476 123.926L104.044 122.35L104.015 122.394L103.988 122.439L106.476 123.926ZM106.296 124.228L103.444 124.746L104.823 132.34L108.783 125.716L106.296 124.228ZM106.291 124.2L109.142 123.682L107.872 116.687L103.889 122.577L106.291 124.2ZM96.5188 115.759L99.3713 116.273L93.8166 114.71L96.5188 115.759ZM92.539 124.717L89.9566 123.401L89.9559 123.402L92.539 124.717ZM81.9923 129.687L83.9909 127.588L83.9902 127.587L81.9923 129.687ZM77.2457 114.288L74.3565 114.055L74.3564 114.056L77.2457 114.288ZM79.3262 103.668L82.0497 104.66L84.6773 97.4462L77.9377 101.124L79.3262 103.668ZM73.4748 106.977L72.0058 104.479L72.0016 104.481L73.4748 106.977ZM70.2977 108.852L68.8246 106.356L66.4024 107.786L67.7582 110.25L70.2977 108.852ZM70.4003 109.039L72.976 107.709L72.9583 107.675L72.9398 107.641L70.4003 109.039ZM67.9988 133.848L65.59 132.236L65.5895 132.237L67.9988 133.848ZM41.2073 144.734L40.4282 147.526L40.4297 147.526L41.2073 144.734ZM37.1571 127.165L34.5152 125.973L34.5151 125.973L37.1571 127.165ZM60.476 108.536L61.7647 111.132L61.8207 111.104L61.8755 111.074L60.476 108.536ZM61.5903 107.922L62.9898 110.46L66.6082 108.465L63.5006 105.742L61.5903 107.922ZM30.4517 76.5642L33.2978 76.0156L33.2976 76.0146L30.4517 76.5642ZM43.7195 51.1594L41.7373 49.0446L41.7369 49.0449L43.7195 51.1594ZM81.2262 29.6026L80.2541 26.8719L80.254 26.872L81.2262 29.6026ZM130.106 40.4507L132.915 39.7358L132.915 39.7356L130.106 40.4507ZM106.3 76.7741L107.347 79.4768L107.348 79.4767L106.3 76.7741ZM76.6189 79.711L75.713 82.4644L75.7133 82.4645L76.6189 79.711ZM67.4702 72.5018L70.1766 71.4641L70.1749 71.4596L67.4702 72.5018ZM67.4702 69.9846L68.8718 72.5217L68.8731 72.521L67.4702 69.9846ZM69.4943 71.2457L67.3434 73.1888L67.3453 73.1908L69.4943 71.2457ZM85.4891 75.3037L85.1657 72.4232L85.1653 72.4233L85.4891 75.3037ZM121.249 42.131L123.888 40.9321L123.888 40.9316L121.249 42.131ZM73.9667 43.5316L75.2616 46.1249L75.2618 46.1248L73.9667 43.5316ZM42.3267 75.3037L39.4324 75.145L39.4324 75.1461L42.3267 75.3037ZM67.001 104.361L69.1452 102.411L69.1315 102.396L69.1176 102.381L67.001 104.361ZM67.3442 104.739L65.2 106.689L66.7413 108.384L68.7462 107.276L67.3442 104.739ZM72.4991 101.895L73.8951 104.436L73.8965 104.435L72.4991 101.895ZM83.1997 96.026L84.591 98.5688L85.1974 98.237L85.5888 97.6672L83.1997 96.026ZM102.111 96.9949L99.2912 96.3221L104.881 97.8469L102.111 96.9949ZM102.459 96.5066L102.523 99.4045L102.531 99.4043L102.538 99.4041L102.459 96.5066ZM105.743 95.9423L106.743 93.2216L106.738 93.2198L105.743 95.9423ZM107.559 98.6047L110.447 98.3574L110.446 98.3535L107.559 98.6047ZM103.649 114.353L106.495 114.9L106.495 114.899L103.649 114.353ZM104.703 117.807L107.243 119.202L107.906 117.995L107.389 116.719L104.703 117.807ZM104.693 117.783L102.149 116.395L101.492 117.599L102.007 118.871L104.693 117.783ZM105.562 116.117L108.146 117.43L108.162 117.399L108.177 117.368L105.562 116.117ZM105.669 115.894L108.325 114.733L105.788 108.924L103.054 114.643L105.669 115.894ZM105.673 115.904L103.017 117.064L105.47 122.679L108.255 117.221L105.673 115.904ZM108.255 110.51L110.894 111.709L110.895 111.706L108.255 110.51ZM118.732 86.7148L121.474 87.6559L121.474 87.6551L118.732 86.7148ZM120.061 81.9537L122.768 82.9878L122.771 82.9811L122.773 82.9743L120.061 81.9537ZM126.344 80.4833L126.323 83.3818H126.323L126.344 80.4833ZM129.906 82.1636L127.016 82.389L127.017 82.4023L129.906 82.1636ZM128.02 88.9531L125.147 88.5716L125.146 88.577L128.02 88.9531ZM128.299 95.2544L131.174 94.884L131.174 94.8827L128.299 95.2544ZM130.506 100.736L127.927 102.061L130.287 106.656L132.98 102.247L130.506 100.736ZM140.244 81.9581L137.398 81.4092L137.398 81.4097L140.244 81.9581ZM141.572 77.197L144.28 78.2311L144.281 78.23L141.572 77.197ZM147.856 75.7266L147.877 72.8281L147.876 72.8281L147.856 75.7266ZM149.532 84.197L152.406 84.5745L152.406 84.5731L149.532 84.197ZM149.811 90.4983L146.936 90.8693L146.936 90.8715L149.811 90.4983ZM153.039 97.9948L150.447 99.2928L151.738 101.87L154.322 100.594L153.039 97.9948ZM167.417 94.6304L167.432 97.529L167.434 97.5289L167.417 94.6304ZM173.789 95.2816L172.925 98.0483L176.688 99.224V95.2816H173.789ZM169.466 43.155L168.014 45.6636L168.016 45.6653L169.466 43.155ZM96.9424 1.1765L98.3944 -1.33212L98.3938 -1.33249L96.9424 1.1765ZM88.1976 1.1765L86.7465 -1.33264L86.7431 -1.33068L88.1976 1.1765ZM15.8745 43.1347L17.3256 45.6438L17.329 45.6419L15.8745 43.1347ZM15.8789 142.336L17.3325 139.828L17.3314 139.827L15.8789 142.336ZM88.3185 184.327L89.7734 181.82L89.7722 181.819L88.3185 184.327ZM97.0304 184.327L95.5773 181.819L95.5755 181.82L97.0304 184.327ZM169.503 142.336L170.956 144.844L170.957 144.843L169.503 142.336ZM173.794 100.787H176.693V98.6202L174.614 98.007L173.794 100.787ZM86.7483 105.762L89.501 106.67L89.5014 106.668L86.7483 105.762ZM87.0965 121.296L87.8316 118.493L87.8296 118.492L87.0965 121.296ZM94.0805 107.925L91.3986 106.826L91.3982 106.827L94.0805 107.925ZM98.1307 93.1593L95.6317 94.6278L95.6328 94.6297L98.1307 93.1593ZM120.131 121.552L118.619 124.025L118.631 124.032L118.642 124.039L120.131 121.552ZM121.719 121.147L123.06 123.716L123.165 123.662L123.265 123.599L121.719 121.147ZM127.952 112.458L130.85 112.464V112.458H127.952ZM127.938 112.068L130.83 111.878L130.323 104.145L125.631 110.313L127.938 112.068ZM125.226 115.539L127.486 117.354L127.488 117.351L125.226 115.539ZM61.5209 113.515L59.9824 111.058C56.9933 112.93 52.3615 116.039 48.7168 119.49L50.7096 121.594L52.7024 123.699C55.9209 120.652 60.1605 117.787 63.0595 115.971L61.5209 113.515ZM50.7096 121.594L48.7179 119.488C45.51 122.522 43.5001 126.2 42.7374 129.518C42.3575 131.17 42.2569 132.869 42.5895 134.413C42.9237 135.965 43.7601 137.585 45.413 138.546L46.869 136.039L48.3251 133.533C48.4921 133.63 48.3613 133.679 48.2567 133.193C48.1506 132.7 48.1395 131.894 48.3871 130.817C48.8793 128.676 50.2756 125.994 52.7013 123.7L50.7096 121.594ZM46.869 136.039L45.4138 138.546C47.9144 139.998 51.2573 139.582 54.0341 138.588C57.0026 137.526 60.1536 135.531 62.7674 132.676L60.6295 130.719L58.4916 128.762C56.512 130.924 54.1573 132.387 52.0812 133.13C49.8133 133.942 48.5727 133.677 48.3243 133.533L46.869 136.039ZM60.6295 130.719L62.7678 132.676C68.2177 126.721 70.5109 119.031 68.1827 110.435L65.3849 111.193L62.5872 111.95C64.3655 118.516 62.6826 124.182 58.4912 128.762L60.6295 130.719ZM65.3849 111.193L63.8997 108.703C63.6232 108.868 63.4337 108.985 63.2231 109.107L64.6746 111.616L66.126 114.124C66.3801 113.977 66.6642 113.805 66.8701 113.682L65.3849 111.193ZM64.6746 111.616L62.0813 112.91L62.0864 112.92L64.6796 111.626L67.2729 110.331L67.2678 110.321L64.6746 111.616ZM64.6796 111.626L63.2483 109.105L62.9367 109.282L64.3681 111.803L65.7995 114.323L66.111 114.146L64.6796 111.626ZM64.3681 111.803L62.8808 109.315C61.6768 110.034 60.693 110.628 60.0215 111.034L61.5209 113.515L63.0204 115.995C63.6874 115.592 64.6624 115.004 65.8554 114.29L64.3681 111.803ZM144.253 111.123L141.619 109.912C140.771 111.759 140.215 113.205 139.978 114.332C139.794 115.208 139.5 117.334 141.319 118.639L143.008 116.283L144.697 113.928C145.296 114.357 145.543 114.949 145.611 115.343C145.662 115.639 145.603 115.754 145.652 115.523C145.747 115.069 146.067 114.116 146.887 112.333L144.253 111.123ZM143.008 116.283L143.989 119.011C145.386 118.508 147.457 117.581 149.203 115.797C151.021 113.939 152.341 111.293 152.361 107.709L149.463 107.692L146.564 107.676C146.553 109.714 145.856 110.929 145.059 111.743C144.19 112.631 143.05 113.188 142.027 113.556L143.008 116.283ZM149.463 107.692L152.361 107.71C152.369 106.451 152.095 105.227 151.749 104.131L148.985 105.003L146.22 105.874C146.47 106.667 146.567 107.25 146.564 107.675L149.463 107.692ZM148.985 105.003L147.062 102.834C144.153 105.413 142.429 108.15 141.619 109.913L144.253 111.123L146.887 112.332C147.385 111.248 148.643 109.18 150.908 107.171L148.985 105.003ZM170.218 100.149L170.554 97.2703C163.631 96.4622 158.083 97.4233 153.679 99.261L154.795 101.936L155.911 104.611C159.336 103.182 163.876 102.327 169.882 103.028L170.218 100.149ZM154.795 101.936L152.088 102.974C152.759 104.723 153.198 106.356 153.259 107.891L156.155 107.776L159.052 107.662C158.955 105.232 158.28 102.928 157.501 100.898L154.795 101.936ZM156.155 107.776L153.259 107.897C153.377 110.722 151.456 113.14 148.509 115.315L150.229 117.647L151.95 119.98C155.236 117.556 159.297 113.534 159.051 107.655L156.155 107.776ZM150.229 117.647L148.51 115.313C146.975 116.444 145.321 117.209 143.933 117.67L144.846 120.421L145.759 123.172C147.623 122.553 149.843 121.532 151.948 119.981L150.229 117.647ZM144.846 120.421L143.718 117.751C143.148 117.992 142.552 118.207 142.016 118.335C141.752 118.398 141.538 118.432 141.375 118.444C141.207 118.457 141.149 118.442 141.172 118.447L140.592 121.287L140.012 124.127C141.236 124.377 142.459 124.19 143.367 123.972C144.327 123.742 145.245 123.399 145.974 123.091L144.846 120.421ZM140.592 121.287L141.171 118.447C140.608 118.332 140.537 118.163 140.472 117.98C140.322 117.552 140.195 116.377 141.028 113.976L138.289 113.026L135.55 112.077C134.544 114.981 134.217 117.661 135.002 119.899C135.873 122.382 137.873 123.691 140.014 124.127L140.592 121.287ZM138.289 113.026L141.028 113.974C141.813 111.705 144.313 107.76 148.603 104.269L146.774 102.02L144.944 99.7722C139.983 103.81 136.751 108.606 135.55 112.079L138.289 113.026ZM146.774 102.02L149.382 100.756C148.244 98.4097 147.237 96.5134 146.726 94.7789L143.945 95.5974L141.165 96.4159C141.852 98.7507 143.195 101.284 144.166 103.285L146.774 102.02ZM143.945 95.5974L146.726 94.7792C146.158 92.8493 145.792 91.3117 145.569 90.2698C145.458 89.7489 145.383 89.3523 145.336 89.093C145.313 88.9633 145.297 88.868 145.287 88.8086C145.283 88.7789 145.279 88.7582 145.278 88.7467C145.277 88.741 145.276 88.7376 145.276 88.7364C145.276 88.7359 145.276 88.7359 145.276 88.7365C145.276 88.7368 145.276 88.7373 145.276 88.7379C145.276 88.7382 145.276 88.7385 145.276 88.7389C145.276 88.7391 145.276 88.7394 145.276 88.7394C145.276 88.7398 145.276 88.7401 142.409 89.1617C139.541 89.5833 139.541 89.5836 139.541 89.584C139.541 89.5841 139.541 89.5845 139.541 89.5847C139.541 89.5852 139.541 89.5858 139.541 89.5864C139.542 89.5876 139.542 89.5889 139.542 89.5904C139.543 89.5934 139.543 89.5969 139.544 89.6011C139.545 89.6094 139.547 89.62 139.549 89.633C139.553 89.659 139.558 89.6944 139.565 89.7388C139.58 89.8277 139.601 89.9531 139.63 90.1134C139.687 90.4341 139.775 90.8943 139.9 91.481C140.151 92.6542 140.552 94.3343 141.165 96.4155L143.945 95.5974ZM142.409 89.1617C139.797 87.9039 139.797 87.9038 139.797 87.9036C139.797 87.9036 139.798 87.9035 139.798 87.9035C139.798 87.9035 139.797 87.9036 139.797 87.9038C139.797 87.9043 139.797 87.9052 139.796 87.9066C139.795 87.9094 139.792 87.9141 139.789 87.9207C139.783 87.9338 139.773 87.9543 139.759 87.9821C139.732 88.0375 139.691 88.1216 139.637 88.2323C139.527 88.4536 139.364 88.7811 139.152 89.1979C138.728 90.032 138.111 91.2217 137.342 92.6333C135.8 95.4647 133.669 99.1517 131.284 102.642L133.677 104.277L136.071 105.912C138.605 102.203 140.839 98.3325 142.433 95.4061C143.232 93.9387 143.875 92.6994 144.32 91.8242C144.543 91.3864 144.716 91.0392 144.834 90.7995C144.893 90.6797 144.939 90.5867 144.97 90.5226C144.986 90.4906 144.998 90.4658 145.006 90.4485C145.01 90.4399 145.014 90.4331 145.016 90.4283C145.017 90.4258 145.018 90.4239 145.019 90.4224C145.019 90.4217 145.019 90.4211 145.02 90.4206C145.02 90.4203 145.02 90.42 145.02 90.4199C145.02 90.4197 145.02 90.4194 142.409 89.1617ZM133.677 104.277L131.278 102.651C131.003 103.057 130.726 103.457 130.445 103.863L132.827 105.515L135.209 107.167C135.495 106.754 135.785 106.334 136.077 105.903L133.677 104.277ZM132.827 105.515L130.164 106.659C131.069 108.765 131.68 110.77 131.761 112.663L134.657 112.538L137.553 112.414C137.428 109.511 136.518 106.761 135.49 104.37L132.827 105.515ZM134.657 112.538L131.761 112.659C131.898 115.954 130.54 118.358 128.12 120.138L129.836 122.473L131.553 124.809C135.375 122 137.778 117.824 137.553 112.418L134.657 112.538ZM129.836 122.473L128.114 120.142C126.694 121.19 125.157 121.928 123.828 122.399L124.797 125.131L125.766 127.863C127.531 127.237 129.598 126.252 131.558 124.805L129.836 122.473ZM124.797 125.131L123.636 122.475C122.898 122.798 121.214 123.409 118.742 123.574L118.936 126.467L119.13 129.359C122.38 129.141 124.718 128.329 125.958 127.787L124.797 125.131ZM118.936 126.467L118.738 123.575C118.057 123.621 117.503 123.614 117.094 123.559C116.643 123.499 116.627 123.415 116.779 123.53L115.027 125.839L113.274 128.147C114.266 128.901 115.422 129.184 116.325 129.305C117.27 129.431 118.251 129.419 119.134 129.358L118.936 126.467ZM115.027 125.839L116.775 123.527C116.691 123.463 116.706 123.457 116.75 123.523C116.773 123.557 116.799 123.602 116.821 123.658C116.844 123.714 116.86 123.769 116.87 123.82C116.889 123.924 116.874 123.967 116.883 123.915C116.893 123.857 116.924 123.724 117.015 123.499L114.329 122.409L111.644 121.318C111.24 122.313 110.923 123.55 111.17 124.877C111.434 126.302 112.258 127.379 113.278 128.15L115.027 125.839ZM114.329 122.409L117.017 123.495C116.983 123.578 117.087 123.356 117.591 122.676C118.025 122.092 118.61 121.358 119.304 120.513C120.704 118.808 122.4 116.832 124.024 114.893L121.802 113.031L119.58 111.17C118.028 113.024 116.24 115.11 114.825 116.833C114.111 117.701 113.455 118.522 112.936 119.221C112.489 119.824 111.929 120.613 111.642 121.322L114.329 122.409ZM121.802 113.031L124.024 114.893C124.942 113.797 125.81 112.686 126.577 111.668L124.263 109.923L121.949 108.177C121.221 109.142 120.417 110.171 119.58 111.17L121.802 113.031ZM124.263 109.923L126.924 108.773L126.906 108.73L124.245 109.88L121.584 111.03L121.603 111.073L124.263 109.923ZM124.245 109.88H121.346C122.932 112.464 126.137 112.076 126.307 111.917C126.352 111.871 126.415 111.801 126.435 111.779C126.464 111.745 126.487 111.718 126.49 111.713C126.504 111.697 126.514 111.684 126.516 111.681C126.523 111.673 126.528 111.665 126.53 111.663C126.535 111.657 126.54 111.651 126.543 111.647C126.55 111.638 126.559 111.626 126.569 111.613C126.59 111.586 126.618 111.549 126.655 111.5C126.729 111.404 126.835 111.264 126.97 111.083C127.241 110.721 127.629 110.195 128.107 109.53L125.754 107.838L123.401 106.146C122.946 106.779 122.579 107.275 122.328 107.61C122.203 107.777 122.107 107.904 122.044 107.988C122.012 108.029 121.988 108.06 121.974 108.079C121.967 108.088 121.962 108.094 121.96 108.096C121.959 108.098 121.96 108.096 121.963 108.093C121.964 108.092 121.968 108.086 121.975 108.078C121.976 108.076 121.987 108.063 122 108.047C122.003 108.043 122.025 108.015 122.055 107.982C122.074 107.959 122.138 107.89 122.183 107.843C122.353 107.684 125.558 107.296 127.143 109.88H124.245ZM125.754 107.838L128.384 106.618C127.068 103.78 125.822 101.638 125.211 99.5492L122.429 100.364L119.647 101.178C120.42 103.817 122.119 106.888 123.125 109.057L125.754 107.838ZM122.429 100.364L125.21 99.5454C124.642 97.6155 124.275 96.0775 124.052 95.0354C123.941 94.5144 123.866 94.1177 123.819 93.8582C123.796 93.7284 123.78 93.6331 123.77 93.5737C123.766 93.544 123.762 93.5233 123.761 93.5117C123.76 93.506 123.759 93.5025 123.759 93.5014C123.759 93.5009 123.759 93.5009 123.759 93.5015C123.759 93.5018 123.759 93.5022 123.759 93.5028C123.759 93.5031 123.759 93.5035 123.759 93.5038C123.759 93.504 123.759 93.5043 123.759 93.5044C123.759 93.5047 123.759 93.5051 120.892 93.9273C118.024 94.3495 118.024 94.3498 118.024 94.3502C118.024 94.3503 118.024 94.3507 118.024 94.3509C118.024 94.3514 118.025 94.352 118.025 94.3526C118.025 94.3538 118.025 94.3551 118.025 94.3566C118.026 94.3596 118.026 94.3631 118.027 94.3673C118.028 94.3756 118.03 94.3862 118.032 94.3992C118.036 94.4252 118.041 94.4605 118.049 94.505C118.063 94.5939 118.084 94.7193 118.113 94.8796C118.17 95.2002 118.258 95.6605 118.383 96.2472C118.634 97.4204 119.036 99.1007 119.648 101.182L122.429 100.364ZM120.892 93.9273C118.191 92.8753 118.191 92.8752 118.191 92.8752C118.191 92.8752 118.191 92.8752 118.191 92.8753C118.191 92.8755 118.191 92.8758 118.191 92.8762C118.19 92.8772 118.19 92.8787 118.189 92.8808C118.187 92.885 118.185 92.8916 118.181 92.9005C118.174 92.9183 118.163 92.9454 118.149 92.9815C118.121 93.0536 118.079 93.1614 118.023 93.3021C117.911 93.5836 117.747 93.9962 117.537 94.5169C117.117 95.5587 116.514 97.031 115.787 98.7485C114.329 102.193 112.386 106.584 110.417 110.457L113.001 111.77L115.585 113.084C117.642 109.036 119.645 104.505 121.125 101.009C121.868 99.2554 122.483 97.7521 122.913 96.6859C123.128 96.1526 123.297 95.7282 123.413 95.436C123.471 95.29 123.515 95.1769 123.546 95.0998C123.561 95.0613 123.572 95.0317 123.58 95.0115C123.584 95.0014 123.587 94.9936 123.589 94.9882C123.59 94.9855 123.591 94.9834 123.592 94.9819C123.592 94.9812 123.592 94.9806 123.592 94.9801C123.592 94.9799 123.593 94.9797 123.593 94.9796C123.593 94.9794 123.593 94.9792 120.892 93.9273ZM113.001 111.77L110.417 110.458C107.323 116.549 105.266 120.222 104.355 121.805L106.867 123.251L109.379 124.697C110.343 123.023 112.448 119.261 115.585 113.083L113.001 111.77ZM106.867 123.251L103.998 122.834L103.989 122.9L106.857 123.317L109.726 123.733L109.735 123.668L106.867 123.251ZM106.857 123.317C104.359 121.846 104.359 121.846 104.359 121.846C104.359 121.846 104.359 121.846 104.359 121.846C104.359 121.846 104.359 121.846 104.36 121.846C104.36 121.846 104.36 121.845 104.36 121.845C104.36 121.845 104.36 121.845 104.36 121.844C104.361 121.844 104.361 121.844 104.361 121.844C104.361 121.844 104.36 121.845 104.359 121.846C104.357 121.85 104.353 121.857 104.347 121.867C104.335 121.887 104.315 121.92 104.288 121.964C104.233 122.053 104.15 122.185 104.044 122.35L106.476 123.926L108.908 125.503C109.043 125.295 109.151 125.123 109.226 125C109.264 124.938 109.295 124.888 109.316 124.852C109.327 124.834 109.336 124.82 109.342 124.809C109.346 124.803 109.348 124.799 109.35 124.795C109.352 124.793 109.352 124.791 109.353 124.79C109.354 124.789 109.354 124.789 109.354 124.788C109.355 124.788 109.355 124.788 109.355 124.787C109.355 124.787 109.355 124.787 109.355 124.787C109.355 124.787 109.355 124.787 109.355 124.787C109.355 124.787 109.355 124.787 106.857 123.317ZM106.476 123.926L103.988 122.439L103.808 122.741L106.296 124.228L108.783 125.716L108.964 125.414L106.476 123.926ZM106.296 124.228L109.148 123.71L109.142 123.682L106.291 124.2L103.439 124.718L103.444 124.746L106.296 124.228ZM106.291 124.2L103.889 122.577C103.419 123.272 102.709 124.218 101.924 124.958C101.028 125.802 100.567 125.877 100.569 125.877V128.775V131.674C102.902 131.674 104.779 130.233 105.9 129.177C107.131 128.016 108.117 126.675 108.692 125.824L106.291 124.2ZM100.569 128.775V125.877C100.213 125.877 100.037 125.813 99.7685 125.331C99.4001 124.669 99.1327 123.552 99.0364 122.078C98.9442 120.666 99.0246 119.21 99.1363 118.077C99.1914 117.518 99.2524 117.054 99.2988 116.735C99.3219 116.576 99.3413 116.453 99.3543 116.374C99.3608 116.335 99.3657 116.306 99.3686 116.289C99.3701 116.28 99.3711 116.275 99.3715 116.272C99.3718 116.271 99.3719 116.27 99.3718 116.27C99.3718 116.271 99.3717 116.271 99.3717 116.271C99.3716 116.272 99.3715 116.272 99.3715 116.272C99.3714 116.273 99.3713 116.273 96.5188 115.759C93.6664 115.244 93.6662 115.244 93.6661 115.245C93.666 115.245 93.6659 115.246 93.6658 115.247C93.6656 115.248 93.6653 115.25 93.665 115.251C93.6644 115.255 93.6636 115.259 93.6628 115.264C93.661 115.274 93.6587 115.287 93.656 115.303C93.6504 115.335 93.6429 115.38 93.6337 115.435C93.6154 115.547 93.5906 115.704 93.562 115.901C93.5049 116.294 93.4323 116.847 93.3671 117.508C93.2383 118.816 93.1313 120.614 93.2516 122.456C93.3679 124.236 93.7131 126.373 94.704 128.152C95.7946 130.11 97.7255 131.674 100.569 131.674V128.775ZM96.5188 115.759C93.8166 114.71 93.8166 114.71 93.8167 114.71C93.8167 114.71 93.8167 114.71 93.8167 114.71C93.8167 114.71 93.8167 114.71 93.8166 114.71C93.8165 114.71 93.8163 114.711 93.816 114.712C93.8153 114.713 93.8142 114.716 93.8127 114.72C93.8096 114.728 93.8047 114.74 93.7982 114.757C93.785 114.791 93.765 114.842 93.7385 114.909C93.6856 115.043 93.6068 115.241 93.5053 115.492C93.3024 115.996 93.0094 116.711 92.6517 117.554C91.933 119.246 90.9677 121.417 89.9566 123.401L92.539 124.717L95.1214 126.034C96.2192 123.88 97.2439 121.571 97.9878 119.819C98.3615 118.939 98.668 118.191 98.8817 117.661C98.9887 117.395 99.0725 117.185 99.1301 117.039C99.1589 116.966 99.1812 116.909 99.1964 116.87C99.2041 116.851 99.21 116.836 99.2141 116.825C99.2162 116.82 99.2178 116.816 99.2189 116.813C99.2195 116.811 99.22 116.81 99.2203 116.809C99.2205 116.809 99.2207 116.808 99.2208 116.808C99.2208 116.808 99.2209 116.808 99.2209 116.807C99.221 116.807 99.2211 116.807 96.5188 115.759ZM92.539 124.717L89.9559 123.402C89.0643 125.153 88.4084 126.349 87.6816 127.148C87.0811 127.808 86.5708 128.051 85.8335 128.051V130.949V133.848C88.5188 133.848 90.5024 132.662 91.9696 131.049C93.3104 129.575 94.2959 127.655 95.122 126.032L92.539 124.717ZM85.8335 130.949V128.051C84.8777 128.051 84.39 127.968 83.9909 127.588L81.9923 129.687L79.9936 131.786C82.1866 133.874 84.8202 133.848 85.8335 133.848V130.949ZM81.9923 129.687L83.9902 127.587C83.0353 126.678 81.9282 124.743 81.1193 122.141C80.3304 119.603 79.9501 116.827 80.135 114.519L77.2457 114.288L74.3564 114.056C74.1007 117.248 74.6238 120.774 75.5835 123.861C76.5231 126.884 78.0097 129.899 79.9943 131.787L81.9923 129.687ZM77.2457 114.288L80.1349 114.52C80.4952 110.039 81.1736 107.065 82.0497 104.66L79.3262 103.668L76.6027 102.676C75.5097 105.677 74.7483 109.182 74.3565 114.055L77.2457 114.288ZM79.3262 103.668L77.9377 101.124C76.1618 102.093 74.1049 103.245 72.0058 104.479L73.4748 106.977L74.9437 109.476C76.9777 108.28 78.9792 107.16 80.7146 106.213L79.3262 103.668ZM73.4748 106.977L72.0016 104.481L68.8246 106.356L70.2977 108.852L71.7709 111.349L74.9479 109.474L73.4748 106.977ZM70.2977 108.852L67.7582 110.25L67.8608 110.436L70.4003 109.039L72.9398 107.641L72.8372 107.455L70.2977 108.852ZM70.4003 109.039L67.8246 110.368C68.8465 112.348 69.6343 115.872 69.439 120.005C69.246 124.087 68.1049 128.478 65.59 132.236L67.9988 133.848L70.4076 135.46C73.6238 130.655 74.9975 125.188 75.2296 120.279C75.4592 115.42 74.5822 110.821 72.976 107.709L70.4003 109.039ZM67.9988 133.848L65.5895 132.237C60.4149 139.973 50.9463 144.437 41.9849 141.941L41.2073 144.734L40.4297 147.526C52.2552 150.819 64.1219 144.858 70.4081 135.46L67.9988 133.848ZM41.2073 144.734L41.9864 141.942C41.4857 141.802 39.9366 140.732 39.0027 138.22C38.1421 135.906 37.9125 132.539 39.7992 128.357L37.1571 127.165L34.5151 125.973C32.0319 131.476 32.1505 136.426 33.5691 140.241C34.9142 143.858 37.5752 146.73 40.4282 147.526L41.2073 144.734ZM37.1571 127.165L39.7991 128.358C41.369 124.879 45.5688 121.111 50.3851 117.79C55.0628 114.564 59.7905 112.112 61.7647 111.132L60.476 108.536L59.1873 105.94C57.1018 106.975 52.0973 109.567 47.0941 113.018C42.2295 116.372 36.7998 120.911 34.5152 125.973L37.1571 127.165ZM60.476 108.536L61.8755 111.074L62.9898 110.46L61.5903 107.922L60.1907 105.383L59.0764 105.998L60.476 108.536ZM61.5903 107.922L63.5006 105.742C61.3244 103.835 58.3884 101.805 55.3551 99.7111C52.2618 97.576 48.9723 95.3126 45.8545 92.8278C39.5163 87.7764 34.5039 82.2732 33.2978 76.0156L30.4517 76.5642L27.6055 77.1128C29.232 85.552 35.7419 92.1813 42.2414 97.3612C45.5425 99.9921 49.0006 102.369 52.0621 104.482C55.1835 106.637 57.8092 108.462 59.68 110.102L61.5903 107.922ZM30.4517 76.5642L33.2976 76.0146C32.7588 73.2244 33.9727 64.2719 45.7021 53.2738L43.7195 51.1594L41.7369 49.0449C29.2061 60.7943 26.5465 71.6295 27.6057 77.1138L30.4517 76.5642ZM43.7195 51.1594L45.7018 53.2741C55.5143 44.0766 69.3084 36.9226 82.1984 32.3333L81.2262 29.6026L80.254 26.872C66.9222 31.6186 52.3306 39.1151 41.7373 49.0446L43.7195 51.1594ZM81.2262 29.6026L82.1983 32.3333C92.7776 28.5671 103.553 27.84 111.976 29.6462C120.498 31.474 125.899 35.6751 127.297 41.1658L130.106 40.4507L132.915 39.7356C130.732 31.1623 122.706 26.0186 113.191 23.978C103.575 21.9158 91.7013 22.7968 80.2541 26.8719L81.2262 29.6026ZM130.106 40.4507L127.297 41.1657C128.79 47.0337 127.05 53.7795 122.877 59.944C118.72 66.0851 112.351 71.32 105.253 74.0714L106.3 76.7741L107.348 79.4767C115.593 76.2807 122.888 70.2695 127.678 63.1937C132.451 56.1413 134.942 47.6991 132.915 39.7358L130.106 40.4507ZM106.3 76.7741L105.253 74.0714C92.0786 79.177 81.4465 78.2476 77.5246 76.9576L76.6189 79.711L75.7133 82.4645C81.0983 84.2357 93.1209 84.9903 107.347 79.4768L106.3 76.7741ZM76.6189 79.711L77.5248 76.9577C75.2668 76.2147 73.5058 75.1067 72.2518 74.011C70.9474 72.8712 70.3336 71.8736 70.1766 71.4641L67.4702 72.5018L64.7637 73.5395C65.3633 75.1031 66.679 76.8399 68.4374 78.3764C70.2461 79.9568 72.6812 81.4669 75.713 82.4644L76.6189 79.711ZM67.4702 72.5018L70.1749 71.4596C70.0946 71.2511 70.0362 71.0994 69.9873 70.9491C69.9374 70.7957 69.9274 70.7319 69.928 70.736C69.929 70.7433 69.936 70.7966 69.9325 70.8857C69.9291 70.9744 69.9142 71.1275 69.8546 71.319C69.7931 71.5169 69.6845 71.7522 69.5023 71.9834C69.3171 72.2184 69.0963 72.3977 68.8718 72.5217L67.4702 69.9846L66.0685 67.4474C64.0273 68.5751 64.0739 70.6981 64.1823 71.5064C64.3005 72.3876 64.6487 73.2409 64.7654 73.5439L67.4702 72.5018ZM67.4702 69.9846L68.8731 72.521C68.9473 72.4799 68.5984 72.6998 68.0604 72.7467C67.7638 72.7725 67.4747 72.7427 67.2113 72.6704C66.9626 72.6022 66.7841 72.509 66.6853 72.4501C66.5239 72.3538 66.4927 72.2975 66.6605 72.4617C66.8067 72.6047 67.0188 72.8294 67.3434 73.1887L69.4943 71.2457L71.6451 69.3027C71.3056 68.9269 70.9947 68.592 70.7144 68.3177C70.4557 68.0647 70.0946 67.7336 69.6552 67.4715C69.1509 67.1707 68.4332 66.8952 67.5577 66.9714C66.8012 67.0372 66.2412 67.3519 66.0673 67.4481L67.4702 69.9846ZM69.4943 71.2457L67.3453 73.1908C69.2549 75.3006 75.2655 79.3698 85.8129 78.1841L85.4891 75.3037L85.1653 72.4233C76.411 73.4074 72.2611 69.9832 71.6433 69.3006L69.4943 71.2457ZM85.4891 75.3037L85.8124 78.1841C99.1412 76.6878 109.911 70.7432 116.76 63.6425C120.18 60.0964 122.689 56.1915 124.002 52.3218C125.31 48.4619 125.483 44.4429 123.888 40.9321L121.249 42.131L118.61 43.3299C119.425 45.1246 119.499 47.5495 118.512 50.46C117.528 53.3608 115.544 56.5527 112.587 59.618C106.682 65.7402 97.1622 71.0765 85.1657 72.4232L85.4891 75.3037ZM121.249 42.131L123.888 40.9316C122.643 38.1933 120.092 36.181 117.023 34.8458C113.918 33.4951 110.017 32.7114 105.572 32.5816C96.6673 32.3216 85.2192 34.6722 72.6717 40.9385L73.9667 43.5316L75.2618 46.1248C87.1012 40.2121 97.6062 38.1486 105.402 38.3762C109.307 38.4903 112.443 39.1757 114.71 40.1617C117.012 41.1631 118.167 42.355 118.61 43.3304L121.249 42.131ZM73.9667 43.5316L72.6719 40.9384C57.5491 48.4894 49.2837 55.5187 44.7661 61.4994C40.1693 67.5848 39.582 72.4174 39.4324 75.145L42.3267 75.3037L45.2209 75.4624C45.3265 73.536 45.6746 69.9146 49.3918 64.9936C53.1881 59.9679 60.6152 53.4381 75.2616 46.1249L73.9667 43.5316ZM42.3267 75.3037L39.4324 75.1461C39.0056 82.9845 43.9044 88.6777 49.1593 93.2497C51.8091 95.5552 54.7958 97.7778 57.5079 99.8911C60.2808 102.052 62.8243 104.14 64.8844 106.342L67.001 104.361L69.1176 102.381C66.7236 99.8223 63.8687 97.4982 61.0711 95.3183C58.2127 93.0911 55.4568 91.0447 52.9645 88.8763C47.9349 84.5003 44.9506 80.4252 45.2209 75.4613L42.3267 75.3037ZM67.001 104.361L64.8568 106.312L65.2 106.689L67.3442 104.739L69.4884 102.788L69.1452 102.411L67.001 104.361ZM67.3442 104.739L68.7462 107.276C70.4133 106.354 72.1713 105.383 73.8951 104.436L72.4991 101.895L71.1031 99.3553C69.3726 100.306 67.6091 101.28 65.9421 102.202L67.3442 104.739ZM72.4991 101.895L73.8965 104.435C78.3848 101.965 82.6179 99.6484 84.591 98.5688L83.1997 96.026L81.8083 93.4832C79.8345 94.5632 75.5963 96.8827 71.1017 99.356L72.4991 101.895ZM83.1997 96.026L85.5888 97.6672C86.9496 95.6864 89.0781 93.5224 91.3849 91.8715C93.7784 90.1586 95.9055 89.3243 97.29 89.3243V86.4257V83.5272C94.0811 83.5272 90.7307 85.211 88.0111 87.1573C85.2049 89.1656 82.585 91.8017 80.8105 94.3848L83.1997 96.026ZM97.29 86.4257V89.3243C98.3308 89.3243 98.6856 89.6491 98.8812 89.8926C99.1862 90.2722 99.4571 90.9655 99.5722 92.0237C99.6829 93.0423 99.6196 94.1218 99.513 94.9901C99.461 95.4139 99.4015 95.7643 99.3565 96.0025C99.3341 96.1211 99.3155 96.2105 99.3036 96.2657C99.2977 96.2933 99.2934 96.3122 99.2913 96.3218C99.2902 96.3266 99.2896 96.3291 99.2896 96.3292C99.2895 96.3293 99.2897 96.3287 99.29 96.3275C99.2901 96.3269 99.2903 96.3262 99.2905 96.3253C99.2906 96.3249 99.2908 96.3241 99.2908 96.3238C99.291 96.323 99.2912 96.3221 102.111 96.9949C104.93 97.6675 104.93 97.6666 104.931 97.6656C104.931 97.6652 104.931 97.6642 104.931 97.6634C104.931 97.6619 104.932 97.6602 104.932 97.6583C104.933 97.6546 104.934 97.6502 104.935 97.6451C104.938 97.6351 104.941 97.6224 104.944 97.6072C104.951 97.5769 104.96 97.5365 104.971 97.4866C104.992 97.387 105.021 97.2493 105.053 97.0789C105.117 96.7391 105.197 96.2638 105.267 95.6967C105.404 94.5833 105.512 93.0206 105.335 91.3969C105.163 89.8128 104.688 87.8637 103.4 86.2617C102.004 84.5235 99.9204 83.5272 97.29 83.5272V86.4257ZM102.111 96.9949C104.881 97.8469 104.881 97.8474 104.881 97.8479C104.881 97.848 104.881 97.8485 104.881 97.8489C104.88 97.8495 104.88 97.8502 104.88 97.8509C104.88 97.8522 104.879 97.8535 104.879 97.8547C104.878 97.8573 104.877 97.8597 104.876 97.8621C104.875 97.8669 104.873 97.8715 104.872 97.8758C104.869 97.8843 104.867 97.8921 104.864 97.8991C104.86 97.9129 104.855 97.9258 104.85 97.9385C104.844 97.9566 104.825 98.0041 104.791 98.072C104.769 98.1142 104.669 98.3116 104.461 98.5395C104.307 98.7079 103.656 99.3793 102.523 99.4045L102.459 96.5066L102.394 93.6088C101.162 93.6362 100.418 94.3697 100.18 94.6301C99.8879 94.9499 99.7129 95.2691 99.6292 95.4328C99.5324 95.6222 99.4645 95.7909 99.4236 95.8999C99.4017 95.958 99.384 96.0087 99.3705 96.049C99.3636 96.0693 99.3577 96.0874 99.3527 96.1031C99.3501 96.1109 99.3478 96.1181 99.3458 96.1248C99.3447 96.1281 99.3437 96.1313 99.3428 96.1343C99.3423 96.1358 99.3419 96.1372 99.3414 96.1387C99.3412 96.1394 99.341 96.1401 99.3408 96.1408C99.3407 96.1411 99.3405 96.1416 99.3405 96.1418C99.3403 96.1423 99.3401 96.1428 102.111 96.9949ZM102.459 96.5066L102.538 99.4041C103.27 99.3841 103.789 99.0954 103.944 99.0063C104.151 98.8881 104.305 98.7677 104.366 98.7191C104.438 98.6621 104.503 98.6067 104.53 98.5834C104.57 98.5497 104.583 98.5377 104.604 98.5209C104.661 98.4731 104.637 98.4993 104.577 98.5282C104.503 98.5633 104.434 98.5761 104.402 98.5772C104.379 98.578 104.482 98.5677 104.748 98.6649L105.743 95.9423L106.738 93.2198C104.925 92.5576 103.345 92.6934 102.082 93.2953C101.51 93.5682 101.103 93.8904 100.879 94.0783C100.829 94.1204 100.779 94.1636 100.76 94.1795C100.73 94.2059 100.742 94.1946 100.768 94.1744C100.782 94.1627 100.895 94.0718 101.066 93.9742C101.186 93.9056 101.674 93.6284 102.38 93.6092L102.459 96.5066ZM105.743 95.9423L104.743 98.663C105.012 98.7619 105.036 98.8229 104.965 98.752C104.93 98.7176 104.885 98.6637 104.841 98.5896C104.798 98.5161 104.765 98.4384 104.742 98.3623C104.698 98.2135 104.701 98.1022 104.703 98.0683C104.704 98.0515 104.706 98.0455 104.7 98.0848C104.7 98.0903 104.699 98.0959 104.698 98.1036C104.697 98.1105 104.695 98.1202 104.694 98.13C104.692 98.1478 104.687 98.181 104.683 98.2188C104.679 98.2535 104.671 98.3209 104.666 98.4032C104.663 98.446 104.66 98.5046 104.66 98.5737C104.659 98.6406 104.661 98.7385 104.671 98.8559L107.559 98.6047L110.446 98.3535C110.464 98.5582 110.455 98.7163 110.452 98.7664C110.448 98.8326 110.442 98.8812 110.44 98.8945C110.439 98.9096 110.435 98.9327 110.444 98.87C110.456 98.7843 110.478 98.6162 110.49 98.4088C110.515 97.9939 110.502 97.388 110.297 96.7017C109.834 95.1537 108.623 93.9127 106.743 93.2216L105.743 95.9423ZM107.559 98.6047L104.671 98.8521C104.648 98.5896 104.669 98.387 104.673 98.3462C104.68 98.2715 104.689 98.2166 104.692 98.1952C104.7 98.1511 104.704 98.1316 104.699 98.1544C104.691 98.1945 104.671 98.2778 104.636 98.4184C104.566 98.6933 104.461 99.0904 104.323 99.6012C104.053 100.606 103.666 102.02 103.247 103.595C102.41 106.739 101.401 110.683 100.802 113.807L103.649 114.353L106.495 114.899C107.052 111.996 108.012 108.229 108.849 105.086C109.266 103.519 109.642 102.146 109.921 101.109C110.058 100.599 110.175 100.162 110.257 99.8368C110.297 99.6776 110.335 99.5198 110.365 99.3836C110.379 99.3182 110.398 99.2267 110.414 99.1276C110.422 99.0787 110.434 99.0006 110.443 98.907C110.449 98.8472 110.47 98.63 110.447 98.3574L107.559 98.6047ZM103.649 114.353L100.802 113.805C100.483 115.466 100.409 116.927 100.448 118.02C100.467 118.558 100.515 119.057 100.592 119.476C100.627 119.667 100.687 119.946 100.794 120.236C100.841 120.362 100.954 120.648 101.169 120.957C101.249 121.073 102.02 122.222 103.579 122.222V119.324V116.425C104.382 116.425 104.974 116.752 105.307 117.002C105.63 117.246 105.827 117.502 105.925 117.642C106.117 117.919 106.207 118.157 106.23 118.221C106.291 118.385 106.303 118.478 106.294 118.428C106.282 118.363 106.254 118.159 106.242 117.814C106.218 117.14 106.261 116.116 106.495 114.9L103.649 114.353ZM103.579 119.324V122.222C104.355 122.222 104.921 121.926 105.184 121.766C105.475 121.588 105.69 121.394 105.821 121.265C106.084 121.007 106.292 120.73 106.431 120.533C106.725 120.118 107.011 119.626 107.243 119.202L104.703 117.807L102.162 116.411C101.963 116.774 101.801 117.04 101.697 117.187C101.638 117.271 101.66 117.226 101.758 117.13C101.807 117.082 101.945 116.951 102.166 116.816C102.357 116.699 102.86 116.425 103.579 116.425V119.324ZM104.703 117.807L107.389 116.719L107.38 116.695L104.693 117.783L102.007 118.871L102.016 118.894L104.703 117.807ZM104.693 117.783C107.238 119.171 107.238 119.171 107.238 119.171C107.238 119.171 107.238 119.171 107.238 119.171C107.238 119.171 107.238 119.171 107.238 119.171C107.238 119.17 107.238 119.17 107.239 119.17C107.239 119.169 107.239 119.168 107.24 119.167C107.241 119.166 107.242 119.163 107.244 119.16C107.247 119.154 107.252 119.146 107.257 119.135C107.269 119.114 107.285 119.084 107.306 119.044C107.348 118.966 107.409 118.852 107.487 118.705C107.643 118.41 107.867 117.98 108.146 117.43L105.562 116.117L102.978 114.804C102.713 115.325 102.503 115.728 102.36 115.999C102.289 116.134 102.234 116.236 102.199 116.302C102.181 116.336 102.168 116.36 102.159 116.376C102.155 116.383 102.152 116.389 102.15 116.392C102.149 116.394 102.149 116.395 102.148 116.395C102.148 116.396 102.148 116.396 102.148 116.396C102.148 116.396 102.148 116.395 102.148 116.395C102.148 116.395 102.148 116.395 102.149 116.395C102.149 116.395 102.149 116.395 102.149 116.395C102.149 116.395 102.149 116.395 104.693 117.783ZM105.562 116.117L108.177 117.368L108.284 117.144L105.669 115.894L103.054 114.643L102.947 114.867L105.562 116.117ZM105.669 115.894L103.013 117.054L103.017 117.064L105.673 115.904L108.329 114.744L108.325 114.733L105.669 115.894ZM105.673 115.904L108.255 117.221C108.918 115.922 109.837 114.035 110.894 111.709L108.255 110.51L105.616 109.311C104.593 111.564 103.711 113.372 103.091 114.586L105.673 115.904ZM108.255 110.51L110.895 111.706C111.918 109.448 114.376 103.972 116.661 98.8205C118.899 93.7722 121.09 88.7726 121.474 87.6559L118.732 86.7148L115.991 85.7737C115.714 86.579 113.686 91.2269 111.361 96.4706C109.082 101.611 106.631 107.072 105.615 109.314L108.255 110.51ZM118.732 86.7148L121.474 87.6551C121.848 86.5648 122.124 85.4811 122.335 84.6303C122.576 83.6566 122.688 83.1993 122.768 82.9878L120.061 81.9537L117.353 80.9196C117.108 81.5603 116.885 82.5227 116.708 83.236C116.501 84.0722 116.276 84.9431 115.99 85.7746L118.732 86.7148ZM120.061 81.9537L122.773 82.9743C122.597 83.4444 122.327 83.7137 122.209 83.8177C122.085 83.9274 122.008 83.9612 122.04 83.9449C122.109 83.9096 122.338 83.8155 122.777 83.7128C123.636 83.512 124.891 83.3713 126.323 83.3818L126.344 80.4833L126.365 77.5848C124.584 77.5718 122.857 77.7406 121.457 78.068C120.767 78.2293 120.048 78.454 119.411 78.7779C118.912 79.0321 117.828 79.6573 117.348 80.9331L120.061 81.9537ZM126.344 80.4833L126.323 83.3818C127.559 83.3908 127.729 83.6605 127.531 83.5054C127.281 83.309 127.057 82.9217 127.016 82.389L129.906 82.1636L132.795 81.9381C132.732 81.1214 132.334 79.9056 131.112 78.946C129.942 78.0277 128.342 77.5993 126.365 77.5848L126.344 80.4833ZM129.906 82.1636L127.017 82.4023C126.991 82.0832 127.027 81.8395 127.035 81.7851C127.048 81.6938 127.063 81.6288 127.068 81.6067C127.078 81.5618 127.083 81.5502 127.069 81.5954C127.044 81.6801 126.998 81.8209 126.924 82.0414C126.786 82.4521 126.57 83.0783 126.349 83.7605C125.915 85.0978 125.363 86.9415 125.147 88.5716L128.02 88.9531L130.894 89.3346C131.035 88.2705 131.438 86.8612 131.863 85.5481C132.072 84.9051 132.261 84.3568 132.419 83.8889C132.492 83.67 132.567 83.4455 132.623 83.2569C132.65 83.1655 132.686 83.0403 132.717 82.9071C132.732 82.841 132.754 82.7381 132.772 82.6155C132.784 82.53 132.822 82.2617 132.794 81.9248L129.906 82.1636ZM128.02 88.9531L125.146 88.577C124.733 91.7359 125.154 93.5288 125.425 95.626L128.299 95.2544L131.174 94.8827C130.86 92.4553 130.602 91.5598 130.894 89.3292L128.02 88.9531ZM128.299 95.2544L125.425 95.6247C125.57 96.754 125.968 97.8784 126.397 98.8873C126.835 99.9153 127.384 101.002 127.927 102.061L130.506 100.736L133.084 99.4123C132.536 98.3445 132.077 97.4295 131.732 96.618C131.378 95.7873 131.219 95.234 131.174 94.884L128.299 95.2544ZM130.506 100.736L132.98 102.247C134.669 99.4808 136.991 95.4673 138.968 91.7648C139.956 89.915 140.872 88.1151 141.585 86.5725C142.253 85.1241 142.874 83.6279 143.09 82.5065L140.244 81.9581L137.398 81.4097C137.333 81.7474 137.012 82.6472 136.321 84.1425C135.674 85.5436 134.815 87.2348 133.854 89.0342C131.934 92.6301 129.668 96.5467 128.032 99.2258L130.506 100.736ZM140.244 81.9581L143.09 82.507C143.439 80.6988 144.006 78.9487 144.28 78.2311L141.572 77.197L138.865 76.1629C138.488 77.1497 137.819 79.2254 137.398 81.4092L140.244 81.9581ZM141.572 77.197L144.281 78.23C144.103 78.695 143.836 78.9611 143.719 79.0638C143.596 79.1721 143.52 79.2052 143.553 79.1887C143.623 79.153 143.852 79.0589 144.291 78.9563C145.149 78.7556 146.403 78.6149 147.835 78.6251L147.856 75.7266L147.876 72.8281C146.095 72.8155 144.37 72.9842 142.971 73.3116C142.281 73.4729 141.562 73.6974 140.926 74.0209C140.425 74.2756 139.347 74.8975 138.864 76.164L141.572 77.197ZM147.856 75.7266L147.834 78.6251C149.071 78.6341 149.24 78.9038 149.043 78.7485C148.939 78.667 148.81 78.5249 148.707 78.3174C148.612 78.1259 148.55 77.9029 148.529 77.6451L151.418 77.4069L154.306 77.1686C154.24 76.365 153.847 75.1508 152.623 74.1896C151.454 73.271 149.854 72.8426 147.877 72.8281L147.856 75.7266ZM151.418 77.4069L148.529 77.6451C148.503 77.3257 148.539 77.0819 148.547 77.0272C148.56 76.9357 148.575 76.8705 148.58 76.8484C148.59 76.8033 148.595 76.7915 148.581 76.8367C148.556 76.9214 148.51 77.0622 148.436 77.2828C148.297 77.694 148.081 78.32 147.859 79.0029C147.425 80.3405 146.872 82.1869 146.658 83.8209L149.532 84.197L152.406 84.5731C152.545 83.5123 152.947 82.1057 153.373 80.7929C153.581 80.1507 153.772 79.6021 153.929 79.1346C154.003 78.9159 154.077 78.6913 154.134 78.5026C154.161 78.4111 154.198 78.2857 154.228 78.1523C154.244 78.086 154.266 77.9829 154.284 77.8601C154.296 77.7742 154.334 77.5057 154.306 77.1686L151.418 77.4069ZM149.532 84.197L146.658 83.8195C146.244 86.9741 146.666 88.7742 146.936 90.8693L149.811 90.4983L152.685 90.1273C152.372 87.699 152.114 86.7993 152.406 84.5745L149.532 84.197ZM149.811 90.4983L146.936 90.8715C147.124 92.314 147.731 93.7933 148.338 95.0908C148.946 96.3921 149.76 97.9213 150.447 99.2928L153.039 97.9948L155.631 96.6967C154.835 95.109 154.161 93.8579 153.589 92.6347C153.015 91.4077 152.749 90.6183 152.685 90.125L149.811 90.4983ZM153.039 97.9948L154.322 100.594C158.005 98.7755 162.334 97.5545 167.432 97.529L167.417 94.6304L167.403 91.7319C161.354 91.7622 156.162 93.2207 151.756 95.3957L153.039 97.9948ZM167.417 94.6304L167.434 97.5289C169.677 97.516 171.986 97.7549 172.925 98.0483L173.789 95.2816L174.654 92.515C172.825 91.9435 169.774 91.7182 167.401 91.7319L167.417 94.6304ZM173.789 95.2816H176.688V50.7586H173.789H170.891V95.2816H173.789ZM173.789 50.7586H176.688C176.688 46.624 174.564 42.7512 170.915 40.6447L169.466 43.155L168.016 45.6653C169.8 46.6948 170.891 48.611 170.891 50.7586H173.789ZM169.466 43.155L170.918 40.6464L98.3944 -1.33212L96.9424 1.1765L95.4903 3.68511L168.014 45.6636L169.466 43.155ZM96.9424 1.1765L98.3938 -1.33249C94.7841 -3.42063 90.3564 -3.42046 86.7465 -1.33264L88.1976 1.1765L89.6487 3.68563C91.4634 2.63613 93.6773 2.6363 95.491 3.68549L96.9424 1.1765ZM88.1976 1.1765L86.7431 -1.33068L14.4199 40.6275L15.8745 43.1347L17.329 45.6419L89.6521 3.68367L88.1976 1.1765ZM15.8745 43.1347L14.4233 40.6256C10.6928 42.7831 8.81434 46.7178 8.81434 50.739H11.7129H14.6114C14.6114 48.4881 15.6314 46.6237 17.3256 45.6438L15.8745 43.1347ZM11.7129 50.739H8.81434V134.732H11.7129H14.6114V50.739H11.7129ZM11.7129 134.732H8.81434C8.81434 138.759 10.7058 142.69 14.4264 144.844L15.8789 142.336L17.3314 139.827C15.6362 138.846 14.6114 136.978 14.6114 134.732H11.7129ZM15.8789 142.336L14.4253 144.843L86.8649 186.835L88.3185 184.327L89.7722 181.819L17.3325 139.828L15.8789 142.336ZM88.3185 184.327L86.8636 186.834C90.475 188.93 94.8739 188.93 98.4853 186.834L97.0304 184.327L95.5755 181.82C93.7635 182.872 91.5855 182.872 89.7734 181.82L88.3185 184.327ZM97.0304 184.327L98.4835 186.835L170.956 144.844L169.503 142.336L168.05 139.828L95.5773 181.819L97.0304 184.327ZM169.503 142.336L170.957 144.843C174.611 142.723 176.693 138.844 176.693 134.732H173.794H170.896C170.896 136.891 169.818 138.802 168.048 139.829L169.503 142.336ZM173.794 134.732H176.693V100.787H173.794H170.896V134.732H173.794ZM173.794 100.787L174.614 98.007C173.444 97.6617 171.891 97.4262 170.554 97.2703L170.218 100.149L169.882 103.028C171.165 103.178 172.305 103.37 172.974 103.567L173.794 100.787ZM92.1957 95.7507L90.0321 93.8218C88.1763 95.9035 85.3419 100.766 83.9951 104.855L86.7483 105.762L89.5014 106.668C90.6353 103.225 93.1039 99.0877 94.3593 97.6795L92.1957 95.7507ZM86.7483 105.762L83.9955 104.854C82.6406 108.963 82.2515 113.102 82.4497 116.339C82.5481 117.947 82.7983 119.451 83.2175 120.67C83.4252 121.275 83.7128 121.923 84.1264 122.498C84.5172 123.041 85.2297 123.804 86.3633 124.101L87.0965 121.296L87.8296 118.492C88.5267 118.674 88.8239 119.1 88.8317 119.111C88.8623 119.154 88.7992 119.075 88.6997 118.786C88.5046 118.218 88.3145 117.269 88.2359 115.985C88.08 113.439 88.3899 110.039 89.501 106.67L86.7483 105.762ZM87.0965 121.296L86.3614 124.1C87.9043 124.505 89.1228 123.778 89.7177 123.306C90.3453 122.808 90.8438 122.167 91.2225 121.608C91.9994 120.461 92.7433 118.943 93.4037 117.449C94.6924 114.533 96.0645 110.729 96.7629 109.024L94.0805 107.925L91.3982 106.827C90.4954 109.031 89.3948 112.179 88.1014 115.106C87.4708 116.532 86.8963 117.658 86.4228 118.357C86.1762 118.721 86.0665 118.803 86.1148 118.765C86.1303 118.752 86.7983 118.222 87.8316 118.493L87.0965 121.296ZM94.0805 107.925L96.7625 109.025C97.3005 107.712 98.5549 104.302 99.5708 101.028C100.078 99.3931 100.549 97.7191 100.838 96.3227C100.981 95.6323 101.097 94.9259 101.136 94.2864C101.156 93.9667 101.161 93.5943 101.117 93.211C101.078 92.8671 100.977 92.2804 100.629 91.6889L98.1307 93.1593L95.6328 94.6297C95.3914 94.2196 95.3597 93.888 95.357 93.864C95.3498 93.8006 95.3574 93.8129 95.35 93.9341C95.3353 94.1762 95.2795 94.5761 95.1613 95.1468C94.928 96.2727 94.521 97.7404 94.034 99.3099C93.0621 102.443 91.8641 105.69 91.3986 106.826L94.0805 107.925ZM98.1307 93.1593L100.63 91.6908C99.8538 90.3704 98.5489 89.88 97.4937 89.7997C96.5011 89.7242 95.5496 89.9718 94.7676 90.2871C93.1715 90.9308 91.5033 92.1703 90.0314 93.8226L92.1957 95.7507L94.36 97.6787C95.3915 96.5209 96.3571 95.8969 96.9358 95.6635C97.2413 95.5403 97.2624 95.596 97.054 95.5801C96.783 95.5595 96.0739 95.3804 95.6317 94.6278L98.1307 93.1593ZM120.41 120.956C118.417 118.852 118.416 118.852 118.416 118.852C118.416 118.852 118.415 118.853 118.415 118.853C118.415 118.854 118.414 118.854 118.413 118.854C118.412 118.855 118.411 118.857 118.41 118.858C118.408 118.86 118.406 118.862 118.403 118.864C118.398 118.869 118.392 118.875 118.386 118.881C118.374 118.893 118.359 118.907 118.343 118.923C118.31 118.956 118.268 118.999 118.22 119.05C118.133 119.143 117.99 119.302 117.845 119.502C117.743 119.642 117.437 120.07 117.28 120.671C117.196 120.994 117.099 121.573 117.286 122.256C117.498 123.026 117.994 123.643 118.619 124.025L120.131 121.552L121.642 119.078C122.214 119.428 122.679 120.002 122.877 120.722C123.05 121.354 122.957 121.876 122.889 122.137C122.817 122.412 122.718 122.607 122.668 122.699C122.611 122.802 122.562 122.873 122.536 122.908C122.487 122.975 122.454 123.01 122.453 123.011C122.448 123.017 122.442 123.022 122.436 123.029C122.432 123.032 122.428 123.036 122.423 123.042C122.42 123.044 122.417 123.047 122.414 123.05C122.412 123.052 122.411 123.053 122.409 123.055C122.408 123.056 122.407 123.057 122.406 123.057C122.406 123.058 122.405 123.058 122.405 123.059C122.405 123.059 122.404 123.059 122.404 123.059C122.404 123.06 122.403 123.06 120.41 120.956ZM120.131 121.552L118.642 124.039C119.342 124.458 120.035 124.518 120.465 124.509C120.908 124.5 121.294 124.414 121.572 124.335C122.126 124.177 122.652 123.929 123.06 123.716L121.719 121.147L120.378 118.577C120.108 118.718 119.985 118.759 119.986 118.759C119.987 118.758 120.122 118.718 120.345 118.713C120.556 118.709 121.063 118.732 121.62 119.065L120.131 121.552ZM121.719 121.147L123.265 123.599C124.297 122.948 126.12 121.723 127.706 119.962C129.289 118.204 130.844 115.673 130.85 112.464L127.952 112.458L125.053 112.452C125.051 113.706 124.448 114.916 123.397 116.083C122.348 117.249 121.06 118.136 120.174 118.695L121.719 121.147ZM127.952 112.458H130.85C130.85 112.25 130.842 112.06 130.83 111.878L127.938 112.068L125.046 112.257C125.051 112.346 125.053 112.406 125.053 112.458H127.952ZM127.938 112.068L125.631 110.313C124.65 111.602 123.746 112.75 122.963 113.727L125.226 115.539L127.488 117.351C128.293 116.346 129.229 115.158 130.245 113.823L127.938 112.068ZM125.226 115.539L122.965 113.724C122.349 114.492 121.202 115.785 120.16 116.936C119.649 117.5 119.18 118.013 118.838 118.385C118.667 118.571 118.528 118.722 118.432 118.825C118.385 118.877 118.348 118.917 118.323 118.944C118.31 118.957 118.301 118.968 118.294 118.974C118.291 118.978 118.289 118.98 118.287 118.982C118.287 118.983 118.286 118.983 118.286 118.984C118.286 118.984 118.285 118.984 118.285 118.984C118.285 118.984 118.285 118.984 118.285 118.984C118.285 118.984 118.285 118.984 120.41 120.956C122.535 122.928 122.535 122.928 122.535 122.927C122.535 122.927 122.535 122.927 122.535 122.927C122.535 122.927 122.535 122.927 122.535 122.927C122.536 122.926 122.537 122.925 122.538 122.924C122.539 122.922 122.542 122.92 122.545 122.916C122.552 122.908 122.563 122.897 122.576 122.883C122.602 122.855 122.641 122.813 122.69 122.76C122.789 122.653 122.931 122.499 123.106 122.309C123.455 121.929 123.935 121.404 124.458 120.826C125.485 119.691 126.746 118.275 127.486 117.354L125.226 115.539Z" fill="white" mask="url(#path-1-inside-1_480_19180)"/>
</svg>
