<svg width="140" height="140" viewBox="0 0 140 140" fill="none" xmlns="http://www.w3.org/2000/svg">
<mask id="path-1-inside-1_43672_13453" fill="white">
<path fill-rule="evenodd" clip-rule="evenodd" d="M27.8906 85.7749V96.2918C27.8906 98.0644 66.138 101.034 91.057 106.809V106.809C103.095 104.018 112.025 100.574 112.025 96.2918V96.2918V85.7749C112.025 81.4946 103.095 78.0486 91.057 75.2581V75.2581C66.138 81.0342 27.8906 84.0034 27.8906 85.7749"/>
</mask>
<path d="M27.8906 85.7749H30.3061V96.2918H27.8906H25.4752V85.7749H27.8906ZM27.8906 96.2918H30.3061C30.3061 95.213 29.6008 94.647 29.4986 94.5663C29.3221 94.4268 29.201 94.386 29.2637 94.4124C29.3635 94.4545 29.6317 94.5437 30.1453 94.6667C31.1386 94.9046 32.6482 95.1764 34.6271 95.484C38.5678 96.0965 44.087 96.8091 50.4476 97.655C63.1068 99.3384 79.0122 101.538 91.6023 104.455L91.057 106.809L90.5117 109.162C78.1829 106.305 62.505 104.132 49.8108 102.444C43.4947 101.604 37.8945 100.881 33.8851 100.258C31.889 99.9473 30.2159 99.6511 29.0202 99.3648C28.4392 99.2257 27.8614 99.0637 27.3888 98.8647C27.1653 98.7706 26.8264 98.6118 26.5036 98.3567C26.2551 98.1604 25.4752 97.4814 25.4752 96.2918H27.8906ZM91.057 106.809L90.5116 104.456C96.4849 103.071 101.529 101.557 105.034 99.9211C106.792 99.0998 108.024 98.3103 108.783 97.5936C109.539 96.8797 109.61 96.4527 109.61 96.2918H112.025H114.441C114.441 98.2722 113.396 99.8817 112.101 101.105C110.809 102.326 109.056 103.375 107.077 104.298C103.107 106.152 97.6674 107.756 91.6025 109.162L91.057 106.809ZM112.025 96.2918H109.61V85.7749H112.025H114.441V96.2918H112.025ZM112.025 85.7749H109.61C109.61 85.6149 109.539 85.1883 108.783 84.4742C108.024 83.7574 106.792 82.9678 105.033 82.1464C101.529 80.5099 96.4847 78.9957 90.5116 77.6112L91.057 75.2581L91.6025 72.905C97.6676 74.3109 103.107 75.915 107.078 77.7693C109.056 78.6932 110.809 79.742 112.101 80.9625C113.395 82.1856 114.441 83.7948 114.441 85.7749H112.025ZM91.057 75.2581L91.6025 77.6112C79.0122 80.5295 63.1068 82.7292 50.4476 84.4126C44.087 85.2585 38.5678 85.971 34.6271 86.5834C32.6481 86.8909 31.1384 87.1626 30.1451 87.4004C29.6315 87.5234 29.3632 87.6126 29.2633 87.6546C29.2005 87.6811 29.3215 87.6404 29.4981 87.501C29.6 87.4205 30.3061 86.8544 30.3061 85.7749H27.8906H25.4752C25.4752 84.5847 26.2559 83.9056 26.5041 83.7096C26.8269 83.4547 27.1658 83.2961 27.3892 83.2021C27.8618 83.0032 28.4395 82.8413 29.0204 82.7023C30.216 82.416 31.8891 82.12 33.8852 81.8098C37.8946 81.1867 43.4947 80.4638 49.8108 79.6239C62.505 77.9358 78.1828 75.7628 90.5116 72.905L91.057 75.2581Z" fill="white" mask="url(#path-1-inside-1_43672_13453)"/>
<mask id="path-3-inside-2_43672_13453" fill="white">
<path fill-rule="evenodd" clip-rule="evenodd" d="M27.8906 43.7076V54.2244C27.8906 55.9971 66.138 58.9663 91.057 64.7412V64.7412C103.095 61.9507 112.025 58.5071 112.025 54.2244V54.2244V43.7076C112.025 39.4272 103.095 35.9812 91.057 33.1907V33.1907C66.138 38.9668 27.8906 41.9361 27.8906 43.7076"/>
</mask>
<path d="M27.8906 43.7076H30.3061V54.2244H27.8906H25.4752V43.7076H27.8906ZM27.8906 54.2244H30.3061C30.3061 53.1456 29.6008 52.5797 29.4986 52.4989C29.3221 52.3594 29.201 52.3186 29.2637 52.3451C29.3635 52.3871 29.6317 52.4763 30.1453 52.5993C31.1386 52.8372 32.6482 53.109 34.6271 53.4166C38.5678 54.0291 44.087 54.7417 50.4476 55.5876C63.1068 57.271 79.0122 59.4704 91.6023 62.3881L91.057 64.7412L90.5117 67.0943C78.1829 64.2371 62.505 62.0644 49.8108 60.3763C43.4947 59.5364 37.8945 58.8134 33.8851 58.1902C31.889 57.8799 30.2159 57.5838 29.0202 57.2974C28.4392 57.1583 27.8614 56.9963 27.3888 56.7973C27.1653 56.7032 26.8264 56.5444 26.5036 56.2894C26.2551 56.093 25.4752 55.414 25.4752 54.2244H27.8906ZM91.057 64.7412L90.5116 62.3881C96.4849 61.0035 101.529 59.4899 105.034 57.8538C106.792 57.0324 108.024 56.2429 108.783 55.5262C109.539 54.8123 109.61 54.3853 109.61 54.2244H112.025H114.441C114.441 56.2048 113.396 57.8143 112.101 59.0377C110.809 60.2584 109.056 61.3072 107.077 62.231C103.107 64.085 97.6674 65.6884 91.6025 67.0943L91.057 64.7412ZM112.025 54.2244H109.61V43.7076H112.025H114.441V54.2244H112.025ZM112.025 43.7076H109.61C109.61 43.5476 109.539 43.1209 108.783 42.4068C108.024 41.6901 106.792 40.9005 105.033 40.079C101.529 38.4425 96.4847 36.9284 90.5116 35.5438L91.057 33.1907L91.6025 30.8377C97.6676 32.2436 103.107 33.8476 107.078 35.7019C109.056 36.6258 110.809 37.6746 112.101 38.8951C113.395 40.1182 114.441 41.7274 114.441 43.7076H112.025ZM91.057 33.1907L91.6025 35.5438C79.0122 38.4621 63.1068 40.6618 50.4476 42.3452C44.087 43.1911 38.5678 43.9036 34.6271 44.516C32.6481 44.8236 31.1384 45.0952 30.1451 45.333C29.6315 45.456 29.3632 45.5452 29.2633 45.5873C29.2005 45.6137 29.3215 45.573 29.4981 45.4336C29.6 45.3531 30.3061 44.7871 30.3061 43.7076H27.8906H25.4752C25.4752 42.5173 26.2559 41.8382 26.5041 41.6423C26.8269 41.3874 27.1658 41.2287 27.3892 41.1347C27.8618 40.9358 28.4395 40.7739 29.0204 40.6349C30.216 40.3486 31.8891 40.0526 33.8852 39.7424C37.8946 39.1193 43.4947 38.3964 49.8108 37.5565C62.505 35.8684 78.1828 33.6954 90.5116 30.8377L91.057 33.1907Z" fill="white" mask="url(#path-3-inside-2_43672_13453)"/>
<path fill-rule="evenodd" clip-rule="evenodd" d="M27.8906 64.741V96.2915C27.8906 93.6623 112.025 88.4039 112.025 75.2578V75.2578V43.7074C112.025 56.8534 27.8906 62.1118 27.8906 64.741" fill="white"/>
<path fill-rule="evenodd" clip-rule="evenodd" d="M27.8906 22.6741V54.2246C27.8906 51.5954 112.025 46.337 112.025 33.191V33.191V1.64047C112.025 14.7865 27.8906 20.0449 27.8906 22.6741" fill="white"/>
<path fill-rule="evenodd" clip-rule="evenodd" d="M27.8906 106.808V138.359C27.8906 135.73 112.025 130.471 112.025 117.325V117.325V85.7748C112.025 98.9208 27.8906 104.179 27.8906 106.808" fill="white"/>
</svg>
