<svg width="140" height="140" viewBox="0 0 140 140" fill="none" xmlns="http://www.w3.org/2000/svg">
<path d="M19.1406 113.003L19.9882 111.816L60.0806 35.7428L60.1653 34.9375L42.4917 1.74023C41.011 -1.04064 36.8425 -0.337537 36.3565 2.77543L19.1406 113.003Z" fill="white"/>
<path d="M19.6406 112.098L20.2818 110.848L59.9541 35.5716L42.3248 2.23928C40.8596 -0.512448 37.1389 0.189025 36.658 3.26937L19.6406 112.098Z" fill="white"/>
<path d="M73.0501 60.0479L86.2094 46.5708L73.0463 21.4423C71.7967 19.0637 68.3079 19.0568 67.0715 21.4423L60.0391 34.8545V35.9968L73.0501 60.0479Z" fill="white"/>
<path d="M72.8132 59.4862L85.6065 46.3839L72.8132 22.0233C71.5984 19.7109 68.6472 19.4686 67.4452 21.7877L60.3754 35.4078L60.1641 36.1041L72.8132 59.4862Z" fill="white"/>
<path d="M19.1406 113.003L19.5248 112.617L20.9206 112.05L72.2228 60.9383L72.8727 59.169L60.0749 34.7817L19.1406 113.003Z" fill="white"/>
<path d="M74.6926 138.78L121.122 112.885L107.863 31.2292C107.449 28.6744 104.314 27.6643 102.486 29.4962L19.1406 113.003L65.3039 138.777C68.2213 140.406 71.7745 140.407 74.6926 138.78Z" fill="white"/>
<path d="M120.707 112.669L107.549 31.6323C107.137 29.0969 104.531 28.0477 102.716 29.8657L19.6562 112.845L65.3125 138.364C68.2078 139.981 71.7339 139.981 74.6299 138.366L120.707 112.669Z" fill="white"/>
<path d="M74.6926 138.017C71.7745 139.644 68.2213 139.644 65.3039 138.015L19.5124 112.61L19.1406 113.003L65.3039 138.777C68.2213 140.406 71.7745 140.407 74.6926 138.78L121.122 112.886L121.008 112.186L74.6926 138.017Z" fill="white"/>
</svg>
