<svg width="140" height="140" viewBox="0 0 140 140" fill="none" xmlns="http://www.w3.org/2000/svg">
<path d="M108.053 45.2319C107.47 65.1819 106.925 85.093 106.42 104.965C106.42 109.165 106.42 113.424 106.011 117.565C106.011 119.957 105.311 123.924 102.395 124.449C92.9408 125.451 83.4238 125.724 73.928 125.265L43.7113 125.207H32.803C29.9109 125.588 26.9694 125.185 24.2863 124.04C22.7697 123.34 23.6447 114.182 23.6447 111.732V96.6236V66.4652V44.9986V34.1486C23.6447 31.6986 22.7697 27.3819 24.5197 25.3402C26.6358 24.4482 28.9539 24.1458 31.228 24.4652C33.9697 24.4652 36.5947 24.4652 39.3363 24.4652C52.578 24.4652 65.878 24.4652 79.178 24.1152" stroke="#0A1D2A" stroke-width="3.75" stroke-linecap="round" stroke-linejoin="round"/>
<path d="M115.87 15.1905C114.558 14.5877 113.097 14.3848 111.67 14.6072H105.837C101.578 14.6072 97.3199 14.6072 93.0616 15.1905C92.0116 15.1905 90.9616 15.1905 91.0199 16.4739C91.0199 19.6822 91.0199 22.8905 91.0199 26.0989V30.9405C91.0199 31.8739 90.6699 33.2155 91.6616 33.7405C92.6768 34.1561 93.7784 34.3163 94.8699 34.2072C100.703 34.2072 106.537 33.8572 112.72 33.8572C113.595 33.8572 114.82 33.8572 115.52 33.5655C117.212 32.3405 116.453 29.5989 116.337 27.7322L115.987 20.9072C116.139 18.9559 116.022 16.9929 115.637 15.0739L115.87 15.1905Z" stroke="#0A1D2A" stroke-width="3.75" stroke-linecap="round" stroke-linejoin="round"/>
<path d="M38.7539 44.2987L71.3039 43.832" stroke="#0A1D2A" stroke-width="3.75" stroke-linecap="round" stroke-linejoin="round"/>
<path d="M38.5205 61.9156L70.3122 61.3906" stroke="#0A1D2A" stroke-width="3.75" stroke-linecap="round" stroke-linejoin="round"/>
<path d="M69.6699 76.207L92.3033 76.6737" stroke="#0A1D2A" stroke-width="3.75" stroke-linecap="round" stroke-linejoin="round"/>
<path d="M68.8535 96.7983C76.2618 96.215 83.9035 96.7983 91.3119 96.7983" stroke="#0A1D2A" stroke-width="3.75" stroke-linecap="round" stroke-linejoin="round"/>
<path d="M56.2533 79.0652C57.8964 79.0652 59.2283 77.7333 59.2283 76.0902C59.2283 74.4472 57.8964 73.1152 56.2533 73.1152C54.6103 73.1152 53.2783 74.4472 53.2783 76.0902C53.2783 77.7333 54.6103 79.0652 56.2533 79.0652Z" fill="#0A1D2A"/>
<path d="M56.4867 98.8992C58.1298 98.8992 59.4617 97.5673 59.4617 95.9242C59.4617 94.2812 58.1298 92.9492 56.4867 92.9492C54.8437 92.9492 53.5117 94.2812 53.5117 95.9242C53.5117 97.5673 54.8437 98.8992 56.4867 98.8992Z" fill="#0A1D2A"/>
</svg>
