<svg width="140" height="140" viewBox="0 0 140 140" fill="none" xmlns="http://www.w3.org/2000/svg">
<path d="M53.9916 63.6503C52.8733 67.2462 52.9447 71.1069 54.1953 74.6589C55.4459 78.2109 57.8089 81.2648 60.9333 83.367C63.7849 85.0152 67.058 85.7889 70.3457 85.5918C73.6334 85.3948 76.7907 84.2357 79.425 82.2586C81.9718 80.1941 83.9052 77.472 85.0157 74.3873C86.1262 71.3026 86.3715 67.9728 85.725 64.7586C85.1584 61.2257 83.4474 57.9766 80.8549 55.5105C78.2624 53.0445 74.9318 51.498 71.375 51.1086C67.4272 50.605 63.4356 51.6202 60.2081 53.9487C56.9807 56.2773 54.7586 59.7451 53.9916 63.6503Z" stroke="#0A1D2A" stroke-width="3.75" stroke-linecap="round" stroke-linejoin="round"/>
<path d="M49.0908 14.7089C46.4176 15.1306 44.0125 16.5736 42.3825 18.7339C41.2468 20.3486 40.7074 22.3077 40.8563 24.2762C41.0053 26.2446 41.8334 28.1002 43.1992 29.5256C44.6614 30.7298 46.4966 31.3882 48.3908 31.3882C50.285 31.3882 52.1203 30.7298 53.5825 29.5256C58.8908 25.4423 57.4325 13.3673 49.0908 14.7089Z" stroke="#0A1D2A" stroke-width="3.75" stroke-linecap="round" stroke-linejoin="round"/>
<path d="M91.6167 31.452C91.392 33.1068 91.7925 34.786 92.7401 36.1612C93.6877 37.5364 95.1142 38.5086 96.7406 38.8879C98.367 39.2671 100.076 39.0261 101.535 38.2119C102.993 37.3977 104.095 36.0689 104.625 34.4853C104.947 33.587 105.076 32.6311 105.006 31.6796C104.935 30.728 104.666 29.8018 104.215 28.9608C103.764 28.1198 103.142 27.3826 102.389 26.7969C101.636 26.2112 100.768 25.7899 99.8417 25.5603C98.9081 25.3291 97.9355 25.3031 96.9909 25.4841C96.0463 25.6652 95.1522 26.049 94.3703 26.6091C93.5884 27.1692 92.9373 27.8922 92.4619 28.7283C91.9866 29.5644 91.6982 30.4936 91.6167 31.452Z" stroke="#0A1D2A" stroke-width="3.75" stroke-linecap="round" stroke-linejoin="round"/>
<path d="M110.808 62.1345C109.267 62.1704 107.768 62.645 106.487 63.5025C105.206 64.36 104.195 65.565 103.575 66.9762C103.079 68.1422 102.862 69.4075 102.94 70.6719C103.018 71.9364 103.389 73.1654 104.024 74.2617C104.659 75.3579 105.54 76.2915 106.598 76.9885C107.656 77.6855 108.862 78.1268 110.12 78.2776C111.378 78.4283 112.653 78.2844 113.846 77.8571C115.038 77.4298 116.115 76.731 116.991 75.8157C117.867 74.9005 118.518 73.7941 118.893 72.5839C119.268 71.3737 119.355 70.0929 119.15 68.8429C118.861 66.8793 117.841 65.0973 116.294 63.8535C114.747 62.6097 112.788 61.9957 110.808 62.1345Z" stroke="#0A1D2A" stroke-width="3.75" stroke-linecap="round" stroke-linejoin="round"/>
<path d="M99.491 98.5345C98.5924 98.3501 97.6648 98.3588 96.7698 98.5599C95.8748 98.761 95.0327 99.15 94.2993 99.7012C93.3155 100.334 92.4666 101.155 91.8015 102.118C91.1365 103.08 90.6685 104.165 90.4245 105.309C90.1805 106.453 90.1653 107.634 90.3798 108.784C90.5943 109.934 91.0343 111.03 91.6743 112.01C92.932 113.55 94.6989 114.591 96.6562 114.944C98.6136 115.297 100.633 114.939 102.349 113.935C104.009 112.86 105.246 111.246 105.852 109.365C106.458 107.483 106.395 105.45 105.674 103.61C105.142 102.319 104.299 101.18 103.221 100.295C102.142 99.4093 100.86 98.8046 99.491 98.5345Z" stroke="#0A1D2A" stroke-width="3.75" stroke-linecap="round" stroke-linejoin="round"/>
<path d="M28.3245 102.793C26.0681 103.797 24.151 105.433 22.8051 107.504C21.4592 109.574 20.7423 111.991 20.7412 114.46C20.9747 117.207 22.1454 119.79 24.0571 121.776C25.9689 123.762 28.5053 125.03 31.2412 125.368C33.9936 125.557 36.7275 124.797 38.9881 123.216C41.2487 121.635 42.8997 119.327 43.6662 116.677C44.2733 113.8 43.8307 110.801 42.4183 108.222C41.0059 105.644 38.7172 103.656 35.9662 102.618C34.7442 102.141 33.4396 101.91 32.1278 101.94C30.8161 101.97 29.5234 102.26 28.3245 102.793Z" stroke="#0A1D2A" stroke-width="3.75" stroke-linecap="round" stroke-linejoin="round"/>
<path d="M28.6165 53.2677C27.676 53.54 26.8417 54.0943 26.2262 54.8558C25.6107 55.6173 25.2438 56.5494 25.1749 57.5261C25.1265 58.8354 25.5202 60.1228 26.2927 61.181C27.0652 62.2392 28.1715 63.0066 29.4332 63.3594C30.7662 63.5428 32.1217 63.2596 33.2698 62.558C34.418 61.8563 35.2883 60.7793 35.7332 59.5094C35.954 58.563 35.9135 57.5743 35.6163 56.6491C35.319 55.7238 34.7761 54.8966 34.0455 54.2558C33.3148 53.615 32.4239 53.1846 31.4677 53.0106C30.5116 52.8365 29.5261 52.9254 28.6165 53.2677Z" stroke="#0A1D2A" stroke-width="3.75" stroke-linecap="round" stroke-linejoin="round"/>
<path d="M53.1748 31.7422L61.8081 51.1089" stroke="#0A1D2A" stroke-width="3.75" stroke-linecap="round" stroke-linejoin="round"/>
<path d="M86.3662 67.6758L101.358 68.6674" stroke="#0A1D2A" stroke-width="3.75" stroke-linecap="round" stroke-linejoin="round"/>
<path d="M79.3662 82.6094C83.2745 88.0927 87.4745 93.401 91.4995 98.826" stroke="#0A1D2A" stroke-width="3.75" stroke-linecap="round" stroke-linejoin="round"/>
<path d="M58.3076 81.6758C52.4743 89.2591 46.641 96.9008 40.8076 104.542" stroke="#0A1D2A" stroke-width="3.75" stroke-linecap="round" stroke-linejoin="round"/>
<path d="M36.8994 61.377C41.9744 62.3686 48.5661 63.7686 53.1744 64.7603" stroke="#0A1D2A" stroke-width="3.75" stroke-linecap="round" stroke-linejoin="round"/>
<path d="M65.308 61.8418C64.2705 62.527 63.4006 63.437 62.7628 64.5043C62.125 65.5716 61.7356 66.7687 61.6236 68.007C61.5115 69.2453 61.6796 70.4929 62.1155 71.6573C62.5513 72.8217 63.2437 73.8731 64.1413 74.7335" stroke="#0A1D2A" stroke-width="3.75" stroke-linecap="round" stroke-linejoin="round"/>
<path d="M81.0586 54.5509L94.1836 38.3926" stroke="#0A1D2A" stroke-width="3.75" stroke-linecap="round" stroke-linejoin="round"/>
</svg>
