<svg width="140" height="140" viewBox="0 0 140 140" fill="none" xmlns="http://www.w3.org/2000/svg">
<path d="M28.1693 36.807C26.1859 37.857 22.3359 38.907 22.3359 41.5904C22.3359 44.2737 25.7193 45.6737 27.7609 46.8404C38.0859 52.6737 48.2943 58.857 58.5609 64.8654L64.3943 68.132C65.5609 68.832 66.8443 69.9987 68.2443 69.7654C69.9191 69.2346 71.5099 68.4686 72.9693 67.4904C76.0609 65.7987 78.8026 63.932 82.0109 62.0654L111.178 43.632C112.403 42.8737 113.686 41.9404 113.861 40.5404C114.036 39.1404 112.286 37.332 110.653 36.3404L80.2609 18.257C77.3153 16.0966 73.8144 14.8216 70.1693 14.582C66.9661 14.9397 63.9006 16.0817 61.2443 17.907L37.9109 31.4404" stroke="#0A1D2A" stroke-width="3.75" stroke-linecap="round" stroke-linejoin="round"/>
<path d="M68.7695 69.7656C68.7695 74.1406 68.7695 78.399 68.7695 82.7156V96.8323V125.066" stroke="#0A1D2A" stroke-width="3.75" stroke-linecap="round" stroke-linejoin="round"/>
<path d="M22.278 41.6488C21.6363 58.3905 21.3447 75.1322 21.6947 91.9322C21.612 94.3056 21.9477 96.6751 22.6863 98.9322C24.0863 102.374 28.5197 104.357 31.2613 106.34C34.003 108.324 38.7863 111.24 42.928 113.515C47.0697 115.79 51.678 118.357 56.1696 120.515C60.2345 123.272 64.9297 124.957 69.8196 125.415C73.8813 124.364 77.7032 122.542 81.078 120.049C84.928 117.832 88.8363 115.615 92.7447 113.34C96.653 111.065 101.261 108.09 105.461 105.407L111.586 101.382C113.556 100.404 115.243 98.938 116.486 97.1238C117.113 95.658 117.507 94.1031 117.653 92.5155C118.285 85.788 118.48 79.0266 118.236 72.2738C118.236 65.5072 117.653 58.6238 118.236 51.9155C118.529 49.4352 118.529 46.9291 118.236 44.4488C118.008 43.0381 117.451 41.7009 116.61 40.5455C115.769 39.3902 114.667 38.4492 113.395 37.7988" stroke="#0A1D2A" stroke-width="3.75" stroke-linecap="round" stroke-linejoin="round"/>
<path d="M32.2529 66.3242L32.8946 92.2242" stroke="#0A1D2A" stroke-width="3.75" stroke-linecap="round" stroke-linejoin="round"/>
</svg>
