<svg width="140" height="140" viewBox="0 0 140 140" fill="none" xmlns="http://www.w3.org/2000/svg">
<path d="M16.8535 27.416C23.2702 30.566 29.4535 33.6577 35.8702 36.9827" stroke="#0A1D2A" stroke-width="3.75" stroke-linecap="round" stroke-linejoin="round"/>
<path d="M35.8701 36.9245L56.1701 25.2578" stroke="#0A1D2A" stroke-width="3.75" stroke-linecap="round" stroke-linejoin="round"/>
<path d="M36.1611 36.8672C36.1611 44.3339 36.1611 59.2672 36.1611 59.2672" stroke="#0A1D2A" stroke-width="3.75" stroke-linecap="round" stroke-linejoin="round"/>
<path d="M56.7535 24.8505C57.0056 28.4823 57.0056 32.1271 56.7535 35.7589V45.3255C56.7535 46.1422 56.7535 47.0755 56.2285 47.6589C55.7035 48.2422 54.6535 48.5339 53.8952 49.0005C52.1452 49.9339 50.4535 50.9255 48.7618 51.9172C47.0702 52.9089 36.5118 59.4422 35.9868 59.5589C34.3474 59.0366 32.7797 58.3116 31.3202 57.4005L26.3035 54.9505C23.9118 53.7255 21.5202 52.4422 19.0702 51.2755C18.144 50.8879 17.2636 50.3988 16.4452 49.8172C16.0764 49.1407 15.9333 48.364 16.0368 47.6005C16.0368 46.3172 16.0368 39.6672 16.0368 37.6839C15.8601 34.2055 15.8601 30.7205 16.0368 27.2422C16.0368 26.2505 19.1285 24.9089 20.5285 24.0922L25.9535 20.8255C29.4234 18.3779 33.2111 16.4154 37.2118 14.9922C40.6587 16.0058 43.9693 17.4358 47.0702 19.2505C50.5656 20.6105 53.8314 22.4992 56.7535 24.8505Z" stroke="#0A1D2A" stroke-width="3.75" stroke-linecap="round" stroke-linejoin="round"/>
<path d="M83.1787 27.416C89.5954 30.566 95.7204 33.716 102.137 36.9827" stroke="#0A1D2A" stroke-width="3.75" stroke-linecap="round" stroke-linejoin="round"/>
<path d="M102.137 36.9245L122.495 25.2578" stroke="#0A1D2A" stroke-width="3.75" stroke-linecap="round" stroke-linejoin="round"/>
<path d="M102.486 36.8672C102.486 44.3339 102.486 59.2672 102.486 59.2672" stroke="#0A1D2A" stroke-width="3.75" stroke-linecap="round" stroke-linejoin="round"/>
<path d="M123.079 24.8505C123.301 28.4832 123.301 32.1262 123.079 35.7589V45.3255C123.079 46.1422 123.37 47.0755 122.612 47.6589C121.854 48.2422 121.037 48.5339 120.22 49.0005L115.087 51.9172C112.87 53.2005 102.895 59.4422 102.37 59.5589C100.708 59.049 99.1192 58.3234 97.6454 57.4005L92.687 54.9505C90.237 53.7255 87.8454 52.4422 85.3954 51.2755C84.4819 50.8621 83.604 50.3743 82.7704 49.8172C82.429 49.1312 82.2875 48.3631 82.362 47.6005C82.362 46.3172 82.362 39.6672 82.362 37.6839C82.1853 34.2055 82.1853 30.7205 82.362 27.2422C82.712 26.2505 85.4537 24.9089 86.8537 24.0922L92.337 20.8255C95.7799 18.368 99.5498 16.4045 103.537 14.9922C106.988 15.9946 110.3 17.4252 113.395 19.2505C116.881 20.6313 120.144 22.5182 123.079 24.8505Z" stroke="#0A1D2A" stroke-width="3.75" stroke-linecap="round" stroke-linejoin="round"/>
<path d="M84.2285 92.8672C90.7035 96.0172 96.8285 99.1672 103.245 102.434" stroke="#0A1D2A" stroke-width="3.75" stroke-linecap="round" stroke-linejoin="round"/>
<path d="M103.245 102.376L123.545 90.709" stroke="#0A1D2A" stroke-width="3.75" stroke-linecap="round" stroke-linejoin="round"/>
<path d="M103.537 102.316C103.537 109.783 103.537 124.716 103.537 124.716" stroke="#0A1D2A" stroke-width="3.75" stroke-linecap="round" stroke-linejoin="round"/>
<path d="M124.186 90.2409C124.404 93.8737 124.404 97.5164 124.186 101.149V110.774C124.186 111.591 124.186 112.524 123.661 113.049C122.918 113.571 122.138 114.039 121.328 114.449L116.194 117.366C113.919 118.649 104.003 124.891 103.419 125.008C101.8 124.436 100.237 123.713 98.7528 122.849L93.7944 120.399L86.5028 116.666C85.5744 116.307 84.693 115.837 83.8778 115.266C83.5128 114.588 83.37 113.813 83.4694 113.049C83.4694 111.766 83.4694 105.116 83.4694 103.133C83.2927 99.6542 83.2927 96.1692 83.4694 92.6909C83.4694 91.6992 86.5611 90.3576 87.9611 89.5409L93.8528 86.1576C97.2683 83.7239 100.996 81.7618 104.936 80.3242C108.383 81.3379 111.694 82.7679 114.794 84.5825C118.17 86.0288 121.33 87.9328 124.186 90.2409Z" stroke="#0A1D2A" stroke-width="3.75" stroke-linecap="round" stroke-linejoin="round"/>
<path d="M16.6201 90.0664C23.2701 93.2164 29.1035 96.4247 35.6368 99.6331" stroke="#0A1D2A" stroke-width="3.75" stroke-linecap="round" stroke-linejoin="round"/>
<path d="M35.6367 99.5749L55.9367 87.9082" stroke="#0A1D2A" stroke-width="3.75" stroke-linecap="round" stroke-linejoin="round"/>
<path d="M35.9287 99.5156C35.9287 106.982 35.9287 121.916 35.9287 121.916" stroke="#0A1D2A" stroke-width="3.75" stroke-linecap="round" stroke-linejoin="round"/>
<path d="M56.5203 87.499C56.7725 91.1307 56.7725 94.7756 56.5203 98.4073V107.974C56.5203 108.849 56.812 109.724 56.0537 110.307C55.3094 110.81 54.5296 111.259 53.7203 111.649L48.587 114.566C46.312 115.849 36.337 122.149 35.812 122.207C34.1841 121.681 32.6192 120.976 31.1453 120.107L26.1287 117.599L18.8953 113.924C17.9582 113.559 17.0751 113.069 16.2703 112.466C15.9058 111.787 15.7438 111.017 15.8037 110.249C15.8037 108.966 15.8037 102.316 15.8037 100.332C15.598 96.8548 15.598 93.3681 15.8037 89.8906C15.8037 88.899 18.837 87.6156 20.2953 86.7406L25.7203 83.474C29.1973 81.0379 32.9834 79.0762 36.9787 77.6406C40.4256 78.6543 43.7361 80.0843 46.837 81.899C50.3324 83.2589 53.5983 85.1476 56.5203 87.499Z" stroke="#0A1D2A" stroke-width="3.75" stroke-linecap="round" stroke-linejoin="round"/>
<path d="M36.2197 59.6758C36.2197 62.8841 36.2197 69.2424 36.2197 69.2424" stroke="#0A1D2A" stroke-width="3.75" stroke-linecap="round" stroke-linejoin="round"/>
<path d="M56.3457 88.1406C60.8374 88.1406 69.8207 88.1406 69.8207 88.1406" stroke="#0A1D2A" stroke-width="3.75" stroke-linecap="round" stroke-linejoin="round"/>
<path d="M83.5873 48.8246L69.2373 48.4746" stroke="#0A1D2A" stroke-width="3.75" stroke-linecap="round" stroke-linejoin="round"/>
<path d="M104.295 78.2253C104.645 74.4919 104.295 66.5586 104.295 66.5586" stroke="#0A1D2A" stroke-width="3.75" stroke-linecap="round" stroke-linejoin="round"/>
</svg>
