<svg width="140" height="140" viewBox="0 0 140 140" fill="none" xmlns="http://www.w3.org/2000/svg">
<path d="M102.511 94.1666C102.511 96.9083 102.919 111.142 100.877 112.892C98.8357 114.642 81.3941 114.292 77.0774 114.292C66.5191 114.292 55.9024 114.292 45.3441 114.583H21.5441H15.3024C14.4274 114.583 14.5441 111.142 14.6024 109.567V102.625C14.6024 98.3083 14.6024 90.2583 14.6024 85.8833C14.6024 65.0583 14.1941 28.9499 16.1774 27.5499C19.7357 24.6333 35.3107 26.1499 45.6941 26.0916L80.6941 25.7416C89.0357 25.4499 98.8357 24.9249 100.702 26.4999C102.063 28.1287 102.751 30.2148 102.627 32.3333V39.8583V54.7916" stroke="#0A1D2A" stroke-width="3.75" stroke-linecap="round" stroke-linejoin="round"/>
<path d="M16.7031 45.5163C27.0865 45.1663 36.0698 45.5163 46.2781 45.1079L78.0115 44.6413L102.453 44.3496" stroke="#0A1D2A" stroke-width="3.75" stroke-linecap="round" stroke-linejoin="round"/>
<path d="M32.5693 45.0488C32.5693 47.6738 32.5693 50.3572 32.5693 52.9822" stroke="#0A1D2A" stroke-width="3.75" stroke-linecap="round" stroke-linejoin="round"/>
<path d="M16.9365 61.5001C19.9239 61.2083 22.9325 61.2083 25.9199 61.5001" stroke="#0A1D2A" stroke-width="3.75" stroke-linecap="round" stroke-linejoin="round"/>
<path d="M31.9863 67.334C31.9863 67.334 31.9863 75.4423 31.9863 77.1923V88.334C31.9863 96.0923 31.9863 103.909 31.9863 111.667" stroke="#0A1D2A" stroke-width="3.75" stroke-linecap="round" stroke-linejoin="round"/>
<path d="M40.0361 60.0421L52.1111 59.7504H65.7611L92.7695 59.4004" stroke="#0A1D2A" stroke-width="3.75" stroke-linecap="round" stroke-linejoin="round"/>
<path d="M68.0361 46.2168C68.0361 48.9001 68.0361 59.0501 68.0361 61.9085V71.0085C68.0361 73.5751 68.0361 79.6418 68.0361 79.6418" stroke="#0A1D2A" stroke-width="3.75" stroke-linecap="round" stroke-linejoin="round"/>
<path d="M56.2523 76.7821C56.103 76.0459 55.7507 75.3662 55.2353 74.8198C54.7198 74.2735 54.0618 73.8822 53.3356 73.6904C52.6889 73.5245 52.0116 73.5175 51.3616 73.6698C50.7115 73.8222 50.1079 74.1294 49.6023 74.5654C48.7138 75.6221 48.1934 76.9393 48.1198 78.3179C48.0461 79.6965 48.4231 81.0617 49.1939 82.2071C50.5356 84.5987 52.7523 86.4071 54.3273 88.6821C55.2184 89.7583 55.7759 91.0712 55.9313 92.4598C56.0867 93.8484 55.8334 95.2521 55.2023 96.4987C54.5761 97.4425 53.6165 98.1149 52.5157 98.3812C51.4148 98.6476 50.254 98.4882 49.2657 97.935C48.2774 97.3819 47.5345 96.4757 47.1859 95.3981C46.8372 94.3205 46.9086 93.151 47.3856 92.1237" stroke="#0A1D2A" stroke-width="3.75" stroke-linecap="round" stroke-linejoin="round"/>
<path d="M52.1699 99.8242C52.1699 99.8242 52.1699 101.866 52.1699 103.733" stroke="#0A1D2A" stroke-width="3.75" stroke-linecap="round" stroke-linejoin="round"/>
<path d="M51.7031 68.207C51.7031 69.082 51.7031 69.8987 51.7031 70.7737" stroke="#0A1D2A" stroke-width="3.75" stroke-linecap="round" stroke-linejoin="round"/>
<path d="M118.203 53.7405C119.195 53.7405 120.653 55.1989 121.353 55.8989C122.053 56.5989 122.695 57.5905 123.57 58.4655C124.479 59.1717 125.134 60.1545 125.436 61.2655C125.436 62.7239 124.561 63.3072 123.628 64.1822L121.586 66.1072L117.445 70.0155L109.161 77.7739L108.87 78.1239C103.328 83.3156 100.528 86.1155 95.0446 91.3072C94.0529 92.2405 90.6696 95.5655 89.7946 96.4989C86.4186 98.0454 82.8129 99.0306 79.1196 99.4155C78.9056 95.4433 79.5215 91.47 80.9279 87.7489C82.2112 86.3489 92.0112 77.4239 97.6112 72.2906L114.236 56.8322C114.878 55.9572 116.803 53.6239 118.203 53.7405Z" stroke="#0A1D2A" stroke-width="3.75" stroke-miterlimit="10"/>
</svg>
