<svg width="140" height="140" viewBox="0 0 140 140" fill="none" xmlns="http://www.w3.org/2000/svg">
<path d="M31.033 23.3327C28.758 23.3327 21.4663 24.091 19.3663 24.4993C9.97463 26.016 12.133 34.6493 12.133 42.641C12.133 63.5243 12.133 84.4077 12.133 105.233C11.8596 107.31 12.0246 109.421 12.6174 111.431C13.2102 113.44 14.2176 115.303 15.5746 116.899C18.5613 118.892 22.158 119.76 25.7246 119.349H52.6746C56.7666 119.739 60.8717 118.753 64.3413 116.549C66.1235 114.522 67.4431 112.13 68.2087 109.542C68.9742 106.953 69.1674 104.229 68.7746 101.558V40.3077C69.2827 35.7812 68.1888 31.2197 65.683 27.416C63.5892 25.5673 61.1117 24.2056 58.4287 23.4289C55.7457 22.6523 52.9239 22.4799 50.1663 22.9243C42.1746 22.9827 36.633 23.3327 31.033 23.3327Z" stroke="#0A1D2A" stroke-width="4.85" stroke-linecap="round" stroke-linejoin="round"/>
<path d="M26.4248 41.8257L54.1915 40.834" stroke="#0A1D2A" stroke-width="4.7" stroke-linecap="round" stroke-linejoin="round"/>
<path d="M25.1416 56.2926L53.6666 54.8926" stroke="#0A1D2A" stroke-width="4.7" stroke-linecap="round" stroke-linejoin="round"/>
<path d="M25.375 69.9991L53.9583 69.3574" stroke="#0A1D2A" stroke-width="4.7" stroke-linecap="round" stroke-linejoin="round"/>
<path d="M69.125 36.4004C74.1417 36.4004 79.2167 36.4004 84.2333 36.4004" stroke="#0A1D2A" stroke-width="3.65" stroke-linecap="round" stroke-linejoin="round"/>
<path d="M70.4082 105C75.3665 105 80.3832 105 85.3999 105" stroke="#0A1D2A" stroke-width="3.65" stroke-linecap="round" stroke-linejoin="round"/>
<path d="M70 70.5254H84.2917" stroke="#0A1D2A" stroke-width="3.65" stroke-linecap="round" stroke-linejoin="round"/>
<path d="M85.2836 26.4824C85.2077 26.4115 85.1471 26.3257 85.1057 26.2303C85.0643 26.135 85.043 26.0322 85.043 25.9283C85.043 25.8243 85.0643 25.7215 85.1057 25.6262C85.1471 25.5308 85.2077 25.445 85.2836 25.3741C86.9871 24.105 88.8261 23.029 90.767 22.1658L93.6836 20.4741C94.617 19.8908 95.5503 19.3074 96.4837 18.8408L102.025 15.9824C102.944 15.4841 103.958 15.186 105 15.1074C105.645 15.1789 106.263 15.3985 106.809 15.7491C107.392 16.0991 111.592 18.4324 113.225 19.2491L118.592 22.0491C120.432 22.8831 122.174 23.9201 123.784 25.1408C123.784 25.1408 122.909 25.7241 122.85 25.8408C121.75 26.546 120.6 27.1698 119.409 27.7074L114.509 30.4491L111.009 32.3158L107.1 34.4741C106.495 34.9387 105.791 35.259 105.043 35.4107C104.295 35.5623 103.522 35.5412 102.784 35.3491C101.267 34.8241 97.5337 32.4908 95.9587 31.6741C94.3837 30.8574 91.992 29.5741 90.8836 29.1074C88.928 28.4363 87.0505 27.5562 85.2836 26.4824Z" stroke="#0A1D2A" stroke-width="3.75" stroke-linecap="round" stroke-linejoin="round"/>
<path d="M85.0497 25.9575C84.2621 32.272 84.2621 38.6598 85.0497 44.9742C85.0344 45.7412 85.2558 46.4943 85.6838 47.1309C86.1117 47.7676 86.7254 48.257 87.4413 48.5325C91.058 50.4576 94.7913 52.1492 98.583 53.7826C100.469 54.6836 102.418 55.444 104.416 56.0575C107.391 56.8159 110.25 54.1909 112.641 52.7326L118.475 49.1742C119.7 48.4159 122.616 47.3076 123.083 45.8492C123.617 43.3985 123.775 40.8807 123.55 38.3826C123.55 33.9492 123.841 29.5742 123.55 25.1992" stroke="#0A1D2A" stroke-width="3.75" stroke-linecap="round" stroke-linejoin="round"/>
<path d="M104.066 35.6992C104.066 37.1576 104.358 38.5576 104.533 40.0159C104.708 41.4742 104.533 42.5242 104.533 43.8076C104.533 46.3159 104.533 48.8242 104.533 51.3909C104.533 52.4992 104.533 53.6659 104.533 54.7742" stroke="#0A1D2A" stroke-width="3.75" stroke-linecap="round" stroke-linejoin="round"/>
<path d="M122.5 80.4414C121.334 82.8914 116.667 84.6997 114.567 86.2747C111.439 88.0287 108.205 89.5873 104.884 90.9414" stroke="#0A1D2A" stroke-width="3.75" stroke-linecap="round" stroke-linejoin="round"/>
<path d="M105 90.766C98.4347 88.6286 92.2079 85.5643 86.5088 81.666" stroke="#0A1D2A" stroke-width="3.75" stroke-linecap="round" stroke-linejoin="round"/>
<path d="M86.5087 81.6673C85.4004 80.6757 85.8671 74.6673 85.8671 71.5757C85.6909 68.0239 85.9061 64.4636 86.5087 60.959C87.0337 60.2006 89.0171 62.1256 90.0087 62.709L94.9087 65.4507C98.2337 67.3173 104.417 71.284 104.767 71.284C106.035 70.5126 107.262 69.6753 108.442 68.7756L113.05 65.9173C116.2 63.934 122.267 60.084 122.559 60.084C122.85 60.084 123.025 60.959 123.025 61.9506C123.025 62.9423 123.025 67.3173 122.734 70.8756C122.964 74.0646 122.886 77.2684 122.5 80.4423" stroke="#0A1D2A" stroke-width="3.75" stroke-linecap="round" stroke-linejoin="round"/>
<path d="M105 70.8164V89.7164" stroke="#0A1D2A" stroke-width="3.75" stroke-linecap="round" stroke-linejoin="round"/>
<path d="M122.5 116.666C121.334 119.174 116.667 120.924 114.567 122.499C111.439 124.253 108.205 125.812 104.884 127.166" stroke="#0A1D2A" stroke-width="3.75" stroke-linecap="round" stroke-linejoin="round"/>
<path d="M105 126.874C98.4689 124.655 92.2979 121.49 86.6836 117.482" stroke="#0A1D2A" stroke-width="3.75" stroke-linecap="round" stroke-linejoin="round"/>
<path d="M86.5087 117.483C85.4004 116.491 85.8671 110.483 85.8671 107.391C85.6909 103.839 85.9061 100.279 86.5087 96.7744C87.0337 96.016 89.0171 97.9993 90.0087 98.5243L94.9087 101.324C98.2337 103.191 104.417 107.158 104.767 106.866C106.035 106.095 107.262 105.257 108.442 104.358L113.05 101.499C116.2 99.516 122.267 95.666 122.559 95.666C122.85 95.666 123.025 96.5993 123.025 97.5327C123.025 98.466 123.025 102.899 122.734 106.458C123.007 109.859 122.928 113.28 122.5 116.666" stroke="#0A1D2A" stroke-width="3.75" stroke-linecap="round" stroke-linejoin="round"/>
<path d="M105 106.926V125.884" stroke="#0A1D2A" stroke-width="3.75" stroke-linecap="round" stroke-linejoin="round"/>
<path d="M50.5747 108.267C53.0554 108.267 55.0663 106.256 55.0663 103.775C55.0663 101.294 53.0554 99.2832 50.5747 99.2832C48.094 99.2832 46.083 101.294 46.083 103.775C46.083 106.256 48.094 108.267 50.5747 108.267Z" fill="#0A1D2A"/>
</svg>
